                <!-- SVG Menu Generated By CIRCULUS.SVG :: https://sarasoueidan.com/tools/circulus -->
                <svg xmlns="http://www.w3.org/2000/svg" xmlns:xlink="http://www.w3.org/1999/xlink" viewBox="-100 -100 700 700" id="menu" style="transform-origin: 50% 50% 0px; transform: translate3d(0px, 0px, 0px); touch-action: none; -moz-user-select: none;">
                    <style>
                        #menu {
                            display: block;
                            margin: 0 auto;
                            overflow: visible; /* uncomment this if you are using bouncing animations*/
                        }

                        a {
                            cursor: pointer; /* SVG &lt;a&gt; elements don't get this by default, so you need to explicitly set it */
                            outline: none;
                        }

                        /* You can change these default styles any way you want */

                        .item .sector {
                            transition: all .1s linear;
                            fill: #fff;
                            stroke: #fff;
			    stroke-width: 5
                        }


                        .item:hover .sector, .item:focus .sector {
                            fill: #eee;
                        }

                        .menu-trigger {
                            fill: #fff;
                            pointer-events: auto; /* KEEP THIS to make sure it stays clickable even when SVG's pointer events is disabled */
                        }

                        .menu-trigger:hover, .menu-trigger:focus {
                            cursor: pointer;
                        }
                        symbol {
                            overflow: visible; /* KEEP THIS so that text will not get cut off it it is wider than the icon width */
                        }
                    </style>
                    <g id="symbolsContainer">    <symbol class="icon icon-" id="icon-1" viewBox="0 0 130 130"><!--Replace the contents of this symbol with the content of your icon--><text fill="#222" x="50%" y="50%" dy=".3em" text-anchor="middle" font-size="1.7em"><tspan x="50%" dy=".6em">You</tspan>
        <tspan x="50%" dy="1.2em">Welcome</tspan></text></symbol>

    <symbol class="icon icon-" id="icon-2" viewBox="0 0 130 130"><!--Replace the contents of this symbol with the content of your icon--><text fill="#222" x="50%" y="50%" dy="1.2em" text-anchor="middle" font-size="1.7em">Yes</text></symbol>

    <symbol class="icon icon-" id="icon-3" viewBox="0 0 130 130"><!--Replace the contents of this symbol with the content of your icon--><text fill="#222" x="50%" y="50%" dy="1.2em" text-anchor="middle" font-size="1.7em">No</text></symbol>

    <symbol class="icon icon-" id="icon-4" viewBox="0 0 130 130"><!--Replace the contents of this symbol with the content of your icon--><text fill="#222" x="50%" y="50%" dy="1.2em" text-anchor="middle" font-size="1.7em">Thank</text></symbol>

    <symbol class="icon icon-" id="icon-5" viewBox="0 0 130 130"><!--Replace the contents of this symbol with the content of your icon--><text fill="#222" x="50%" y="50%" dy="1.2em" text-anchor="middle" font-size="1.7em">Excuse</text></symbol>

    <symbol class="icon icon-" id="icon-6" viewBox="0 0 130 130"><!--Replace the contents of this symbol with the content of your icon--><text fill="#222" x="50%" y="50%" dy="1.2em" text-anchor="middle" font-size="1.7em">Apologise</text></symbol>

</g>
                    <g id="itemsContainer">        <a class="item" id="item-1" role="link" tabindex="0" xlink:title=" " transform="matrix(1,0,0,1,0,0)" data-svg-origin="250 250"><path fill="none" stroke="#111" d="M385,250 l115,0 A250,250 0 0,0 396.9463130731183,47.74575140626314 l-67.5953040136344,93.03695435311897 A135,135 0 0,1 385,250" class="sector"></path><use xlink:href="#icon-1" width="130" height="130" x="340" y="60" transform="rotate(63 401.47113037109375 172.8216094970703)"></use></a>
        <a class="item" id="item-2" role="link" tabindex="0" xlink:title=" " transform="matrix(0.5,-0.86602,0.86602,0.5,-91.5063509461097,341.5063509461096)" data-svg-origin="250 250"><path fill="none" stroke="#111" d="M385,250 l115,0 A250,250 0 0,0 396.9463130731183,47.74575140626314 l-67.5953040136344,93.03695435311897 A135,135 0 0,1 385,250" class="sector"></path><use xlink:href="#icon-2" width="130" height="130" x="340" y="60" transform="rotate(63 401.47113037109375 172.8216094970703)"></use></a>
        <a class="item" id="item-3" role="link" tabindex="0" xlink:title=" " transform="matrix(-0.49999,-0.86602,0.86602,-0.49999,158.49364905389027,591.5063509461096)" data-svg-origin="250 250"><path fill="none" stroke="#111" d="M385,250 l115,0 A250,250 0 0,0 396.9463130731183,47.74575140626314 l-67.5953040136344,93.03695435311897 A135,135 0 0,1 385,250" class="sector"></path><use xlink:href="#icon-3" width="130" height="130" x="340" y="60" transform="rotate(63 401.47113037109375 172.8216094970703)"></use></a>
        <a class="item" id="item-4" role="link" tabindex="0" xlink:title=" " transform="matrix(-1,0,0,-1,500,500)" data-svg-origin="250 250"><path fill="none" stroke="#111" d="M385,250 l115,0 A250,250 0 0,0 396.9463130731183,47.74575140626314 l-67.5953040136344,93.03695435311897 A135,135 0 0,1 385,250" class="sector"></path><use xlink:href="#icon-4" width="130" height="130" x="340" y="100" transform="rotate(240 401.47113037109375 172.8216094970703)"></use></a>
        <a class="item" id="item-5" role="link" tabindex="0" xlink:title=" " transform="matrix(-0.5,0.86602,-0.86602,-0.5,591.5063509461097,158.49364905389052)" data-svg-origin="250 250"><path fill="none" stroke="#111" d="M385,250 l115,0 A250,250 0 0,0 396.9463130731183,47.74575140626314 l-67.5953040136344,93.03695435311897 A135,135 0 0,1 385,250" class="sector"></path><use xlink:href="#icon-5" width="130" height="130" x="340" y="100" transform="rotate(240 401.47113037109375 172.8216094970703)"></use></a>
        <a class="item" id="item-6" role="link" tabindex="0" xlink:title=" " transform="matrix(0.5,0.86602,-0.86602,0.5,341.5063509461096,-91.5063509461097)" data-svg-origin="250 250"><path fill="none" stroke="#111" d="M385,250 l115,0 A250,250 0 0,0 396.9463130731183,47.74575140626314 l-67.5953040136344,93.03695435311897 A135,135 0 0,1 385,250" class="sector"></path><use xlink:href="#icon-6" width="130" height="130" x="340" y="100" transform="rotate(240 401.47113037109375 172.8216094970703)"></use></a>
</g>
                    <g id="trigger" class="trigger menu-trigger" role="button">
                        <circle cx="250" cy="250" r="100"></circle>
                        <!-- menu button label or icon goes here -->
			<text fill="#222" x="250" y="250" text-anchor="middle" font-size="1.7em"><tspan x="250">General</tspan>
        <tspan x="250" dy="1.2em">Purpose</tspan></text>
                    </g>
                </svg>
