<?xml version="1.0" encoding="UTF-8" standalone="no"?>
<!-- Created with Inkscape (http://www.inkscape.org/) -->

<svg
   xmlns:dc="http://purl.org/dc/elements/1.1/"
   xmlns:cc="http://creativecommons.org/ns#"
   xmlns:rdf="http://www.w3.org/1999/02/22-rdf-syntax-ns#"
   xmlns:svg="http://www.w3.org/2000/svg"
   xmlns="http://www.w3.org/2000/svg"
   xmlns:sodipodi="http://sodipodi.sourceforge.net/DTD/sodipodi-0.dtd"
   xmlns:inkscape="http://www.inkscape.org/namespaces/inkscape"
   width="541.8667mm"
   height="304.80005mm"
   viewBox="0 0 1920.0001 1080.0002"
   id="svg3989"
   version="1.1"
   inkscape:version="0.91 r13725"
   sodipodi:docname="btn_doubts.svg">
  <defs
     id="defs3991" />
  <sodipodi:namedview
     id="base"
     pagecolor="#ffffff"
     bordercolor="#666666"
     borderopacity="1.0"
     inkscape:pageopacity="0.0"
     inkscape:pageshadow="2"
     inkscape:zoom="0.7"
     inkscape:cx="894.23064"
     inkscape:cy="563.79432"
     inkscape:document-units="px"
     inkscape:current-layer="layer1"
     showgrid="false"
     fit-margin-top="0"
     fit-margin-left="0"
     fit-margin-right="0"
     fit-margin-bottom="0"
     inkscape:window-width="1920"
     inkscape:window-height="1016"
     inkscape:window-x="0"
     inkscape:window-y="27"
     inkscape:window-maximized="1" />
  <metadata
     id="metadata3994">
    <rdf:RDF>
      <cc:Work
         rdf:about="">
        <dc:format>image/svg+xml</dc:format>
        <dc:type
           rdf:resource="http://purl.org/dc/dcmitype/StillImage" />
        <dc:title></dc:title>
      </cc:Work>
    </rdf:RDF>
  </metadata>
  <g
     inkscape:label="Layer 1"
     inkscape:groupmode="layer"
     id="layer1"
     transform="translate(598.31887,21.92361)">
    <g
       id="btn_doubts_icon">
      <circle
         id="circle133"
         r="110.59"
         cy="798.88159"
         cx="361.68216"
         stroke-miterlimit="10"
         style="fill:#fff8c6;stroke:#d1d3d4;stroke-width:10;stroke-miterlimit:10" />
      <text
         id="text135"
         font-size="85.5068"
         transform="matrix(0.97084431,0.23971094,-0.23971094,0.97084431,0,0)"
         style="font-size:85.50289917px;font-family:GothamRounded-Bold;fill:#b2e3f8"
         x="552.51025"
         y="662.21942">?</text>
      <g
         id="g137"
         transform="translate(-598.37687,-21.93341)">
        <path
           id="path139"
           d="m 946.814,777.835 c 7.873,0 15.342,-0.002 22.809,0.002 1.396,0 2.793,-0.008 4.189,0.035 2.02,0.061 3.117,1.158 3.139,3.152 0.045,4.748 0.07,9.498 -0.008,14.244 -0.037,2.156 -1.105,3.053 -3.383,3.07 -4.398,0.031 -8.799,0.01 -13.199,0.012 -0.752,0 -1.504,0 -2.338,0 0,4.625 0,9 0,13.635 0.809,0 1.551,0 2.293,0 11.174,0 22.346,-0.01 33.52,0.002 15.896,0.02 28.414,9.883 32.137,25.305 4.119,17.053 -7.707,35.242 -24.988,38.34 -2.32,0.414 -4.707,0.631 -7.063,0.635 -26.188,0.043 -52.375,0.027 -78.563,0.027 -18.957,-0.002 -33.707,-15.838 -32.344,-34.719 1.184,-16.398 15.262,-29.441 32.059,-29.572 11.383,-0.088 22.766,-0.016 34.148,-0.018 0.76,0 1.52,0 2.51,0 0.043,-0.85 0.109,-1.58 0.111,-2.313 0.012,-4.471 -0.014,-8.939 0.018,-13.408 0.021,-2.844 1.078,-3.898 3.955,-3.918 4.951,-0.033 9.9,-0.01 15,-0.01 0,-2.803 0,-5.488 0,-8.49 -0.703,0 -1.438,0 -2.17,0 -7.822,0 -15.645,0.008 -23.465,-0.002 -3.398,-0.004 -4.383,-0.988 -4.387,-4.332 -0.006,-3.492 -0.014,-6.984 0.002,-10.477 0.012,-2.438 1.039,-3.676 3.004,-3.688 1.961,-0.014 2.965,1.166 3.004,3.688 0.046,2.843 0.01,5.687 0.01,8.8 z m 8.11,40.35 c 0,-0.047 0,-0.092 0,-0.139 -12.775,0 -25.553,0 -38.33,0 -0.139,0 -0.279,0.002 -0.418,0 -16.086,-0.322 -26.746,12.42 -27.191,25.24 -0.488,13.988 11.012,26.832 24.982,26.912 27.018,0.152 54.037,0.057 81.057,0.057 0.975,0 1.965,0.02 2.926,-0.123 16.434,-2.428 24.314,-17.506 22.576,-29.428 -1.727,-11.836 -11.947,-22.162 -23.926,-22.443 -13.885,-0.326 -27.784,-0.076 -41.676,-0.076 z"
           inkscape:connector-curvature="0"
           style="clip-rule:evenodd;fill:#bcbec0;fill-rule:evenodd" />
        <path
           id="path141"
           d="m 926.66,848.802 c 0,3.643 -0.061,6.98 0.023,10.313 0.049,1.945 -0.654,2.781 -2.678,2.748 -7.262,-0.113 -6.262,0.758 -6.316,-6.162 -0.018,-2.217 -0.002,-4.432 -0.002,-6.898 -3.467,0 -6.723,0.006 -9.979,-0.002 -2.797,-0.008 -3.154,-0.346 -3.15,-3.127 0.01,-7.139 -0.643,-5.924 5.965,-6.023 2.293,-0.035 4.584,-0.006 7.164,-0.006 0,-3.539 -0.01,-6.93 0.002,-10.322 0.008,-2.625 0.1,-2.709 2.715,-2.723 1.256,-0.008 2.521,0.098 3.766,-0.023 2.002,-0.195 2.557,0.762 2.508,2.582 -0.078,2.998 -0.021,6 -0.014,9 0.002,0.408 0.053,0.816 0.098,1.486 3.477,0 6.867,-0.006 10.258,0.002 2.453,0.006 2.826,0.334 2.824,2.74 -0.008,6.832 0.711,6.459 -6.189,6.418 -2.227,-0.015 -4.454,-0.003 -6.995,-0.003 z"
           inkscape:connector-curvature="0"
           style="clip-rule:evenodd;fill:#bcbec0;fill-rule:evenodd" />
        <path
           id="path143"
           d="m 990.938,839.626 c -3.4,-0.078 -6.184,-2.973 -6.137,-6.379 0.045,-3.293 3.156,-6.227 6.459,-6.092 3.242,0.133 6.096,3.123 6.047,6.336 -0.051,3.375 -2.998,6.213 -6.369,6.135 z"
           inkscape:connector-curvature="0"
           style="clip-rule:evenodd;fill:#bcbec0;fill-rule:evenodd" />
        <path
           id="path145"
           d="m 978.023,844.11 c 3.342,0.02 6.162,2.781 6.184,6.055 0.025,3.404 -2.959,6.305 -6.438,6.26 -3.424,-0.045 -6.041,-2.846 -5.98,-6.396 0.057,-3.344 2.793,-5.942 6.234,-5.919 z"
           inkscape:connector-curvature="0"
           style="clip-rule:evenodd;fill:#bcbec0;fill-rule:evenodd" />
        <path
           id="path147"
           d="m 998.131,845.786 c 3.389,0.039 6.096,2.779 6.082,6.152 -0.016,3.414 -2.857,6.188 -6.316,6.164 -3.461,-0.023 -6.068,-2.789 -6.016,-6.381 0.047,-3.359 2.803,-5.976 6.25,-5.935 z"
           inkscape:connector-curvature="0"
           style="clip-rule:evenodd;fill:#bcbec0;fill-rule:evenodd" />
      </g>
    </g>
    <g
       id="btn_doubts_joint_1">
      <text
         id="text151"
         font-size="62"
         style="font-size:62px;font-family:GothamRounded-Medium;fill:#a7a9ac"
         x="-260.24597"
         y="660.97583">Frase 1</text>
      <path
         id="path5171"
         d="m 12.666879,599.36568 c 22.666161,-0.56226 41.496151,17.36309 42.056241,40.02384 0.56119,22.66834 -17.35876,41.49399 -40.029271,42.05626 -22.66401,0.55901 -41.489649,-17.36201 -42.048659,-40.0282 -0.56444,-22.664 17.355519,-41.48963 40.021689,-42.0519 z"
         inkscape:connector-curvature="0"
         style="fill:#fafdfe;stroke:#d4e2f4;stroke-width:5.11835384;stroke-miterlimit:4;stroke-dasharray:none;stroke-opacity:1" />
    </g>
    <g
       id="btn_doubts_joint_2">
      <text
         id="text155"
         font-size="62"
         style="font-size:62px;font-family:GothamRounded-Medium;fill:#a7a9ac"
         x="-182.20987"
         y="567.08319">Frase 2</text>
      <path
         style="fill:#f2f7fc;fill-opacity:0.50622385;stroke:#d4e2f4;stroke-width:5.11835384;stroke-miterlimit:4;stroke-dasharray:none;stroke-opacity:1"
         inkscape:connector-curvature="0"
         d="m 104.09789,506.47567 c 22.66616,-0.56226 41.49615,17.36309 42.05624,40.02384 0.56119,22.66834 -17.35876,41.49399 -40.02927,42.05626 -22.664013,0.55901 -41.489649,-17.36201 -42.048659,-40.0282 -0.56444,-22.664 17.355516,-41.48963 40.021689,-42.0519 z"
         id="path4180" />
    </g>
    <g
       id="btn_doubts_joint_3">
      <text
         id="text159"
         font-size="62"
         style="font-size:62px;font-family:GothamRounded-Medium;fill:#a7a9ac"
         x="-85.086891"
         y="490.87619">Frase 3</text>
      <path
         id="path4182"
         d="m 203.3199,430.27166 c 22.66616,-0.56226 41.49615,17.36309 42.05624,40.02384 0.56119,22.66834 -17.35876,41.49399 -40.02927,42.05626 -22.66401,0.55901 -41.48965,-17.36201 -42.04866,-40.0282 -0.56444,-22.664 17.35552,-41.48963 40.02169,-42.0519 z"
         inkscape:connector-curvature="0"
         style="fill:#f2f7fc;fill-opacity:0.50622385;stroke:#d4e2f4;stroke-width:5.11835384;stroke-miterlimit:4;stroke-dasharray:none;stroke-opacity:1" />
    </g>
    <g
       id="btn_doubts_joint_4">
      <text
         id="text163"
         font-size="62"
         style="font-size:62px;font-family:GothamRounded-Medium;fill:#a7a9ac"
         x="15.886806"
         y="414.36249">Frase 4</text>
      <path
         style="fill:#f2f7fc;fill-opacity:0.50622385;stroke:#d4e2f4;stroke-width:5.11835384;stroke-miterlimit:4;stroke-dasharray:none;stroke-opacity:1"
         inkscape:connector-curvature="0"
         d="m 307.32291,353.76065 c 22.66616,-0.56226 41.49615,17.36309 42.05624,40.02384 0.56119,22.66834 -17.35876,41.49399 -40.02927,42.05626 -22.66401,0.55901 -41.48965,-17.36201 -42.04866,-40.0282 -0.56444,-22.664 17.35552,-41.48963 40.02169,-42.0519 z"
         id="path4184" />
    </g>
    <g
       id="btn_doubts_joint_5">
      <text
         id="text179"
         font-size="62"
         style="font-size:62px;font-family:GothamRounded-Medium;fill:#a7a9ac"
         x="476.83401"
         y="414.36249">Frase 5</text>
      <path
         id="path4186"
         d="m 412.93393,353.76065 c 22.66616,-0.56226 41.49615,17.36309 42.05624,40.02384 0.56119,22.66834 -17.35876,41.49399 -40.02927,42.05626 -22.66401,0.55901 -41.48965,-17.36201 -42.04866,-40.0282 -0.56444,-22.664 17.35552,-41.48963 40.02169,-42.0519 z"
         inkscape:connector-curvature="0"
         style="fill:#f2f7fc;fill-opacity:0.50622385;stroke:#d4e2f4;stroke-width:5.11835384;stroke-miterlimit:4;stroke-dasharray:none;stroke-opacity:1" />
    </g>
    <g
       id="btn_doubts_joint_6">
      <text
         id="text175"
         font-size="62"
         style="font-size:62px;font-family:GothamRounded-Medium;fill:#a7a9ac"
         x="580.85645"
         y="490.87619">Frase 6</text>
      <path
         style="fill:#f2f7fc;fill-opacity:0.50622385;stroke:#d4e2f4;stroke-width:5.11835384;stroke-miterlimit:4;stroke-dasharray:none;stroke-opacity:1"
         inkscape:connector-curvature="0"
         d="m 516.95494,429.67966 c 22.66616,-0.56226 41.49615,17.36309 42.05624,40.02384 0.56119,22.66834 -17.35876,41.49399 -40.02927,42.05626 -22.66401,0.55901 -41.48965,-17.36201 -42.04866,-40.0282 -0.56444,-22.664 17.35552,-41.48963 40.02169,-42.0519 z"
         id="path4188" />
    </g>
    <g
       id="btn_doubts_joint_7">
      <text
         id="text171"
         font-size="62"
         style="font-size:62px;font-family:GothamRounded-Medium;fill:#a7a9ac"
         x="680.49036"
         y="567.08319">Frase 7</text>
      <path
         id="path4190"
         d="m 616.22495,506.14667 c 22.66616,-0.56226 41.49615,17.36309 42.05624,40.02384 0.56119,22.66834 -17.35876,41.49399 -40.02927,42.05626 -22.66401,0.55901 -41.48965,-17.36201 -42.04866,-40.0282 -0.56444,-22.664 17.35552,-41.48963 40.02169,-42.0519 z"
         inkscape:connector-curvature="0"
         style="fill:#f2f7fc;fill-opacity:0.50622385;stroke:#d4e2f4;stroke-width:5.11835384;stroke-miterlimit:4;stroke-dasharray:none;stroke-opacity:1" />
    </g>
    <g
       id="btn_doubts_joint_8">
      <text
         id="text167"
         font-size="62"
         style="font-size:62px;font-family:GothamRounded-Medium;fill:#a7a9ac"
         x="771.62988"
         y="660.97583">Frase 8</text>
      <path
         style="fill:#f2f7fc;fill-opacity:0.50622385;stroke:#d4e2f4;stroke-width:5.11835384;stroke-miterlimit:4;stroke-dasharray:none;stroke-opacity:1"
         inkscape:connector-curvature="0"
         d="m 707.72496,597.26868 c 22.66616,-0.56226 41.49615,17.36309 42.05624,40.02384 0.56119,22.66834 -17.35876,41.49399 -40.02927,42.05626 -22.66401,0.55901 -41.48965,-17.36201 -42.04866,-40.0282 -0.56444,-22.664 17.35552,-41.48963 40.02169,-42.0519 z"
         id="path4192" />
    </g>
  </g>
</svg>
