<svg
   width="134.27371mm"
   height="232.75594mm"
   viewBox="0 0 475.773 824.72575"
   id="btn_id_full">
  <g
     id="btn_id">
    <circle
       cy="394.0162"
       cx="143.27861"
       id="circle9260"
       style="fill:#fafdfe;fill-opacity:1;fill-rule:evenodd;stroke:#e4e9ec;stroke-width:16.53909683;stroke-linecap:butt;stroke-linejoin:miter;stroke-miterlimit:4;stroke-dasharray:none;stroke-opacity:1"
       r="102.60735" />
    <g
       id="g9516">
      <path
         id="path439"
         d="m 207.842,342.36354 c -43.371,-0.012 -86.741,-0.012 -130.111999,-0.002 -6.093,0.002 -7.666,1.62901 -7.667,7.82601 -0.003,27.58999 -0.004,55.182 0,82.76699 0.001,6.16601 1.57,7.74 7.73,7.74 21.635,0.006 43.270999,0.004 64.905999,0.004 21.635,0 43.271,0 64.907,-0.004 6.405,0 7.99,-1.547 7.991,-7.801 0.004,-27.589 0.005,-55.179 0,-82.771 -0.003,-6.097 -1.637,-7.759 -7.755,-7.759 z"
         style="fill:none" />
      <path
         id="path441"
         d="m 208.073,339.03154 c -13.506,-0.023 -27.011,-0.006 -40.517,-0.006 -1.045,0 -2.09,0 -3.084,0 0,-0.002 0,-0.004 0,-0.004 l -43.416,0 c 0,0 0,0.002 -10e-4,0.004 -1.052,0 -2.125,0 -3.198,0 -13.604,0 -27.208999,-0.023 -40.812999,0.01 -6.991,0.018 -10.401,3.479 -10.402,10.445 -0.006,28.002 -0.005,56.008 0,84.007 0,7.139 3.376,10.528 10.595,10.53 43.693999,0.016 87.387999,0.014 131.081999,0 7.364,0 10.699,-3.383 10.7,-10.752 0.003,-27.702 0.002,-55.409 0.001,-83.114 -0.001,-7.788 -3.241,-11.105 -10.947,-11.12 z m 7.522,93.862 c 0,6.254 -1.586,7.801 -7.991,7.801 -21.635,0.004 -43.271,0.004 -64.907,0.004 -21.636,0 -43.270999,0.002 -64.905999,-0.004 -6.16,0 -7.729,-1.574 -7.73,-7.74 -0.004,-27.585 -0.003,-55.177 0,-82.767 10e-4,-6.197 1.574,-7.824 7.667,-7.826 43.370999,-0.01 86.741999,-0.01 130.111999,0.002 6.118,0 7.753,1.662 7.754,7.76 0.006,27.591 0.005,55.181 0.001,82.77 z"
         style="clip-rule:evenodd;fill:#bcbec0;fill-rule:evenodd" />
      <rect
         id="rect443"
         height="17.355"
         width="82.561996"
         y="385.85754"
         x="151.799"
         style="fill:none" />
      <text
         y="398.99832"
         x="151.7981"
         id="text445"
         font-size="18"
         style="font-size:18px;font-family:Gotham-Bold;fill:#a7a9ac">Nome</text>
      <rect
         id="rect447"
         height="17.355"
         width="82.561996"
         y="359.48056"
         x="151.799"
         style="fill:none" />
      <text
         y="372.62143"
         x="151.7981"
         id="text449"
         font-size="18"
         style="font-size:18px;font-family:Gotham-Bold;fill:#a7a9ac">ID</text>
      <rect
         id="rect451"
         height="17.353001"
         width="82.561996"
         y="411.39255"
         x="151.799"
         style="fill:none" />
      <text
         y="424.53354"
         x="151.7981"
         id="text453"
         font-size="18"
         style="font-size:18px;font-family:Gotham-Bold;fill:#a7a9ac">Idade</text>
      <path
         id="path455"
         d="m 143.425,417.13454 c 0,3.945 -3.202,7.14599 -7.15,7.14599 l -51.475999,0 c -3.949,0 -7.15,-3.201 -7.15,-7.14599 l 0,-51.799 c 0,-3.949 3.201,-7.152 7.15,-7.152 l 51.475999,0 c 3.949,0 7.15,3.203 7.15,7.152 l 0,51.799 z"
         style="fill:#dff3fd" />
      <path
         id="path457"
         d="m 138.573,390.34553 c -0.002,-0.223 0.043,-5.387 -0.305,-6.346 0,0 -0.131,-2.912 -0.783,-5.477 -0.653,-2.56599 -3.788,-7.39299 -3.788,-7.39299 0,0 -1.908,-2.891 -3.724,-2.891 -1.816,0 -2.439,1.51999 -3.375,2.869 -0.936,1.349 -1.897,2.805 -4.289,3.914 -2.37,1.098 -2.738,1.619 -11.477,1.629 -8.738,-0.01 -9.107,-0.531 -11.476999,-1.629 -2.392,-1.109 -3.353,-2.56401 -4.288,-3.914 -0.937,-1.35 -1.56,-2.869 -3.375,-2.869 -1.816,0 -3.723,2.891 -3.723,2.891 0,0 -3.136,4.826 -3.789,7.39299 -0.652,2.56401 -0.782,5.477 -0.782,5.477 -0.349,0.959 -0.302,6.123 -0.304,6.346 -0.002,0.221 -0.077,3.494 0.608,7.701 0.685,4.207 3.675,8.268 3.675,8.268 l 23.449999,5.98801 0,0.004 0.006,-0.002 0.006,0.002 0,-0.004 23.449,-5.988 c 0,0 2.99,-4.061 3.675,-8.268 0.686,-4.207 0.611,-7.48 0.61,-7.701 z"
         style="fill:#dcdbdb" />
      <path
         id="path459"
         d="m 87.617001,378.15453 c 1.028,-0.066 0.864,-0.27899 3.588,0.912 3.725,1.629 10.499999,6.98 10.499999,6.98 0,0 1.261,1.52 1.761,3.977 0.5,2.457 0.132,4.98 0,7.176 -0.131,2.195 -0.456,7.629 -0.456,7.629 0,0 0.065,6.197 8.283,6.197 8.218,0 8.479,-4.762 8.479,-4.762 0,0 0.208,-2.295 0,-4.729 -0.209,-2.432 -0.326,-4.141 -0.783,-8.053 -0.457,-3.916 0.804,-4.87299 1.174,-5.742 0.344,-0.547 0.739,-1.434 2.674,-3 1.936,-1.564 8.827,-5.695 9.719,-6.131 0.891,-0.434 1.587,-0.391 2.218,-0.152 0.63,0.24 1.152,1 1.696,2.371 0.543,1.369 0.913,10.174 0.913,10.174 0,0 0.163,4.402 -0.391,7.697 -0.554,3.293 -1.137,5.23 -1.957,6.652 -1.247,1.639 -7.109,11.414 -23.741,11.414 -16.631999,0 -22.762999,-8.936 -23.675999,-10.109 -0.913,-1.173 -1.761,-3.768 -2.283,-6.693 -0.521,-2.928 -0.587,-11.961 -0.587,-11.961 0,0 0.319,-5.713 0.652,-6.652 0.333,-0.94 0.958,-3.262 2.217,-3.195 z"
         style="fill:#aeadae" />
      <ellipse
         id="ellipse461"
         ry="6.9359999"
         rx="7.1240001"
         cy="399.96255"
         cx="128.64799"
         style="fill:#ffffff" />
      <path
         id="path463"
         d="m 118.009,412.10153 c -1.022,0.371 -1.359,0.818 -2.381,1.045 -0.525,0.117 -2.542,0.215 -4.548,0.23801 -2.006,-0.023 -4.022,-0.121 -4.548,-0.23801 -1.022,-0.227 -1.358,-0.674 -2.38,-1.045 -0.728,-0.271 -0.446,0.381 0.049,0.746 0.496,0.365 1.201,0.875 2.332,1.24401 0.532,0.17399 2.554,0.18399 4.548,0.14499 1.994,0.039 4.017,0.029 4.548,-0.14499 1.13,-0.36901 1.837,-0.87901 2.333,-1.24401 0.493,-0.365 0.775,-1.01799 0.047,-0.746 z"
         style="fill:#dcdbdb" />
      <path
         id="path465"
         d="m 88.269001,390.13053 c 1.22,-0.44099 1.956,-0.91399 5.528,-1.26799 3.574,-0.35701 5.554,-0.178 6.008,-0.066 0.454999,0.111 0.767999,0.75 -0.372,0.777 -1.141,0.025 -3.551,0.045 -5.489,0.32 -1.937,0.277 -4.508,0.576 -5.055,0.744 -0.546,0.165 -1.245,-0.263 -0.62,-0.507 z"
         style="fill:#dcdbdb" />
      <path
         id="path467"
         d="m 134.271,390.49353 c -1.191,-0.51799 -1.896,-1.035 -5.44,-1.613 -3.543,-0.576 -5.53,-0.51999 -5.991,-0.43799 -0.46,0.082 -0.813,0.70299 0.323,0.79899 1.137,0.098 3.542,0.26601 5.458,0.66001 1.916,0.396 4.463,0.855 4.999,1.055 0.535,0.202 1.259,-0.183 0.651,-0.46301 z"
         style="fill:#dcdbdb" />
      <path
         id="path469"
         d="m 100.347,397.25754 c -1.082999,-2.486 -3.613999,-4.23001 -6.562999,-4.23001 -3.459,0 -6.342,2.4 -6.988,5.582 1.361,-0.62099 4.158,-1.693 7.293,-1.693 2.707,-9.9e-4 4.935,0.193 6.257999,0.34101 z"
         style="fill:#dcdbdb" />
      <path
         id="path471"
         d="m 92.737001,405.18754 c 2.4,0.57799 4.156,0.52499 5.348,0.305 1.715,-1.268 2.824999,-3.27301 2.824999,-5.529 0,-0.959 -0.201,-1.873 -0.562,-2.705 -1.323999,-0.148 -3.551999,-0.342 -6.256999,-0.342 -3.135,0 -5.932,1.072 -7.293,1.693 -0.089,0.439 -0.136,0.891 -0.136,1.354 0,0.533 0.064,1.055 0.182,1.553 0.911,1.196 2.711,2.907 5.893,3.671 z"
         style="fill:#ffffff" />
      <path
         id="path473"
         d="m 93.784001,406.89853 c 1.616,0 3.104,-0.525 4.3,-1.406 -1.192,0.221 -2.948,0.273 -5.348,-0.305 -3.181,-0.764 -4.982,-2.475 -5.894,-3.672 0.726,3.082 3.557,5.383 6.942,5.383 z"
         style="fill:#dcdbdb" />
      <path
         id="path475"
         d="m 122.221,397.25754 c 1.083,-2.486 3.614,-4.23001 6.563,-4.23001 3.459,0 6.343,2.4 6.988,5.582 -1.361,-0.62099 -4.158,-1.693 -7.293,-1.693 -2.705,-9.9e-4 -4.934,0.193 -6.258,0.34101 z"
         style="fill:#dcdbdb" />
      <path
         id="path477"
         d="m 128.784,406.89853 c -1.616,0 -3.104,-0.525 -4.299,-1.406 1.191,0.221 2.947,0.273 5.348,-0.305 3.181,-0.764 4.981,-2.475 5.895,-3.672 -0.727,3.082 -3.558,5.383 -6.944,5.383 z"
         style="fill:#dcdbdb" />
      <ellipse
         id="ellipse479"
         ry="2.8380001"
         rx="3.375"
         cy="400.53455"
         cx="95.069"
         style="fill:#414141" />
      <ellipse
         id="ellipse481"
         ry="2.8380001"
         rx="3.55"
         cy="400.53455"
         cx="127.278"
         style="fill:#414141" />
      <circle
         id="circle483"
         r="0.71799999"
         cy="399.94754"
         cx="127.045"
         style="fill:#fdfeff" />
      <circle
         id="circle485"
         r="0.71799999"
         cy="399.94754"
         cx="95.395004"
         style="fill:#fdfeff" />
      <g
         transform="translate(-50.303999,-99.883465)"
         id="g487">
        <g
           id="g489">
          <path
             id="path491"
             d="m 186.397,525.354 -50.517,0 c -4.699,0 -8.523,-4.006 -8.523,-8.932 l 0,-50.012 c 0,-4.93 3.824,-8.938 8.523,-8.938 l 50.517,0 c 4.7,0 8.523,4.008 8.523,8.938 l 0,50.012 c 0,4.926 -3.823,8.932 -8.523,8.932 z M 135.88,461.047 c -2.729,0 -4.948,2.404 -4.948,5.363 l 0,50.012 c 0,2.955 2.219,5.361 4.948,5.361 l 50.517,0 c 2.729,0 4.948,-2.406 4.948,-5.361 l 0,-50.012 c 0,-2.959 -2.219,-5.363 -4.948,-5.363 l -50.517,0 z"
             style="fill:#bcbec0" />
        </g>
      </g>
    </g>
  </g>
  <circle
     r="41.566307"
     cy="64.213287"
     cx="314.51404"
     id="btn_id_1"
     style="fill:#fafdfe;fill-opacity:1;fill-rule:evenodd;stroke:#e4e9ec;stroke-width:6.69999981;stroke-linecap:butt;stroke-linejoin:miter;stroke-miterlimit:4;stroke-dasharray:none;stroke-opacity:1" />
  <circle
     style="fill:#fafdfe;fill-opacity:1;fill-rule:evenodd;stroke:#e4e9ec;stroke-width:6.69999981;stroke-linecap:butt;stroke-linejoin:miter;stroke-miterlimit:4;stroke-dasharray:none;stroke-opacity:1"
     id="btn_id_2"
     cx="364.3121"
     cy="157.69385"
     r="41.566307" />
  <circle
     r="41.566307"
     cy="259.91092"
     cx="395.76352"
     id="btn_id_3"
     style="fill:#fafdfe;fill-opacity:1;fill-rule:evenodd;stroke:#e4e9ec;stroke-width:6.69999981;stroke-linecap:butt;stroke-linejoin:miter;stroke-miterlimit:4;stroke-dasharray:none;stroke-opacity:1" />
  <circle
     style="fill:#fafdfe;fill-opacity:1;fill-rule:evenodd;stroke:#e4e9ec;stroke-width:6.69999981;stroke-linecap:butt;stroke-linejoin:miter;stroke-miterlimit:4;stroke-dasharray:none;stroke-opacity:1"
     id="btn_id_4"
     cx="409.74191"
     cy="362.56482"
     r="41.566307" />
  <circle
     r="41.566307"
     cy="468.71332"
     cx="405.81049"
     id="btn_id_5"
     style="fill:#fafdfe;fill-opacity:1;fill-rule:evenodd;stroke:#e4e9ec;stroke-width:6.69999981;stroke-linecap:butt;stroke-linejoin:miter;stroke-miterlimit:4;stroke-dasharray:none;stroke-opacity:1" />
  <circle
     style="fill:#fafdfe;fill-opacity:1;fill-rule:evenodd;stroke:#e4e9ec;stroke-width:6.69999981;stroke-linecap:butt;stroke-linejoin:miter;stroke-miterlimit:4;stroke-dasharray:none;stroke-opacity:1"
     id="btn_id_6"
     cx="383.96924"
     cy="571.80402"
     r="41.566307" />
  <circle
     r="41.566307"
     cy="668.77917"
     cx="344.65497"
     id="btn_id_7"
     style="fill:#fafdfe;fill-opacity:1;fill-rule:evenodd;stroke:#e4e9ec;stroke-width:6.69999981;stroke-linecap:butt;stroke-linejoin:miter;stroke-miterlimit:4;stroke-dasharray:none;stroke-opacity:1" />
  <circle
     style="fill:#fafdfe;fill-opacity:1;fill-rule:evenodd;stroke:#e4e9ec;stroke-width:6.69999981;stroke-linecap:butt;stroke-linejoin:miter;stroke-miterlimit:4;stroke-dasharray:none;stroke-opacity:1"
     id="btn_id_8"
     cx="288.74136"
     cy="758.76514"
     r="41.566307" />
</svg>
