<?xml version="1.0" encoding="UTF-8" standalone="no"?>
<!-- Generator: Adobe Illustrator 16.0.0, SVG Export Plug-In . SVG Version: 6.00 Build 0)  -->

<svg
   xmlns:dc="http://purl.org/dc/elements/1.1/"
   xmlns:cc="http://creativecommons.org/ns#"
   xmlns:rdf="http://www.w3.org/1999/02/22-rdf-syntax-ns#"
   xmlns:svg="http://www.w3.org/2000/svg"
   xmlns="http://www.w3.org/2000/svg"
   xmlns:sodipodi="http://sodipodi.sourceforge.net/DTD/sodipodi-0.dtd"
   xmlns:inkscape="http://www.inkscape.org/namespaces/inkscape"
   version="1.1"
   id="Layer_1"
   x="0px"
   y="0px"
   width="1920px"
   height="1080px"
   viewBox="0 0 1920 1080"
   enable-background="new 0 0 1920 1080"
   xml:space="preserve"
   inkscape:version="0.91 r13725"
   sodipodi:docname="btn_ground_ack.svg"><metadata
     id="metadata139"><rdf:RDF><cc:Work
         rdf:about=""><dc:format>image/svg+xml</dc:format><dc:type
           rdf:resource="http://purl.org/dc/dcmitype/StillImage" /><dc:title /></cc:Work></rdf:RDF></metadata><defs
     id="defs137" /><sodipodi:namedview
     pagecolor="#ffffff"
     bordercolor="#666666"
     borderopacity="1"
     objecttolerance="10"
     gridtolerance="10"
     guidetolerance="10"
     inkscape:pageopacity="0"
     inkscape:pageshadow="2"
     inkscape:window-width="1366"
     inkscape:window-height="704"
     id="namedview135"
     showgrid="false"
     inkscape:zoom="0.48318963"
     inkscape:cx="915.84514"
     inkscape:cy="454.34864"
     inkscape:window-x="0"
     inkscape:window-y="27"
     inkscape:window-maximized="1"
     inkscape:current-layer="Layer_1" /><g
     id="btn_ack_positive"><path
       id="path9"
       d="M1245.846,966.543h-178.979c-24.664,0-44.658,17.963-44.658,40.125c0,22.158,19.994,40.125,44.658,40.125  h178.979c24.664,0,44.658-17.967,44.658-40.125C1290.504,984.506,1270.51,966.543,1245.846,966.543z"
       fill="#FFFFFF" /><path
       fill="#EEF3D1"
       id="path15"
       d="M1245.846,966.543h-178.979c-24.664,0-44.658,17.963-44.658,40.125c0,22.158,19.994,40.125,44.658,40.125  h178.979c24.664,0,44.658-17.967,44.658-40.125C1290.504,984.506,1270.51,966.543,1245.846,966.543z" /><path
       id="path17"
       d="M1088.693,1006.475c0.002-16.699,13.582-30.27,30.188-30.367  c16.943-0.1,30.801,13.824,30.646,30.766c-0.15,16.533-13.795,30.098-30.518,30.059  C1102.205,1036.893,1088.693,1023.318,1088.693,1006.475z M1119.084,980.299c-14.445,0-26.084,11.623-26.254,25.898  c-0.174,14.533,11.713,26.676,26.393,26.586c14.41-0.088,26.1-11.713,26.104-26.148  C1145.33,991.936,1133.734,980.299,1119.084,980.299z"
       fill="#BCBEC0"
       clip-rule="evenodd"
       fill-rule="evenodd" /><path
       id="path19"
       d="M1119.182,1007.322c-4.057,0.027-6.447-2.928-5.586-6.9  c0.244-1.125,0.961-1.771,1.799-1.512c0.98,0.305,1.168,0.998,1,2.006c-0.563,3.367,1.301,3.986,4.184,3.377  c0.943-0.199,1.342-0.99,1.34-1.934c0-0.613-0.045-1.23-0.098-1.842c-0.076-0.859,0.27-1.447,1.117-1.617  c0.865-0.176,1.439,0.262,1.617,1.1C1125.318,1003.582,1124.191,1007.219,1119.182,1007.322z"
       fill="#BCBEC0"
       clip-rule="evenodd"
       fill-rule="evenodd" /><path
       id="path21"
       d="M1130.836,1004c-2.129,0.004-3.848-1.693-3.844-3.797  c0.004-2.051,1.814-3.842,3.867-3.826c2.008,0.016,3.74,1.758,3.766,3.789C1134.654,1002.291,1132.967,1003.996,1130.836,1004z"
       fill="#BCBEC0"
       clip-rule="evenodd"
       fill-rule="evenodd" /><path
       id="path23"
       d="M1107.432,1003.998c-2.107-0.006-3.867-1.766-3.83-3.828  c0.039-2.008,1.791-3.76,3.801-3.799c2.063-0.039,3.824,1.723,3.828,3.83C1111.236,1002.35,1109.58,1004.006,1107.432,1003.998z"
       fill="#BCBEC0"
       clip-rule="evenodd"
       fill-rule="evenodd" /><path
       id="path25"
       d="M1177.779,1003.057c3.393-2.641,6.668-5.141,9.877-7.725  c0.662-0.535,1.199-1.322,1.578-2.098c2.209-4.537,4.434-9.066,6.486-13.674c0.934-2.092,2.305-3.215,4.572-3.09  c2.404,0.131,4.426,1.057,5.369,3.408c0.414,1.029,0.549,2.223,0.568,3.346c0.066,3.783,0.027,7.57,0.027,11.355  c0,0.467,0,0.93,0,1.543c0.504,0.035,0.947,0.09,1.393,0.092c3.021,0.008,6.041-0.031,9.061,0.016  c2.801,0.043,5.271,0.912,6.52,3.619c1.309,2.84,0.992,5.621-0.961,8.143c-0.129,0.168-0.254,0.336-0.375,0.498  c1.41,3.213,1.055,6.129-1.279,8.777c-0.207,0.236-0.23,0.771-0.135,1.109c0.77,2.787,0.287,5.275-1.559,7.529  c-0.27,0.33-0.375,0.982-0.26,1.404c1.404,5.094-2.16,9.834-7.457,9.844c-4.168,0.008-8.342-0.143-12.502,0.039  c-4.773,0.207-9.373-0.453-13.906-1.887c-1.895-0.598-3.83-1.094-5.77-1.539c-0.428-0.1-1.078,0.07-1.408,0.361  c-1.1,0.977-2.285,1.535-3.793,1.51c-3.02-0.049-6.039-0.008-9.059-0.016c-2.799-0.01-4.363-1.559-4.363-4.301  c-0.002-8.463-0.004-16.926,0-25.391c0.002-2.938,1.258-4.197,4.174-4.199c3.061,0,6.125,0.031,9.188-0.01  C1175.254,1001.699,1176.652,1001.844,1177.779,1003.057z M1178.393,1029.752c3.234,0.873,6.439,1.662,9.6,2.607  c2.961,0.887,5.949,1.229,9.039,1.162c4.506-0.102,9.016-0.025,13.525-0.029c0.426,0,0.854,0,1.273-0.059  c3.018-0.439,4.402-3.488,2.754-6.047c-1.016-1.578-0.889-2.227,0.629-3.238c2.123-1.41,2.559-3.451,1.201-5.604  c-0.924-1.467-0.768-2.232,0.652-3.176c2.209-1.471,2.605-3.625,1.064-5.797c-0.998-1.412-0.881-2.162,0.504-3.223  c1.49-1.141,2.064-2.875,1.484-4.5c-0.486-1.359-1.563-1.938-3.641-1.943c-3.785,0-7.572,0.01-11.357-0.002  c-1.91-0.004-2.494-0.602-2.496-2.523c-0.006-4.682,0.01-9.361-0.016-14.039c-0.004-0.668,0.023-1.51-0.346-1.957  c-0.479-0.582-1.303-0.99-2.055-1.18c-0.283-0.072-0.93,0.588-1.148,1.041c-2.186,4.5-4.252,9.063-6.506,13.527  c-0.666,1.318-1.648,2.598-2.783,3.539c-3.461,2.877-7.086,5.561-10.6,8.377c-0.412,0.328-0.742,1.023-0.746,1.551  c-0.051,6.85-0.033,13.699-0.033,20.547C1178.393,1029.082,1178.393,1029.375,1178.393,1029.752z M1164.152,1005.545  c0,8.83,0,17.518,0,26.217c3.541,0,6.992,0,10.461,0c0-8.791,0-17.48,0-26.217  C1171.094,1005.545,1167.666,1005.545,1164.152,1005.545z"
       fill="#BCBEC0"
       clip-rule="evenodd"
       fill-rule="evenodd" /><g
       id="g27"><path
         id="path29"
         d="M1119.418,1022.02c-4.715,0-9.512-1.795-13.266-5.383c-0.797-0.764-0.826-2.029-0.063-2.828   s2.031-0.826,2.828-0.063c5.902,5.645,15.037,5.711,20.361,0.143c0.764-0.797,2.031-0.826,2.828-0.063   c0.799,0.764,0.826,2.029,0.063,2.828C1128.75,1020.23,1124.125,1022.02,1119.418,1022.02z"
         fill="#BCBEC0" /></g></g><g
     id="btn_ack_negative"><path
       fill="#FEEEEE"
       id="path31"
       d="M1541.33,965.799h-178.977c-24.664,0-44.658,17.963-44.658,40.125c0,22.158,19.994,40.125,44.658,40.125  h178.977c24.664,0,44.66-17.967,44.66-40.125C1585.99,983.762,1565.994,965.799,1541.33,965.799z" /><path
       id="path33"
       d="M1384.127,1005.869c0-16.625,13.52-30.135,30.051-30.232  c16.865-0.1,30.66,13.764,30.508,30.627c-0.15,16.459-13.734,29.961-30.381,29.924  C1397.576,1036.148,1384.125,1022.635,1384.127,1005.869z M1414.379,979.811c-14.379,0-25.967,11.57-26.135,25.781  c-0.174,14.467,11.658,26.555,26.273,26.465c14.346-0.088,25.982-11.658,25.986-26.029  C1440.508,991.395,1428.963,979.811,1414.379,979.811z"
       fill="#BCBEC0"
       clip-rule="evenodd"
       fill-rule="evenodd" /><path
       id="path35"
       d="M1414.475,1006.713c-4.035,0.027-6.416-2.916-5.559-6.871  c0.242-1.119,0.955-1.762,1.791-1.504c0.975,0.301,1.162,0.992,0.994,1.994c-0.561,3.354,1.295,3.971,4.164,3.363  c0.939-0.197,1.336-0.984,1.336-1.924c-0.002-0.611-0.045-1.225-0.1-1.834c-0.074-0.855,0.27-1.441,1.113-1.611  c0.861-0.172,1.434,0.262,1.611,1.096C1420.586,1002.988,1419.463,1006.609,1414.475,1006.713z"
       fill="#BCBEC0"
       clip-rule="evenodd"
       fill-rule="evenodd" /><path
       id="path37"
       d="M1426.078,1003.404c-2.119,0.004-3.832-1.686-3.826-3.779  c0.004-2.041,1.807-3.824,3.85-3.809c1.998,0.016,3.723,1.75,3.748,3.771C1429.879,1001.703,1428.201,1003.4,1426.078,1003.404z"
       fill="#BCBEC0"
       clip-rule="evenodd"
       fill-rule="evenodd" /><path
       id="path39"
       d="M1402.779,1003.402c-2.098-0.006-3.852-1.758-3.813-3.811  c0.039-2,1.783-3.744,3.785-3.781c2.053-0.039,3.805,1.715,3.811,3.813C1406.566,1001.762,1404.916,1003.41,1402.779,1003.402z"
       fill="#BCBEC0"
       clip-rule="evenodd"
       fill-rule="evenodd" /><path
       id="path41"
       d="M1422.254,994.398c1.697,0.432,3.697,0.936,5.691,1.447  c1.074,0.277,2.148,0.547,3.211,0.861c0.84,0.248,1.324,0.82,1.064,1.719c-0.252,0.871-0.928,1.191-1.801,0.969  c-2.961-0.75-5.918-1.516-8.871-2.289c-0.857-0.225-1.318-0.773-1.131-1.697C1420.584,994.588,1421.148,994.295,1422.254,994.398z"
       fill="#BCBEC0"
       clip-rule="evenodd"
       fill-rule="evenodd" /><path
       id="path43"
       d="M1397.803,999.604c-0.35-0.381-1.027-0.791-1.076-1.266  c-0.053-0.49,0.404-1.395,0.814-1.516c3.084-0.902,6.205-1.678,9.328-2.438c0.746-0.182,1.508,0.133,1.561,0.947  c0.033,0.52-0.336,1.438-0.711,1.553C1404.535,997.846,1401.311,998.664,1397.803,999.604z"
       fill="#BCBEC0"
       clip-rule="evenodd"
       fill-rule="evenodd" /><path
       id="path45"
       d="M1469.25,1011.047c-3.063-0.041-6.125-0.01-9.188-0.01  c-2.914-0.002-4.17-1.262-4.172-4.199c-0.006-8.465-0.004-16.928,0-25.391c0-2.742,1.564-4.291,4.361-4.301  c3.02-0.008,6.041,0.033,9.059-0.016c1.508-0.025,2.693,0.533,3.795,1.51c0.33,0.291,0.979,0.461,1.408,0.361  c1.939-0.445,3.873-0.941,5.77-1.539c4.533-1.434,9.131-2.094,13.904-1.887c4.162,0.182,8.334,0.031,12.504,0.039  c5.295,0.01,8.861,4.75,7.457,9.844c-0.117,0.422-0.01,1.074,0.258,1.404c1.846,2.254,2.33,4.742,1.559,7.529  c-0.094,0.338-0.072,0.873,0.137,1.109c2.332,2.648,2.689,5.564,1.279,8.777c0.121,0.162,0.246,0.33,0.375,0.498  c1.951,2.521,2.268,5.303,0.961,8.143c-1.248,2.707-3.721,3.576-6.521,3.619c-3.018,0.047-6.037,0.008-9.059,0.016  c-0.445,0.002-0.891,0.057-1.395,0.092c0,0.613,0,1.076,0,1.543c0,3.785,0.041,7.572-0.025,11.355  c-0.02,1.123-0.154,2.316-0.568,3.346c-0.945,2.352-2.967,3.277-5.369,3.408c-2.268,0.125-3.639-0.998-4.572-3.09  c-2.055-4.607-4.277-9.137-6.488-13.674c-0.379-0.775-0.916-1.563-1.578-2.098c-3.209-2.584-6.482-5.084-9.877-7.725  C1472.139,1010.926,1470.74,1011.07,1469.25,1011.047z M1473.879,983.982c0,6.848-0.02,13.697,0.031,20.547  c0.004,0.527,0.336,1.223,0.746,1.551c3.514,2.816,7.139,5.5,10.602,8.377c1.133,0.941,2.117,2.221,2.781,3.539  c2.256,4.465,4.32,9.027,6.506,13.527c0.221,0.453,0.865,1.113,1.15,1.041c0.75-0.189,1.576-0.598,2.053-1.18  c0.369-0.447,0.344-1.289,0.348-1.957c0.025-4.678,0.01-9.357,0.014-14.039c0.002-1.922,0.588-2.52,2.496-2.523  c3.787-0.012,7.572-0.002,11.359-0.002c2.076-0.006,3.154-0.584,3.641-1.943c0.58-1.625,0.006-3.359-1.486-4.5  c-1.385-1.061-1.502-1.811-0.502-3.223c1.539-2.172,1.145-4.326-1.066-5.797c-1.42-0.943-1.576-1.709-0.652-3.176  c1.359-2.152,0.922-4.193-1.199-5.604c-1.52-1.012-1.646-1.66-0.629-3.238c1.646-2.559,0.262-5.607-2.756-6.047  c-0.42-0.059-0.848-0.059-1.271-0.059c-4.512-0.004-9.02,0.072-13.527-0.029c-3.09-0.066-6.076,0.275-9.037,1.162  c-3.162,0.945-6.367,1.734-9.6,2.607C1473.879,983.395,1473.879,983.688,1473.879,983.982z M1470.098,1007.225  c0-8.736,0-17.426,0-26.217c-3.467,0-6.92,0-10.459,0c0,8.699,0,17.387,0,26.217  C1463.15,1007.225,1466.58,1007.225,1470.098,1007.225z"
       fill="#BCBEC0"
       clip-rule="evenodd"
       fill-rule="evenodd" /><g
       id="g47"><path
         id="path49"
         d="M1414.119,1012.447c4.715,0,9.512,1.793,13.266,5.383c0.797,0.764,0.826,2.029,0.063,2.828   c-0.764,0.797-2.031,0.826-2.828,0.063c-5.902-5.645-15.037-5.711-20.361-0.145c-0.764,0.799-2.031,0.828-2.828,0.063   c-0.799-0.764-0.826-2.029-0.063-2.828C1404.787,1014.234,1409.412,1012.447,1414.119,1012.447z"
         fill="#BCBEC0" /></g></g><rect
     ry="37.222775"
     y="134.0275"
     x="623.62415"
     height="911.63757"
     width="278.80057"
     id="rect4257"
     style="fill:#f9f9fa;fill-opacity:1;stroke:#e6e7e8;stroke-width:4.99935532;stroke-miterlimit:4;stroke-dasharray:none;stroke-opacity:1" /><path
     inkscape:connector-curvature="0"
     id="path4259"
     d="m 657.5009,238.79199 209.02767,0"
     style="fill:none;fill-rule:evenodd;stroke:#000000;stroke-width:1px;stroke-linecap:butt;stroke-linejoin:miter;stroke-opacity:1" /><g
     id="btn_ground_negative"><path
       id="path4269"
       d="m 854.54343,966.83954 -183.96264,0 c -25.35207,0 -45.90332,18.40259 -45.90332,41.10546 0,22.6991 20.55125,41.1035 45.90332,41.1035 l 183.96264,0 c 25.35208,0 45.90529,-18.4044 45.90529,-41.1035 0,-22.70379 -20.55321,-41.10546 -45.90529,-41.10546 z"
       inkscape:connector-curvature="0"
       style="fill:#f9f9fa;fill-opacity:1;stroke:#e6e7e8;stroke-width:3.93094063;stroke-miterlimit:4;stroke-dasharray:none;stroke-opacity:1" /><g
       id="g59"><g
         id="g61"><g
           id="g63"><g
             id="g65"><path
               id="path67"
               d="M694.322,1006.627c0.001-16.625,13.52-30.135,30.051-30.232      c16.867-0.1,30.661,13.764,30.508,30.627c-0.148,16.459-13.733,29.961-30.381,29.924      C707.773,1036.906,694.322,1023.393,694.322,1006.627z M724.574,980.568c-14.379,0-25.965,11.57-26.135,25.781      c-0.173,14.467,11.66,26.555,26.273,26.465c14.346-0.088,25.982-11.658,25.986-26.029      C750.703,992.152,739.16,980.568,724.574,980.568z"
               fill="#BCBEC0"
               clip-rule="evenodd"
               fill-rule="evenodd" /></g></g><g
           id="g69"><path
             id="path71"
             d="M724.672,1007.471c-4.037,0.027-6.418-2.916-5.561-6.871     c0.243-1.119,0.957-1.762,1.793-1.504c0.974,0.301,1.162,0.992,0.994,1.994c-0.562,3.354,1.295,3.971,4.163,3.363     c0.938-0.197,1.336-0.984,1.335-1.924c0-0.611-0.045-1.225-0.098-1.834c-0.076-0.855,0.268-1.441,1.111-1.611     c0.862-0.172,1.435,0.262,1.611,1.096C730.782,1003.746,729.659,1007.367,724.672,1007.471z"
             fill="#BCBEC0"
             clip-rule="evenodd"
             fill-rule="evenodd" /></g><g
           id="g73"><path
             id="path75"
             d="M736.273,1004.162c-2.119,0.004-3.83-1.686-3.826-3.779     c0.005-2.041,1.807-3.824,3.85-3.809c2,0.016,3.724,1.75,3.75,3.771C740.074,1002.461,738.396,1004.158,736.273,1004.162z"
             fill="#BCBEC0"
             clip-rule="evenodd"
             fill-rule="evenodd" /></g><g
           id="g77"><path
             id="path79"
             d="M712.976,1004.16c-2.099-0.006-3.851-1.758-3.812-3.811     c0.037-2,1.782-3.744,3.783-3.781c2.053-0.039,3.807,1.715,3.811,3.813C716.762,1002.52,715.113,1004.168,712.976,1004.16z"
             fill="#BCBEC0"
             clip-rule="evenodd"
             fill-rule="evenodd" /></g><g
           id="g81"><path
             id="path83"
             d="M732.45,992.154c1.698,0.432,3.696,0.936,5.692,1.447     c1.072,0.275,2.147,0.545,3.209,0.859c0.841,0.248,1.324,0.822,1.064,1.719c-0.252,0.871-0.926,1.191-1.8,0.971     c-2.96-0.752-5.917-1.516-8.871-2.289c-0.856-0.225-1.318-0.773-1.131-1.697C730.78,992.344,731.346,992.051,732.45,992.154z"
             fill="#BCBEC0"
             clip-rule="evenodd"
             fill-rule="evenodd" /></g><g
           id="g85"><path
             id="path87"
             d="M707.998,997.357c-0.35-0.379-1.026-0.789-1.076-1.264     c-0.051-0.49,0.404-1.396,0.816-1.516c3.082-0.902,6.205-1.678,9.327-2.439c0.745-0.182,1.507,0.135,1.56,0.949     c0.034,0.52-0.334,1.438-0.711,1.553C714.731,995.602,711.506,996.418,707.998,997.357z"
             fill="#BCBEC0"
             clip-rule="evenodd"
             fill-rule="evenodd" /></g><g
           id="g89"><path
             id="path91"
             d="M734.76,1013.748c-0.362,0.473-0.599,0.912-0.951,1.219     c-1.766,1.537-3.555,3.047-5.35,4.549c-0.871,0.729-1.67,0.752-2.221,0.049c-0.668-0.855-0.314-1.566,0.412-2.184     c1.814-1.539,3.597-3.121,5.473-4.582c0.422-0.328,1.209-0.389,1.765-0.271C734.219,1012.596,734.427,1013.252,734.76,1013.748z"
             fill="#BCBEC0"
             clip-rule="evenodd"
             fill-rule="evenodd" /></g></g></g><path
       id="path93"
       d="M779.446,1011.805c-3.063-0.041-6.126-0.01-9.188-0.01  c-2.915-0.002-4.171-1.262-4.173-4.199c-0.005-8.465-0.003-16.928,0-25.391c0-2.742,1.564-4.291,4.362-4.301  c3.02-0.008,6.04,0.033,9.059-0.016c1.508-0.025,2.693,0.533,3.794,1.51c0.33,0.291,0.979,0.461,1.408,0.361  c1.939-0.445,3.874-0.941,5.77-1.539c4.533-1.434,9.132-2.094,13.905-1.887c4.161,0.182,8.334,0.031,12.503,0.039  c5.296,0.01,8.861,4.75,7.457,9.844c-0.116,0.422-0.01,1.074,0.259,1.404c1.846,2.254,2.329,4.742,1.559,7.529  c-0.095,0.338-0.072,0.873,0.136,1.109c2.333,2.648,2.689,5.564,1.279,8.777c0.121,0.162,0.246,0.33,0.375,0.498  c1.952,2.521,2.269,5.303,0.961,8.143c-1.248,2.707-3.72,3.576-6.521,3.619c-3.019,0.047-6.038,0.008-9.06,0.016  c-0.445,0.002-0.89,0.057-1.394,0.092c0,0.613,0,1.076,0,1.543c0,3.785,0.04,7.572-0.026,11.355  c-0.02,1.123-0.154,2.316-0.568,3.346c-0.944,2.352-2.966,3.277-5.369,3.408c-2.268,0.125-3.639-0.998-4.572-3.09  c-2.054-4.607-4.277-9.137-6.487-13.674c-0.379-0.775-0.916-1.563-1.578-2.098c-3.209-2.584-6.483-5.084-9.877-7.725  C782.334,1011.684,780.936,1011.828,779.446,1011.805z M784.074,984.74c0,6.848-0.019,13.697,0.032,20.547  c0.004,0.527,0.335,1.223,0.746,1.551c3.514,2.816,7.139,5.5,10.601,8.377c1.134,0.941,2.117,2.221,2.782,3.539  c2.255,4.465,4.32,9.027,6.506,13.527c0.22,0.453,0.865,1.113,1.149,1.041c0.751-0.189,1.576-0.598,2.054-1.18  c0.369-0.447,0.343-1.289,0.347-1.957c0.025-4.678,0.01-9.357,0.015-14.039c0.002-1.922,0.587-2.52,2.496-2.523  c3.786-0.012,7.572-0.002,11.358-0.002c2.077-0.006,3.154-0.584,3.641-1.943c0.58-1.625,0.006-3.359-1.485-4.5  c-1.385-1.061-1.502-1.811-0.503-3.223c1.54-2.172,1.145-4.326-1.065-5.797c-1.42-0.943-1.576-1.709-0.652-3.176  c1.358-2.152,0.922-4.193-1.2-5.604c-1.519-1.012-1.646-1.66-0.629-3.238c1.647-2.559,0.263-5.607-2.755-6.047  c-0.42-0.059-0.848-0.059-1.272-0.059c-4.511-0.004-9.02,0.072-13.526-0.029c-3.09-0.066-6.077,0.275-9.038,1.162  c-3.161,0.945-6.366,1.734-9.6,2.607C784.074,984.152,784.074,984.445,784.074,984.74z M780.294,1007.982c0-8.736,0-17.426,0-26.217  c-3.468,0-6.92,0-10.46,0c0,8.699,0,17.387,0,26.217C773.347,1007.982,776.775,1007.982,780.294,1007.982z"
       fill="#BCBEC0"
       clip-rule="evenodd"
       fill-rule="evenodd" /></g><rect
     style="fill:#f9f9fa;fill-opacity:1;stroke:#e6e7e8;stroke-width:4.99935532;stroke-miterlimit:4;stroke-dasharray:none;stroke-opacity:1"
     id="rect3393"
     width="278.80057"
     height="911.63757"
     x="327.62415"
     y="134.0275"
     ry="37.222775" /><path
     id="path3467"
     d="m 559.05743,966.83951 -183.96264,0 c -25.35207,0 -45.90332,18.40259 -45.90332,41.10549 0,22.6991 20.55125,41.1035 45.90332,41.1035 l 183.96264,0 c 25.35208,0 45.90529,-18.4044 45.90529,-41.1035 0,-22.70382 -20.55321,-41.10549 -45.90529,-41.10549 z"
     inkscape:connector-curvature="0"
     style="fill:#f9f9fa;fill-opacity:1;stroke:#e6e7e8;stroke-width:3.931;stroke-miterlimit:4;stroke-dasharray:none;stroke-opacity:1" /><g
     id="g99"><g
       id="g101"><g
         id="g103"><g
           id="g105"><path
             style="clip-rule:evenodd;fill:#bcbec0;fill-rule:evenodd"
             inkscape:connector-curvature="0"
             d="m 398.89,1006.488 c 0.001,-16.699 13.581,-30.27 30.188,-30.367 16.943,-0.1 30.8,13.824 30.646,30.766 -0.15,16.533 -13.796,30.098 -30.519,30.059 -16.804,-0.04 -30.316,-13.614 -30.315,-30.458 z m 30.389,-26.175 c -14.444,0 -26.083,11.623 -26.254,25.898 -0.174,14.533 11.713,26.676 26.393,26.586 14.411,-0.088 26.101,-11.713 26.104,-26.148 0.004,-14.7 -11.591,-26.336 -26.243,-26.336 z"
             id="path107" /></g></g><g
         id="g109"><path
           style="clip-rule:evenodd;fill:#bcbec0;fill-rule:evenodd"
           inkscape:connector-curvature="0"
           d="m 429.377,1007.336 c -4.056,0.027 -6.447,-2.928 -5.585,-6.9 0.243,-1.125 0.96,-1.771 1.799,-1.512 0.979,0.305 1.168,0.998 1,2.006 -0.563,3.367 1.301,3.986 4.183,3.377 0.943,-0.199 1.342,-0.99 1.341,-1.934 0,-0.613 -0.045,-1.23 -0.099,-1.842 -0.076,-0.859 0.27,-1.447 1.117,-1.617 0.866,-0.176 1.44,0.262 1.618,1.1 0.764,3.582 -0.364,7.218 -5.374,7.322 z"
           id="path111" /></g><g
         id="g113"><path
           style="clip-rule:evenodd;fill:#bcbec0;fill-rule:evenodd"
           inkscape:connector-curvature="0"
           d="m 441.031,1004.014 c -2.129,0 -3.848,-1.693 -3.844,-3.797 0.005,-2.051 1.815,-3.842 3.868,-3.826 2.008,0.016 3.739,1.758 3.766,3.789 0.029,2.125 -1.658,3.83 -3.79,3.834 z"
           id="path115" /></g><g
         id="g117"><path
           style="clip-rule:evenodd;fill:#bcbec0;fill-rule:evenodd"
           inkscape:connector-curvature="0"
           d="m 417.628,1004.012 c -2.108,-0.01 -3.868,-1.766 -3.83,-3.828 0.039,-2.008 1.791,-3.76 3.801,-3.799 2.063,-0.039 3.824,1.723 3.828,3.83 0.005,2.148 -1.652,3.805 -3.799,3.797 z"
           id="path119" /></g><g
         id="g121"><path
           style="clip-rule:evenodd;fill:#bcbec0;fill-rule:evenodd"
           inkscape:connector-curvature="0"
           d="m 437.19,991.951 c 1.706,0.434 3.713,0.939 5.718,1.453 1.078,0.277 2.157,0.549 3.225,0.865 0.844,0.25 1.33,0.824 1.069,1.727 -0.253,0.875 -0.932,1.197 -1.809,0.973 -2.974,-0.754 -5.944,-1.521 -8.911,-2.299 -0.86,-0.227 -1.324,-0.775 -1.137,-1.705 0.169,-0.822 0.735,-1.119 1.845,-1.014 z"
           id="path123" /></g><g
         id="g125"><path
           style="clip-rule:evenodd;fill:#bcbec0;fill-rule:evenodd"
           inkscape:connector-curvature="0"
           d="m 412.628,997.18 c -0.351,-0.383 -1.032,-0.795 -1.081,-1.271 -0.052,-0.492 0.406,-1.402 0.819,-1.521 3.098,-0.906 6.233,-1.686 9.37,-2.451 0.748,-0.182 1.513,0.135 1.566,0.953 0.034,0.521 -0.336,1.445 -0.715,1.561 -3.195,0.963 -6.436,1.785 -9.959,2.729 z"
           id="path127" /></g><g
         id="g129"><path
           style="clip-rule:evenodd;fill:#bcbec0;fill-rule:evenodd"
           inkscape:connector-curvature="0"
           d="m 439.045,1019.059 c -0.465,0.475 -1.641,0.322 -2.418,0.26 -3.898,-0.309 -11.315,-0.504 -13.624,-1.236 -2.309,-0.73 -5.624,-5.029 -3.175,-5.355 2.45,-0.328 1.044,1.064 4.387,1.764 3.343,0.697 7.533,0.66 11.534,1.176 0.902,0.117 2.248,0.334 2.985,1.084 0.439,0.447 0.776,1.832 0.311,2.307 z"
           id="path131" /></g></g></g><path
     style="clip-rule:evenodd;fill:#bcbec0;fill-rule:evenodd"
     inkscape:connector-curvature="0"
     d="m 487.975,1003.07 c 3.394,-2.641 6.668,-5.141 9.877,-7.725 0.662,-0.535 1.199,-1.322 1.578,-2.098 2.21,-4.537 4.434,-9.066 6.487,-13.674 0.934,-2.092 2.305,-3.215 4.572,-3.09 2.403,0.131 4.425,1.057 5.369,3.408 0.414,1.029 0.549,2.223 0.568,3.346 0.066,3.783 0.026,7.57 0.026,11.355 0,0.467 0,0.93 0,1.543 0.504,0.035 0.948,0.09 1.394,0.092 3.021,0.008 6.041,-0.031 9.06,0.016 2.801,0.043 5.272,0.912 6.521,3.619 1.308,2.84 0.991,5.621 -0.961,8.143 -0.129,0.168 -0.254,0.336 -0.375,0.498 1.41,3.213 1.054,6.129 -1.279,8.777 -0.208,0.236 -0.23,0.771 -0.136,1.109 0.771,2.787 0.287,5.275 -1.559,7.529 -0.269,0.33 -0.375,0.982 -0.259,1.404 1.404,5.094 -2.161,9.834 -7.457,9.844 -4.169,0.01 -8.342,-0.143 -12.503,0.039 -4.773,0.207 -9.372,-0.453 -13.905,-1.887 -1.896,-0.598 -3.83,-1.094 -5.77,-1.539 -0.429,-0.1 -1.078,0.07 -1.408,0.361 -1.101,0.977 -2.286,1.535 -3.794,1.51 -3.019,-0.049 -6.039,-0.01 -9.059,-0.016 -2.798,-0.01 -4.362,-1.559 -4.362,-4.301 -0.003,-8.463 -0.005,-16.926 0,-25.391 0.002,-2.938 1.258,-4.197 4.173,-4.199 3.062,0 6.125,0.031 9.188,-0.01 1.489,-0.02 2.888,0.124 4.014,1.337 z m 0.614,26.696 c 3.233,0.873 6.438,1.662 9.6,2.607 2.961,0.887 5.948,1.229 9.038,1.162 4.507,-0.102 9.016,-0.025 13.526,-0.029 0.425,0 0.853,0 1.272,-0.059 3.018,-0.439 4.402,-3.488 2.755,-6.047 -1.017,-1.578 -0.89,-2.227 0.629,-3.238 2.122,-1.41 2.559,-3.451 1.2,-5.604 -0.924,-1.467 -0.768,-2.232 0.652,-3.176 2.21,-1.471 2.605,-3.625 1.065,-5.797 -0.999,-1.412 -0.882,-2.162 0.503,-3.223 1.491,-1.141 2.065,-2.875 1.485,-4.5 -0.486,-1.359 -1.563,-1.938 -3.641,-1.943 -3.786,0 -7.572,0.01 -11.358,-0.002 -1.909,-0.004 -2.494,-0.602 -2.496,-2.523 -0.005,-4.682 0.011,-9.361 -0.015,-14.039 -0.004,-0.668 0.022,-1.51 -0.347,-1.957 -0.478,-0.582 -1.303,-0.99 -2.054,-1.18 -0.284,-0.072 -0.93,0.588 -1.149,1.041 -2.186,4.5 -4.251,9.063 -6.506,13.527 -0.665,1.318 -1.648,2.598 -2.782,3.539 -3.462,2.877 -7.087,5.561 -10.601,8.377 -0.411,0.328 -0.742,1.023 -0.746,1.551 -0.051,6.85 -0.032,13.699 -0.032,20.547 0.002,0.296 0.002,0.589 0.002,0.966 z m -14.24,-24.207 c 0,8.83 0,17.518 0,26.217 3.54,0 6.992,0 10.46,0 0,-8.791 0,-17.48 0,-26.217 -3.519,0 -6.948,0 -10.46,0 z"
     id="path133" /><path
     style="fill:none;fill-rule:evenodd;stroke:#000000;stroke-width:1px;stroke-linecap:butt;stroke-linejoin:miter;stroke-opacity:1"
     d="m 361.5009,238.79199 209.02767,0"
     id="path4218"
     inkscape:connector-curvature="0" /><text
     xml:space="preserve"
     style="font-style:normal;font-weight:normal;font-size:40px;line-height:125%;font-family:sans-serif;letter-spacing:0px;word-spacing:0px;fill:#000000;fill-opacity:1;stroke:none;stroke-width:1px;stroke-linecap:butt;stroke-linejoin:miter;stroke-opacity:1"
     x="397.7561"
     y="210.7317"
     id="text4220"
     sodipodi:linespacing="125%"><tspan
       sodipodi:role="line"
       id="tspan4222"
       x="397.7561"
       y="210.7317">Frase 1</tspan></text>
<path
     inkscape:connector-curvature="0"
     id="path4224"
     d="m 361.5009,326.79199 209.02767,0"
     style="fill:none;fill-rule:evenodd;stroke:#000000;stroke-width:1px;stroke-linecap:butt;stroke-linejoin:miter;stroke-opacity:1" /><text
     sodipodi:linespacing="125%"
     id="text4226"
     y="298.73169"
     x="397.7561"
     style="font-style:normal;font-weight:normal;font-size:40px;line-height:125%;font-family:sans-serif;letter-spacing:0px;word-spacing:0px;fill:#000000;fill-opacity:1;stroke:none;stroke-width:1px;stroke-linecap:butt;stroke-linejoin:miter;stroke-opacity:1"
     xml:space="preserve"><tspan
       y="298.73169"
       x="397.7561"
       id="tspan4228"
       sodipodi:role="line">Frase 2</tspan></text>
<path
     style="fill:none;fill-rule:evenodd;stroke:#000000;stroke-width:1px;stroke-linecap:butt;stroke-linejoin:miter;stroke-opacity:1"
     d="m 361.5009,414.79199 209.02767,0"
     id="path4248"
     inkscape:connector-curvature="0" /><text
     xml:space="preserve"
     style="font-style:normal;font-weight:normal;font-size:40px;line-height:125%;font-family:sans-serif;letter-spacing:0px;word-spacing:0px;fill:#000000;fill-opacity:1;stroke:none;stroke-width:1px;stroke-linecap:butt;stroke-linejoin:miter;stroke-opacity:1"
     x="397.7561"
     y="386.73166"
     id="text4250"
     sodipodi:linespacing="125%"><tspan
       sodipodi:role="line"
       id="tspan4252"
       x="397.7561"
       y="386.73166">Frase 3</tspan></text>
<path
     inkscape:connector-curvature="0"
     id="path4277"
     d="m 361.5009,502.79199 209.02767,0"
     style="fill:none;fill-rule:evenodd;stroke:#000000;stroke-width:1px;stroke-linecap:butt;stroke-linejoin:miter;stroke-opacity:1" /><text
     sodipodi:linespacing="125%"
     id="text4279"
     y="474.73166"
     x="397.7561"
     style="font-style:normal;font-weight:normal;font-size:40px;line-height:125%;font-family:sans-serif;letter-spacing:0px;word-spacing:0px;fill:#000000;fill-opacity:1;stroke:none;stroke-width:1px;stroke-linecap:butt;stroke-linejoin:miter;stroke-opacity:1"
     xml:space="preserve"><tspan
       y="474.73166"
       x="397.7561"
       id="tspan4281"
       sodipodi:role="line">Frase 4</tspan></text>
<path
     style="fill:none;fill-rule:evenodd;stroke:#000000;stroke-width:1px;stroke-linecap:butt;stroke-linejoin:miter;stroke-opacity:1"
     d="m 361.5009,590.79199 209.02767,0"
     id="path4293"
     inkscape:connector-curvature="0" /><text
     xml:space="preserve"
     style="font-style:normal;font-weight:normal;font-size:40px;line-height:125%;font-family:sans-serif;letter-spacing:0px;word-spacing:0px;fill:#000000;fill-opacity:1;stroke:none;stroke-width:1px;stroke-linecap:butt;stroke-linejoin:miter;stroke-opacity:1"
     x="397.7561"
     y="562.73169"
     id="text4295"
     sodipodi:linespacing="125%"><tspan
       sodipodi:role="line"
       id="tspan4297"
       x="397.7561"
       y="562.73169">Frase 5</tspan></text>
<path
     style="fill:none;fill-rule:evenodd;stroke:#000000;stroke-width:1px;stroke-linecap:butt;stroke-linejoin:miter;stroke-opacity:1"
     d="m 361.33983,677.12195 209.02767,0"
     id="path4293-6"
     inkscape:connector-curvature="0" /><text
     xml:space="preserve"
     style="font-style:normal;font-weight:normal;font-size:40px;line-height:125%;font-family:sans-serif;letter-spacing:0px;word-spacing:0px;fill:#000000;fill-opacity:1;stroke:none;stroke-width:1px;stroke-linecap:butt;stroke-linejoin:miter;stroke-opacity:1"
     x="397.59503"
     y="649.06165"
     id="text4295-7"
     sodipodi:linespacing="125%"><tspan
       sodipodi:role="line"
       id="tspan4297-5"
       x="397.59503"
       y="649.06165">Frase 6</tspan></text>
<path
     inkscape:connector-curvature="0"
     id="path4237"
     d="m 361.33983,763.12195 209.02767,0"
     style="fill:none;fill-rule:evenodd;stroke:#000000;stroke-width:1px;stroke-linecap:butt;stroke-linejoin:miter;stroke-opacity:1" /><text
     sodipodi:linespacing="125%"
     id="text4239"
     y="735.06165"
     x="397.59503"
     style="font-style:normal;font-weight:normal;font-size:40px;line-height:125%;font-family:sans-serif;letter-spacing:0px;word-spacing:0px;fill:#000000;fill-opacity:1;stroke:none;stroke-width:1px;stroke-linecap:butt;stroke-linejoin:miter;stroke-opacity:1"
     xml:space="preserve"><tspan
       y="735.06165"
       x="397.59503"
       id="tspan4241"
       sodipodi:role="line">Frase 7</tspan></text>
<path
     style="fill:none;fill-rule:evenodd;stroke:#000000;stroke-width:1px;stroke-linecap:butt;stroke-linejoin:miter;stroke-opacity:1"
     d="m 361.33983,763.12195 209.02767,0"
     id="path4243"
     inkscape:connector-curvature="0" /><path
     style="fill:none;fill-rule:evenodd;stroke:#000000;stroke-width:1px;stroke-linecap:butt;stroke-linejoin:miter;stroke-opacity:1"
     d="m 361.33983,849.12195 209.02767,0"
     id="path4249"
     inkscape:connector-curvature="0" /><text
     xml:space="preserve"
     style="font-style:normal;font-weight:normal;font-size:40px;line-height:125%;font-family:sans-serif;letter-spacing:0px;word-spacing:0px;fill:#000000;fill-opacity:1;stroke:none;stroke-width:1px;stroke-linecap:butt;stroke-linejoin:miter;stroke-opacity:1"
     x="397.59503"
     y="821.06165"
     id="text4251"
     sodipodi:linespacing="125%"><tspan
       sodipodi:role="line"
       id="tspan4253"
       x="397.59503"
       y="821.06165">Frase 8</tspan></text>
<text
     sodipodi:linespacing="125%"
     id="text4261"
     y="210.7317"
     x="693.7561"
     style="font-style:normal;font-weight:normal;font-size:40px;line-height:125%;font-family:sans-serif;letter-spacing:0px;word-spacing:0px;fill:#000000;fill-opacity:1;stroke:none;stroke-width:1px;stroke-linecap:butt;stroke-linejoin:miter;stroke-opacity:1"
     xml:space="preserve"><tspan
       y="210.7317"
       x="693.7561"
       id="tspan4263"
       sodipodi:role="line">Frase 1</tspan></text>
<path
     style="fill:none;fill-rule:evenodd;stroke:#000000;stroke-width:1px;stroke-linecap:butt;stroke-linejoin:miter;stroke-opacity:1"
     d="m 657.5009,326.79199 209.02767,0"
     id="path4265"
     inkscape:connector-curvature="0" /><text
     xml:space="preserve"
     style="font-style:normal;font-weight:normal;font-size:40px;line-height:125%;font-family:sans-serif;letter-spacing:0px;word-spacing:0px;fill:#000000;fill-opacity:1;stroke:none;stroke-width:1px;stroke-linecap:butt;stroke-linejoin:miter;stroke-opacity:1"
     x="693.7561"
     y="298.73169"
     id="text4267"
     sodipodi:linespacing="125%"><tspan
       sodipodi:role="line"
       id="tspan4269"
       x="693.7561"
       y="298.73169">Frase 2</tspan></text>
<path
     inkscape:connector-curvature="0"
     id="path4271"
     d="m 657.5009,414.79199 209.02767,0"
     style="fill:none;fill-rule:evenodd;stroke:#000000;stroke-width:1px;stroke-linecap:butt;stroke-linejoin:miter;stroke-opacity:1" /><text
     sodipodi:linespacing="125%"
     id="text4273"
     y="386.73166"
     x="693.7561"
     style="font-style:normal;font-weight:normal;font-size:40px;line-height:125%;font-family:sans-serif;letter-spacing:0px;word-spacing:0px;fill:#000000;fill-opacity:1;stroke:none;stroke-width:1px;stroke-linecap:butt;stroke-linejoin:miter;stroke-opacity:1"
     xml:space="preserve"><tspan
       y="386.73166"
       x="693.7561"
       id="tspan4275"
       sodipodi:role="line">Frase 3</tspan></text>
<path
     style="fill:none;fill-rule:evenodd;stroke:#000000;stroke-width:1px;stroke-linecap:butt;stroke-linejoin:miter;stroke-opacity:1"
     d="m 657.5009,502.79199 209.02767,0"
     id="path4278"
     inkscape:connector-curvature="0" /><text
     xml:space="preserve"
     style="font-style:normal;font-weight:normal;font-size:40px;line-height:125%;font-family:sans-serif;letter-spacing:0px;word-spacing:0px;fill:#000000;fill-opacity:1;stroke:none;stroke-width:1px;stroke-linecap:butt;stroke-linejoin:miter;stroke-opacity:1"
     x="693.7561"
     y="474.73166"
     id="text4280"
     sodipodi:linespacing="125%"><tspan
       sodipodi:role="line"
       id="tspan4282"
       x="693.7561"
       y="474.73166">Frase 4</tspan></text>
<path
     inkscape:connector-curvature="0"
     id="path4284"
     d="m 657.5009,590.79199 209.02767,0"
     style="fill:none;fill-rule:evenodd;stroke:#000000;stroke-width:1px;stroke-linecap:butt;stroke-linejoin:miter;stroke-opacity:1" /><text
     sodipodi:linespacing="125%"
     id="text4286"
     y="562.73169"
     x="693.7561"
     style="font-style:normal;font-weight:normal;font-size:40px;line-height:125%;font-family:sans-serif;letter-spacing:0px;word-spacing:0px;fill:#000000;fill-opacity:1;stroke:none;stroke-width:1px;stroke-linecap:butt;stroke-linejoin:miter;stroke-opacity:1"
     xml:space="preserve"><tspan
       y="562.73169"
       x="693.7561"
       id="tspan4288"
       sodipodi:role="line">Frase 5</tspan></text>
<path
     inkscape:connector-curvature="0"
     id="path4290"
     d="m 657.33983,677.12195 209.02767,0"
     style="fill:none;fill-rule:evenodd;stroke:#000000;stroke-width:1px;stroke-linecap:butt;stroke-linejoin:miter;stroke-opacity:1" /><text
     sodipodi:linespacing="125%"
     id="text4292"
     y="649.06165"
     x="693.59503"
     style="font-style:normal;font-weight:normal;font-size:40px;line-height:125%;font-family:sans-serif;letter-spacing:0px;word-spacing:0px;fill:#000000;fill-opacity:1;stroke:none;stroke-width:1px;stroke-linecap:butt;stroke-linejoin:miter;stroke-opacity:1"
     xml:space="preserve"><tspan
       y="649.06165"
       x="693.59503"
       id="tspan4294"
       sodipodi:role="line">Frase 6</tspan></text>
<path
     style="fill:none;fill-rule:evenodd;stroke:#000000;stroke-width:1px;stroke-linecap:butt;stroke-linejoin:miter;stroke-opacity:1"
     d="m 657.33983,763.12195 209.02767,0"
     id="path4296"
     inkscape:connector-curvature="0" /><text
     xml:space="preserve"
     style="font-style:normal;font-weight:normal;font-size:40px;line-height:125%;font-family:sans-serif;letter-spacing:0px;word-spacing:0px;fill:#000000;fill-opacity:1;stroke:none;stroke-width:1px;stroke-linecap:butt;stroke-linejoin:miter;stroke-opacity:1"
     x="693.59503"
     y="735.06165"
     id="text4298"
     sodipodi:linespacing="125%"><tspan
       sodipodi:role="line"
       id="tspan4300"
       x="693.59503"
       y="735.06165">Frase 7</tspan></text>
<path
     inkscape:connector-curvature="0"
     id="path4302"
     d="m 657.33983,763.12195 209.02767,0"
     style="fill:none;fill-rule:evenodd;stroke:#000000;stroke-width:1px;stroke-linecap:butt;stroke-linejoin:miter;stroke-opacity:1" /><path
     inkscape:connector-curvature="0"
     id="path4304"
     d="m 657.33983,849.12195 209.02767,0"
     style="fill:none;fill-rule:evenodd;stroke:#000000;stroke-width:1px;stroke-linecap:butt;stroke-linejoin:miter;stroke-opacity:1" /><text
     sodipodi:linespacing="125%"
     id="text4306"
     y="821.06165"
     x="693.59503"
     style="font-style:normal;font-weight:normal;font-size:40px;line-height:125%;font-family:sans-serif;letter-spacing:0px;word-spacing:0px;fill:#000000;fill-opacity:1;stroke:none;stroke-width:1px;stroke-linecap:butt;stroke-linejoin:miter;stroke-opacity:1"
     xml:space="preserve"><tspan
       y="821.06165"
       x="693.59503"
       id="tspan4308"
       sodipodi:role="line">Frase 8</tspan></text>
</svg>