<svg
   width="141.86516mm"
   height="208.81325mm"
   viewBox="0 0 502.67182 739.88946"
   id="button_social_full"
   version="1.1">
  <g
     id="btn_social">
    <circle
       r="102.49355"
       cy="158.32381"
       cx="111.29694"
       id="btn_gameCtrl_1"
       style="fill:#fafdfe;fill-opacity:1;fill-rule:evenodd;stroke:#e4e9ec;stroke-width:16.52075577;stroke-linecap:butt;stroke-linejoin:miter;stroke-miterlimit:4;stroke-dasharray:none;stroke-opacity:1" />
    <g
       transform="translate(-88.957,-6.5798)"
       id="g418">
      <path
         d="m 267.475,187.866 c -0.007,-0.534 0.104,-13 -0.736,-15.307 0,0 -0.314,-7.029 -1.888,-13.218 -1.574,-6.19 -9.14,-17.833 -9.14,-17.833 0,0 -4.602,-6.978 -8.982,-6.978 -4.38,0 -5.884,3.668 -8.143,6.923 -2.258,3.256 -4.577,6.767 -10.346,9.443 -5.715,2.65 -6.606,3.908 -27.688,3.932 -21.083,-0.023 -21.973,-1.281 -27.689,-3.932 -5.769,-2.677 -8.088,-6.188 -10.346,-9.443 -2.259,-3.255 -3.764,-6.923 -8.144,-6.923 -4.38,0 -8.982,6.978 -8.982,6.978 0,0 -7.566,11.643 -9.14,17.833 -1.574,6.188 -1.889,13.218 -1.889,13.218 -0.839,2.307 -0.729,14.772 -0.735,15.307 -0.005,0.532 -0.184,8.428 1.469,18.576 1.652,10.149 8.867,19.949 8.867,19.949 l 56.574,14.448 0,0.007 0.013,-0.003 0.013,0.003 0,-0.007 56.574,-14.448 c 0,0 7.215,-9.8 8.867,-19.949 1.653,-10.148 1.475,-18.044 1.471,-18.576 z"
         id="path420"
         style="fill:#dcdbdb" />
      <path
         d="m 144.539,158.448 c 2.48,-0.155 2.085,-0.668 8.655,2.205 8.988,3.929 25.334,16.837 25.334,16.837 0,0 3.043,3.671 4.249,9.6 1.206,5.925 0.317,12.014 0,17.308 -0.317,5.295 -1.102,18.411 -1.102,18.411 0,0 0.158,14.948 19.984,14.948 19.826,0 20.457,-11.486 20.457,-11.486 0,0 0.503,-5.54 0,-11.409 -0.503,-5.869 -0.787,-9.992 -1.888,-19.434 -1.102,-9.44 1.94,-11.749 2.833,-13.846 0.83,-1.323 1.783,-3.464 6.452,-7.239 4.668,-3.775 21.295,-13.742 23.446,-14.792 2.151,-1.048 3.829,-0.943 5.351,-0.367 1.52,0.578 2.779,2.412 4.09,5.717 1.311,3.306 2.203,24.55 2.203,24.55 0,0 0.394,10.62 -0.944,18.568 -1.338,7.945 -2.743,12.619 -4.721,16.048 -3.008,3.954 -17.152,27.537 -57.278,27.537 -40.125,0 -54.918,-21.557 -57.121,-24.39 -2.203,-2.832 -4.249,-9.086 -5.507,-16.147 -1.258,-7.061 -1.417,-28.854 -1.417,-28.854 0,0 0.77,-13.784 1.574,-16.052 0.804,-2.267 2.311,-7.868 5.35,-7.713 z"
         id="path422"
         style="fill:#aeadae" />
      <ellipse
         cx="243.52901"
         cy="211.06599"
         rx="17.188"
         ry="16.731001"
         id="ellipse424"
         style="fill:#ffffff" />
      <path
         d="m 221.663,239.011 c -2.871,1.337 -3.817,2.951 -6.687,3.777 -1.477,0.427 -7.141,0.776 -12.775,0.861 -5.635,-0.085 -11.298,-0.435 -12.775,-0.861 -2.87,-0.826 -3.817,-2.44 -6.687,-3.777 -2.045,-0.985 -1.253,1.375 0.137,2.693 1.391,1.317 3.374,3.166 6.55,4.502 1.494,0.628 7.174,0.661 12.775,0.527 5.599,0.134 11.281,0.101 12.775,-0.527 3.175,-1.336 5.16,-3.185 6.549,-4.502 1.391,-1.318 2.183,-3.679 0.138,-2.693 z"
         id="path426"
         style="fill:#dcdbdb" />
      <path
         d="m 257.248,186.606 c -3.043,-1.026 -4.931,-2.394 -13.597,-2.04 -8.664,0.357 -13.368,1.907 -14.431,2.513 -1.063,0.604 -1.647,3.05 1.094,2.623 2.743,-0.428 8.533,-1.463 13.252,-1.356 4.719,0.107 10.965,0.009 12.321,0.357 1.358,0.345 2.921,-1.511 1.361,-2.097 z"
         id="path428"
         style="fill:#dcdbdb" />
      <path
         d="m 144.774,186.606 c 3.044,-1.026 4.931,-2.394 13.597,-2.04 8.664,0.357 13.368,1.907 14.432,2.513 1.063,0.604 1.646,3.05 -1.095,2.623 -2.743,-0.428 -8.532,-1.463 -13.252,-1.356 -4.72,0.107 -10.965,0.009 -12.322,0.357 -1.357,0.345 -2.92,-1.511 -1.36,-2.097 z"
         id="path430"
         style="fill:#dcdbdb" />
      <path
         d="m 175.251,204.543 c -2.612,-6 -8.717,-10.208 -15.833,-10.208 -8.346,0 -15.301,5.793 -16.859,13.471 3.285,-1.502 10.031,-4.09 17.596,-4.09 6.527,0 11.904,0.467 15.096,0.827 z"
         id="path432"
         style="fill:#dcdbdb" />
      <path
         d="m 156.892,223.674 c 5.79,1.395 10.026,1.267 12.899,0.733 4.14,-3.056 6.816,-7.895 6.816,-13.341 0,-2.313 -0.482,-4.52 -1.355,-6.523 -3.192,-0.36 -8.57,-0.827 -15.096,-0.827 -7.565,0 -14.312,2.588 -17.596,4.09 -0.214,1.055 -0.329,2.145 -0.329,3.261 0,1.29 0.155,2.545 0.439,3.751 2.201,2.885 6.544,7.011 14.222,8.856 z"
         id="path434"
         style="fill:#ffffff" />
      <path
         d="m 159.419,227.798 c 3.897,0 7.49,-1.264 10.372,-3.391 -2.873,0.533 -7.109,0.661 -12.899,-0.733 -7.677,-1.845 -12.021,-5.971 -14.221,-8.856 1.748,7.434 8.58,12.98 16.748,12.98 z"
         id="path436"
         style="fill:#dcdbdb" />
      <path
         d="m 227.207,204.543 c 2.678,-6 8.936,-10.208 16.229,-10.208 8.556,0 15.684,5.793 17.281,13.471 -3.367,-1.502 -10.282,-4.09 -18.037,-4.09 -6.688,0 -12.2,0.467 -15.473,0.827 z"
         id="path438"
         style="fill:#dcdbdb" />
      <path
         d="m 243.618,227.798 c -3.953,0 -7.597,-1.264 -10.521,-3.391 2.915,0.533 7.211,0.661 13.085,-0.733 7.787,-1.845 12.192,-5.971 14.425,-8.856 -1.775,7.434 -8.704,12.98 -16.989,12.98 z"
         id="path440"
         style="fill:#dcdbdb" />
      <ellipse
         cx="162.517"
         cy="212.522"
         rx="8.1429996"
         ry="6.8429999"
         id="ellipse442"
         style="fill:#414141" />
      <circle
         cx="167.56599"
         cy="208.729"
         r="3.7609999"
         id="circle444"
         style="fill:#fdfeff" />
      <ellipse
         cx="240.442"
         cy="212.522"
         rx="8.1429996"
         ry="6.8429999"
         id="ellipse446"
         style="fill:#414141" />
      <circle
         cx="245.492"
         cy="208.729"
         r="3.7609999"
         id="circle448"
         style="fill:#fdfeff" />
    </g>
    <g
       transform="translate(-88.957,-6.5798)"
       id="g450">
      <text
         transform="matrix(0.9708,0.2397,-0.2397,0.9708,162.561,117.8198)"
         font-size="52"
         id="text452"
         style="font-size:52px;font-family:GothamRounded-Bold;fill:#b2e3f8">Hi!</text>
    </g>
  </g>
  <circle
     style="fill:#fafdfe;fill-opacity:1;fill-rule:evenodd;stroke:#e4e9ec;stroke-width:6.69999981;stroke-linecap:butt;stroke-linejoin:miter;stroke-miterlimit:4;stroke-dasharray:none;stroke-opacity:1"
     id="btn_social_1"
     cx="437.34991"
     cy="63.918713"
     r="41.566307" />
  <circle
     r="41.566307"
     cy="183.83723"
     cx="424.02563"
     id="btn_social_2"
     style="fill:#fafdfe;fill-opacity:1;fill-rule:evenodd;stroke:#e4e9ec;stroke-width:6.69999981;stroke-linecap:butt;stroke-linejoin:miter;stroke-miterlimit:4;stroke-dasharray:none;stroke-opacity:1" />
  <circle
     style="fill:#fafdfe;fill-opacity:1;fill-rule:evenodd;stroke:#e4e9ec;stroke-width:6.69999981;stroke-linecap:butt;stroke-linejoin:miter;stroke-miterlimit:4;stroke-dasharray:none;stroke-opacity:1"
     id="btn_social_3"
     cx="390.32303"
     cy="300.62064"
     r="41.566307" />
  <circle
     r="41.566307"
     cy="405.64731"
     cx="337.02591"
     id="btn_social_4"
     style="fill:#fafdfe;fill-opacity:1;fill-rule:evenodd;stroke:#e4e9ec;stroke-width:6.69999981;stroke-linecap:butt;stroke-linejoin:miter;stroke-miterlimit:4;stroke-dasharray:none;stroke-opacity:1" />
  <circle
     style="fill:#fafdfe;fill-opacity:1;fill-rule:evenodd;stroke:#e4e9ec;stroke-width:6.69999981;stroke-linecap:butt;stroke-linejoin:miter;stroke-miterlimit:4;stroke-dasharray:none;stroke-opacity:1"
     id="btn_social_5"
     cx="266.4856"
     cy="510.67398"
     r="41.566307" />
  <circle
     r="41.566307"
     cy="599.24127"
     cx="181.83722"
     id="btn_social_6"
     style="fill:#fafdfe;fill-opacity:1;fill-rule:evenodd;stroke:#e4e9ec;stroke-width:6.69999981;stroke-linecap:butt;stroke-linejoin:miter;stroke-miterlimit:4;stroke-dasharray:none;stroke-opacity:1" />
  <circle
     style="fill:#fafdfe;fill-opacity:1;fill-rule:evenodd;stroke:#e4e9ec;stroke-width:6.69999981;stroke-linecap:butt;stroke-linejoin:miter;stroke-miterlimit:4;stroke-dasharray:none;stroke-opacity:1"
     id="btn_social_7"
     cx="84.256462"
     cy="673.7005"
     r="41.566307" />
</svg>
