<?xml version="1.0" encoding="UTF-8" standalone="no"?>
<!-- Created with Inkscape (http://www.inkscape.org/) -->

<svg
   xmlns:dc="http://purl.org/dc/elements/1.1/"
   xmlns:cc="http://creativecommons.org/ns#"
   xmlns:rdf="http://www.w3.org/1999/02/22-rdf-syntax-ns#"
   xmlns:svg="http://www.w3.org/2000/svg"
   xmlns="http://www.w3.org/2000/svg"
   xmlns:sodipodi="http://sodipodi.sourceforge.net/DTD/sodipodi-0.dtd"
   xmlns:inkscape="http://www.inkscape.org/namespaces/inkscape"
   width="541.86664mm"
   height="304.79999mm"
   viewBox="0 0 1919.9999 1080"
   id="btn_gamectrl_full"
   version="1.1"
   inkscape:version="0.91 r13725"
   sodipodi:docname="btn_gamectrl.svg">
  <defs
     id="defs7868" />
  <sodipodi:namedview
     id="base"
     pagecolor="#ffffff"
     bordercolor="#666666"
     borderopacity="1.0"
     inkscape:pageopacity="0.0"
     inkscape:pageshadow="2"
     inkscape:zoom="0.49497475"
     inkscape:cx="860.24271"
     inkscape:cy="716.20189"
     inkscape:document-units="px"
     inkscape:current-layer="layer1"
     showgrid="false"
     fit-margin-top="0"
     fit-margin-left="0"
     fit-margin-right="0"
     fit-margin-bottom="0"
     inkscape:window-width="1920"
     inkscape:window-height="1016"
     inkscape:window-x="0"
     inkscape:window-y="27"
     inkscape:window-maximized="1" />
  <metadata
     id="metadata7871">
    <rdf:RDF>
      <cc:Work
         rdf:about="">
        <dc:format>image/svg+xml</dc:format>
        <dc:type
           rdf:resource="http://purl.org/dc/dcmitype/StillImage" />
        <dc:title></dc:title>
      </cc:Work>
    </rdf:RDF>
  </metadata>
  <g
     inkscape:label="Layer 1"
     inkscape:groupmode="layer"
     id="layer1"
     transform="translate(1202.8572,-6.6479157)">
    <g
       id="btn_gamectrl_icon">
      <path
         id="path75"
         d="m 410.78285,827.21292 c 0,-61.075 49.514,-110.586 110.59,-110.586 61.077,0 110.588,49.511 110.588,110.586 0,61.078 -49.511,110.592 -110.588,110.592 -61.077,0 -110.59,-49.513 -110.59,-110.592 z"
         stroke-miterlimit="10"
         style="fill:#ffffff;stroke:#d1d3d4;stroke-width:10;stroke-miterlimit:10"
         inkscape:connector-curvature="0" />
      <g
         transform="translate(-1202.8572,6.6479157)"
         id="g601">
        <path
           id="path603"
           d="m 1709.955,777.581 c 7.873,0 15.341,-0.002 22.809,0 1.396,0 2.793,-0.008 4.189,0.035 2.02,0.063 3.117,1.158 3.138,3.154 0.046,4.748 0.071,9.498 -0.01,14.244 -0.036,2.156 -1.105,3.053 -3.382,3.07 -4.399,0.031 -8.799,0.01 -13.199,0.01 -0.752,0 -1.505,0 -2.338,0 0,4.625 0,9.002 0,13.637 0.809,0 1.551,0 2.293,0 11.174,0 22.347,-0.01 33.52,0.002 15.896,0.018 28.414,9.881 32.138,25.305 4.118,17.053 -7.708,35.242 -24.989,38.338 -2.32,0.416 -4.707,0.631 -7.063,0.635 -26.188,0.045 -52.376,0.029 -78.563,0.027 -18.956,0 -33.706,-15.836 -32.344,-34.719 1.184,-16.396 15.263,-29.439 32.06,-29.57 11.383,-0.088 22.766,-0.018 34.148,-0.018 0.76,0 1.52,0 2.51,0 0.043,-0.85 0.109,-1.582 0.111,-2.314 0.012,-4.469 -0.015,-8.938 0.018,-13.408 0.021,-2.842 1.078,-3.896 3.954,-3.916 4.951,-0.035 9.901,-0.01 15,-0.01 0,-2.805 0,-5.488 0,-8.49 -0.702,0 -1.437,0 -2.17,0 -7.821,0 -15.644,0.008 -23.464,-0.002 -3.398,-0.006 -4.383,-0.99 -4.387,-4.334 -0.01,-3.49 -0.015,-6.982 0,-10.475 0.012,-2.438 1.039,-3.676 3.003,-3.689 1.961,-0.012 2.965,1.168 3.005,3.688 0.043,2.843 0.01,5.687 0.01,8.8 z m 8.109,40.35 c 0,-0.047 0,-0.094 0,-0.139 -12.776,0 -25.553,0 -38.33,0 -0.139,0 -0.279,0.002 -0.419,0 -16.085,-0.324 -26.745,12.42 -27.191,25.24 -0.487,13.988 11.013,26.832 24.982,26.91 27.019,0.154 54.038,0.059 81.058,0.059 0.976,0 1.965,0.018 2.926,-0.123 16.434,-2.428 24.314,-17.506 22.576,-29.43 -1.727,-11.834 -11.947,-22.162 -23.926,-22.441 -13.885,-0.326 -27.783,-0.076 -41.676,-0.076 z"
           inkscape:connector-curvature="0"
           style="clip-rule:evenodd;fill:#bcbec0;fill-rule:evenodd" />
        <path
           id="path605"
           d="m 1689.8,848.546 c 0,3.645 -0.061,6.98 0.023,10.314 0.049,1.943 -0.654,2.781 -2.677,2.748 -7.262,-0.113 -6.263,0.758 -6.316,-6.164 -0.018,-2.215 0,-4.43 0,-6.898 -3.466,0 -6.722,0.006 -9.978,-0.002 -2.798,-0.006 -3.154,-0.344 -3.15,-3.125 0.01,-7.141 -0.643,-5.924 5.965,-6.023 2.292,-0.035 4.584,-0.006 7.163,-0.006 0,-3.539 -0.01,-6.932 0,-10.322 0.01,-2.625 0.1,-2.709 2.715,-2.723 1.256,-0.008 2.521,0.096 3.765,-0.025 2.003,-0.193 2.557,0.764 2.509,2.584 -0.078,2.998 -0.021,6 -0.014,8.998 10e-4,0.41 0.052,0.818 0.098,1.488 3.477,0 6.867,-0.006 10.258,0.002 2.453,0.004 2.826,0.334 2.824,2.74 -0.01,6.83 0.711,6.459 -6.189,6.416 -2.228,-0.012 -4.454,-0.002 -6.996,-0.002 z"
           inkscape:connector-curvature="0"
           style="clip-rule:evenodd;fill:#bcbec0;fill-rule:evenodd" />
        <path
           id="path607"
           d="m 1754.079,839.372 c -3.401,-0.08 -6.185,-2.973 -6.138,-6.379 0.045,-3.293 3.157,-6.227 6.459,-6.092 3.242,0.133 6.097,3.123 6.048,6.336 -0.052,3.375 -2.999,6.213 -6.369,6.135 z"
           inkscape:connector-curvature="0"
           style="clip-rule:evenodd;fill:#bcbec0;fill-rule:evenodd" />
        <path
           id="path609"
           d="m 1741.164,843.854 c 3.342,0.021 6.162,2.783 6.185,6.055 0.024,3.406 -2.96,6.307 -6.438,6.26 -3.424,-0.043 -6.042,-2.844 -5.981,-6.396 0.056,-3.344 2.792,-5.94 6.234,-5.919 z"
           inkscape:connector-curvature="0"
           style="clip-rule:evenodd;fill:#bcbec0;fill-rule:evenodd" />
        <path
           id="path611"
           d="m 1761.272,845.532 c 3.388,0.039 6.096,2.779 6.081,6.152 -0.016,3.412 -2.857,6.186 -6.315,6.162 -3.461,-0.021 -6.068,-2.787 -6.017,-6.379 0.048,-3.361 2.804,-5.976 6.251,-5.935 z"
           inkscape:connector-curvature="0"
           style="clip-rule:evenodd;fill:#bcbec0;fill-rule:evenodd" />
      </g>
      <path
         id="path613"
         d="m 563.69185,795.90492 c 1.049,-1.324 2.066,-2.605 3.08,-3.891 5.943,-7.523 11.874,-15.059 17.834,-22.572 2.362,-2.98 6.34,-3.535 9.391,-1.381 3.021,2.137 3.783,6.445 1.51,9.377 -4.514,5.82 -9.112,11.576 -13.681,17.354 -4.102,5.189 -8.221,10.367 -12.308,15.568 -1.105,1.406 -2.426,2.496 -4.189,2.838 -2.605,0.508 -4.893,-0.295 -6.645,-2.236 -3.676,-4.068 -7.26,-8.223 -10.875,-12.348 -0.661,-0.752 -1.352,-1.488 -1.934,-2.301 -2.217,-3.096 -1.718,-7.105 1.125,-9.354 3.057,-2.418 6.956,-2.041 9.55,0.914 2.13,2.428 4.271,4.846 6.409,7.268 0.219,0.246 0.456,0.477 0.733,0.764 z"
         style="clip-rule:evenodd;fill:#b2e3f8;fill-rule:evenodd"
         inkscape:connector-curvature="0" />
    </g>
    <g
       id="btn_gamectrl_1"
       inkscape:label="#btn_gamectrl_1">
      <text
         y="274.33542"
         x="-283.99591"
         style="font-size:62px;font-family:GothamRounded-Medium;fill:#a7a9ac"
         font-size="62"
         id="text661">Okay, vou iniciar o jogo!</text>
      <path
         id="path5171"
         d="m 546.71661,214.32792 c 22.6662,-0.56226 41.4961,17.36309 42.0562,40.02383 0.5612,22.66834 -17.3587,41.49398 -40.0292,42.05625 -22.664,0.55901 -41.4897,-17.362 -42.0487,-40.02819 -0.5644,-22.66399 17.3555,-41.48962 40.0217,-42.05189 z"
         inkscape:connector-curvature="0"
         style="fill:#fafdfe;stroke:#d4e2f4;stroke-width:5.11835384;stroke-miterlimit:4;stroke-dasharray:none;stroke-opacity:1" />
    </g>
    <g
       id="btn_gamectrl_2">
      <text
         y="363.62933"
         x="-222.2713"
         style="font-size:62px;font-family:GothamRounded-Medium;fill:#a7a9ac"
         font-size="62"
         id="text667">Okay, vamos jogar!</text>
      <path
         style="fill:#fafdfe;stroke:#d4e2f4;stroke-width:5.11835384;stroke-miterlimit:4;stroke-dasharray:none;stroke-opacity:1"
         inkscape:connector-curvature="0"
         d="m 449.98661,304.10792 c 22.6662,-0.56226 41.4961,17.36309 42.0562,40.02383 0.5612,22.66834 -17.3587,41.49398 -40.0292,42.05625 -22.664,0.55901 -41.4897,-17.362 -42.0487,-40.02819 -0.5644,-22.66399 17.3555,-41.48962 40.0217,-42.05189 z"
         id="path8053" />
    </g>
    <g
       id="btn_gamectrl_3">
      <text
         y="469.86761"
         x="-500.90649"
         style="font-size:62px;font-family:GothamRounded-Medium;fill:#a7a9ac"
         font-size="62"
         id="text673">Certo, vou pausar o jogo!</text>
      <path
         id="path8055"
         d="m 363.17661,409.57992 c 22.6662,-0.56226 41.4961,17.36309 42.0562,40.02383 0.5612,22.66834 -17.3587,41.49398 -40.0292,42.05625 -22.664,0.55901 -41.4897,-17.362 -42.0487,-40.02819 -0.5644,-22.66399 17.3555,-41.48962 40.0217,-42.05189 z"
         inkscape:connector-curvature="0"
         style="fill:#fafdfe;stroke:#d4e2f4;stroke-width:5.11835384;stroke-miterlimit:4;stroke-dasharray:none;stroke-opacity:1" />
    </g>
    <g
       id="btn_gamectrl_4">
      <text
         y="584.50922"
         x="-10.6922"
         style="font-size:62px;font-family:GothamRounded-Medium;fill:#a7a9ac"
         font-size="62"
         id="text679">Frase 4</text>
      <path
         style="fill:#fafdfe;stroke:#d4e2f4;stroke-width:5.11835384;stroke-miterlimit:4;stroke-dasharray:none;stroke-opacity:1"
         inkscape:connector-curvature="0"
         d="m 296.34661,523.55092 c 22.6662,-0.56226 41.4961,17.36309 42.0562,40.02383 0.5612,22.66834 -17.3587,41.49398 -40.0292,42.05625 -22.664,0.55901 -41.4897,-17.362 -42.0487,-40.02819 -0.5644,-22.66399 17.3555,-41.48962 40.0217,-42.05189 z"
         id="path8057" />
    </g>
    <g
       id="btn_gamectrl_5">
      <text
         y="701.84033"
         x="-60.4011"
         style="font-size:62px;font-family:GothamRounded-Medium;fill:#a7a9ac"
         font-size="62"
         id="text685">Frase 5</text>
      <path
         id="path8059"
         d="m 241.22661,640.98492 c 22.6662,-0.56226 41.4961,17.36309 42.0562,40.02383 0.5612,22.66834 -17.3587,41.49398 -40.0292,42.05625 -22.664,0.55901 -41.4897,-17.362 -42.0487,-40.02819 -0.5644,-22.66399 17.3555,-41.48962 40.0217,-42.05189 z"
         inkscape:connector-curvature="0"
         style="fill:#fafdfe;stroke:#d4e2f4;stroke-width:5.11835384;stroke-miterlimit:4;stroke-dasharray:none;stroke-opacity:1" />
    </g>
    <g
       id="btn_gamectrl_6">
      <text
         y="819.58643"
         x="-96.302498"
         style="font-size:62px;font-family:GothamRounded-Medium;fill:#a7a9ac"
         font-size="62"
         id="text691">Frase 6</text>
      <path
         style="fill:#fafdfe;stroke:#d4e2f4;stroke-width:5.11835384;stroke-miterlimit:4;stroke-dasharray:none;stroke-opacity:1"
         inkscape:connector-curvature="0"
         d="m 206.87661,758.40292 c 22.6662,-0.56226 41.4961,17.36309 42.0562,40.02383 0.5612,22.66834 -17.3587,41.49398 -40.0292,42.05625 -22.664,0.55901 -41.4897,-17.362 -42.0487,-40.02819 -0.5644,-22.66399 17.3555,-41.48962 40.0217,-42.05189 z"
         id="path8061" />
    </g>
    <g
       id="btn_gamectrl_7">
      <text
         y="936.84222"
         x="-106.658"
         style="font-size:62px;font-family:GothamRounded-Medium;fill:#a7a9ac"
         font-size="62"
         id="text697">Frase 7</text>
      <path
         id="path8063"
         d="m 193.60661,879.11692 c 22.6662,-0.56226 41.4961,17.36309 42.0562,40.02383 0.5612,22.66834 -17.3587,41.49398 -40.0292,42.05625 -22.664,0.55901 -41.4897,-17.362 -42.0487,-40.02819 -0.5644,-22.66399 17.3555,-41.48962 40.0217,-42.05189 z"
         inkscape:connector-curvature="0"
         style="fill:#fafdfe;stroke:#d4e2f4;stroke-width:5.11835384;stroke-miterlimit:4;stroke-dasharray:none;stroke-opacity:1" />
    </g>
  </g>
</svg>
