<svg
   version="1.1"
   id="btn_instructions_full"
   viewBox="0 0 537.99681 739.88946"
   height="208.81325mm"
   width="151.83466mm">
  <g
     id="btn_instructions">
    <circle
       style="fill:#fafdfe;fill-opacity:1;fill-rule:evenodd;stroke:#e4e9ec;stroke-width:16.43697166;stroke-linecap:butt;stroke-linejoin:miter;stroke-miterlimit:4;stroke-dasharray:none;stroke-opacity:1"
       id="circle8600"
       cx="393.55673"
       cy="154.97237"
       r="101.97375" />
    <g
       id="g9102">
      <path
         id="path3423"
         d="m 462.9688,176.3682 c 0,-0.534 0.106,-13.019 -0.738,-15.332 0,0 -0.312,-7.037 -1.891,-13.237 -1.576,-6.198 -9.15,-17.86 -9.15,-17.86 0,0 -4.609,-6.987 -8.997,-6.987 -4.386,0 -5.896,3.672 -8.153,6.934 -2.265,3.261 -4.589,6.777 -10.366,9.455 -5.724,2.655 -6.614,3.916 -27.729,3.938 -21.118,-0.021 -22.008,-1.282 -27.733,-3.938 -5.779,-2.678 -8.101,-6.194 -10.363,-9.455 -2.26,-3.262 -3.769,-6.934 -8.156,-6.934 -4.385,0 -8.994,6.987 -8.994,6.987 0,0 -7.577,11.662 -9.155,17.86 -1.574,6.2 -1.892,13.237 -1.892,13.237 -0.839,2.313 -0.729,14.798 -0.734,15.332 -0.01,0.534 -0.187,8.441 1.47,18.606 1.655,10.166 8.882,19.98 8.882,19.98 l 56.659,14.47 0,0.009 0.018,-0.005 0.011,0.005 0,-0.009 56.663,-14.47 c 0,0 7.227,-9.814 8.88,-19.98 1.653,-10.164 1.475,-18.072 1.468,-18.606 z"
         style="fill:#dcdbdb" />
      <path
         id="path3425"
         d="m 339.8408,146.9062 c 2.483,-0.157 2.091,-0.67 8.671,2.205 9.001,3.936 25.371,16.864 25.371,16.864 0,0 3.051,3.679 4.256,9.614 1.211,5.938 0.319,12.033 0,17.336 -0.317,5.304 -1.104,18.441 -1.104,18.441 0,0 0.159,14.972 20.019,14.972 19.855,0 20.487,-11.506 20.487,-11.506 0,0 0.504,-5.547 0,-11.427 -0.505,-5.879 -0.789,-10.009 -1.89,-19.464 -1.104,-9.456 1.942,-11.767 2.835,-13.867 0.83,-1.326 1.785,-3.468 6.46,-7.251 4.678,-3.783 21.331,-13.764 23.484,-14.813 2.152,-1.052 3.835,-0.945 5.355,-0.371 1.526,0.579 2.785,2.417 4.101,5.728 1.313,3.31 2.206,24.587 2.206,24.587 0,0 0.393,10.636 -0.946,18.597 -1.337,7.958 -2.746,12.641 -4.727,16.075 -3.013,3.961 -17.178,27.581 -57.366,27.581 -40.191,0 -55.004,-21.593 -57.213,-24.43 -2.206,-2.836 -4.255,-9.1 -5.518,-16.173 -1.257,-7.072 -1.414,-28.9 -1.414,-28.9 0,0 0.769,-13.804 1.573,-16.075 0.808,-2.271 2.318,-7.88 5.36,-7.723 z"
         style="fill:#aeadae" />
      <ellipse
         id="ellipse3427"
         ry="16.757999"
         rx="17.216"
         cy="199.60519"
         cx="438.98682"
         style="fill:#ffffff" />
      <path
         id="path3429"
         d="m 341.3648,173.8582 c 3.072,-0.641 4.992,-1.524 13.66,-1.156 8.669,0.367 13.346,1.47 14.392,1.89 1.052,0.423 1.584,2.062 -1.153,1.735 -2.739,-0.327 -8.51,-1.105 -13.238,-1.105 -4.729,0 -10.982,-0.156 -12.347,0.053 -1.366,0.211 -2.888,-1.05 -1.314,-1.417 z"
         style="fill:#dcdbdb" />
      <path
         id="path3431"
         d="m 452.2568,178.2042 c -2.731,-1.548 -4.288,-2.978 -12.652,-5.277 -8.363,-2.299 -13.155,-2.681 -14.284,-2.603 -1.127,0.079 -2.135,1.479 0.57,2.004 2.705,0.528 8.44,1.553 12.942,2.998 4.502,1.446 10.502,3.209 11.737,3.828 1.237,0.618 3.072,-0.119 1.687,-0.95 z"
         style="fill:#dcdbdb" />
      <path
         id="path3433"
         d="m 370.6028,193.0712 c -2.616,-6.01 -8.733,-10.225 -15.857,-10.225 -8.359,0 -15.323,5.801 -16.885,13.492 3.291,-1.506 10.047,-4.097 17.624,-4.097 6.535,0.001 11.918,0.469 15.118,0.83 z"
         style="fill:#dcdbdb" />
      <path
         id="path3435"
         d="m 352.2148,212.2322 c 5.799,1.397 10.041,1.269 12.92,0.736 4.147,-3.06 6.825,-7.907 6.825,-13.363 0,-2.317 -0.484,-4.525 -1.357,-6.533 -3.2,-0.361 -8.583,-0.829 -15.118,-0.829 -7.577,0 -14.333,2.591 -17.624,4.097 -0.214,1.058 -0.329,2.148 -0.329,3.266 0,1.293 0.152,2.549 0.439,3.757 2.204,2.888 6.554,7.02 14.244,8.869 z"
         style="fill:#ffffff" />
      <path
         id="path3437"
         d="m 354.7448,216.3612 c 3.903,0 7.502,-1.265 10.39,-3.394 -2.879,0.532 -7.121,0.661 -12.92,-0.736 -7.69,-1.849 -12.04,-5.98 -14.244,-8.87 1.75,7.446 8.593,13 16.774,13 z"
         style="fill:#dcdbdb" />
      <path
         id="path3439"
         d="m 423.4598,193.0712 c 2.616,-6.01 8.73,-10.225 15.856,-10.225 8.362,0 15.324,5.801 16.887,13.492 -3.29,-1.506 -10.048,-4.097 -17.626,-4.097 -6.536,0.001 -11.919,0.469 -15.117,0.83 z"
         style="fill:#dcdbdb" />
      <path
         id="path3441"
         d="m 439.3168,216.3612 c -3.904,0 -7.502,-1.265 -10.389,-3.394 2.88,0.532 7.123,0.661 12.922,-0.736 7.688,-1.849 12.038,-5.98 14.242,-8.87 -1.752,7.446 -8.594,13 -16.775,13 z"
         style="fill:#dcdbdb" />
      <ellipse
         id="ellipse3443"
         ry="6.855"
         rx="8.1560001"
         cy="204.40019"
         cx="361.82886"
         style="fill:#414141" />
      <path
         id="path3445"
         d="m 431.0798,204.4002 c 0,-3.784 3.841,-6.855 8.577,-6.855 4.733,0 8.578,3.071 8.578,6.855 0,3.787 -3.845,6.855 -8.578,6.855 -4.736,0.001 -8.577,-3.067 -8.577,-6.855 z"
         style="fill:#414141" />
      <path
         id="path3447"
         d="m 437.3598,202.9842 c 0,-0.958 0.777,-1.734 1.733,-1.734 0.958,0 1.736,0.776 1.736,1.734 0,0.954 -0.778,1.732 -1.736,1.732 -0.956,0.001 -1.733,-0.777 -1.733,-1.732 z"
         style="fill:#fdfeff" />
      <path
         id="path3449"
         d="m 360.8828,202.9842 c 0,-0.958 0.776,-1.734 1.732,-1.734 0.961,0 1.735,0.776 1.735,1.734 0,0.954 -0.774,1.732 -1.735,1.732 -0.956,0.001 -1.732,-0.777 -1.732,-1.732 z"
         style="fill:#fdfeff" />
      <ellipse
         id="ellipse3451"
         ry="2.2019999"
         rx="2.6900001"
         cy="234.1712"
         cx="404.55383"
         style="fill:#dcdbdb" />
      <g
         id="g3453"
         transform="translate(-1329.8672,-6.5798)">
        <path
           id="path3455"
           d="m 1733.017,142.71 -0.694,-0.51 c -4.053,-2.969 -6.983,-5.115 -10.963,-9.143 -3.939,-3.5 -6.806,-5.348 -10.779,-5.229 -0.271,0.008 -0.54,0.012 -0.812,0.012 -15.485,0 -32.188,-13.557 -32.368,-33.758 0.022,-9.004 3.519,-17.486 9.846,-23.887 6.33,-6.404 14.779,-9.994 23.791,-10.107 2.152,-0.027 4.457,-0.041 7.253,-0.041 1.868,0 3.737,0.006 5.606,0.012 2.916,0.008 5.834,0.018 8.75,0.004 l 0.166,0 c 8.413,0 15.796,2.746 21.941,8.164 10.616,9.355 14.25,21.455 10.508,34.988 -3.428,12.402 -12.188,20.664 -25.335,23.893 -1.105,0.271 -1.095,0.457 -1.067,0.953 0.092,1.631 0.262,3.307 0.426,4.926 0.178,1.752 0.36,3.563 0.453,5.369 0.059,1.17 -0.22,3.426 -1.644,4.461 -0.745,0.541 -1.7,0.656 -2.369,0.656 -0.502,10e-4 -1.769,-0.076 -2.709,-0.763 z m 3.446,-4.188 c -0.089,-1.725 -0.269,-3.492 -0.442,-5.203 -0.167,-1.656 -0.34,-3.367 -0.438,-5.074 -0.127,-2.258 1.072,-3.711 3.562,-4.322 12.096,-2.971 19.818,-10.232 22.956,-21.582 3.431,-12.412 0.231,-23.063 -9.516,-31.652 -5.529,-4.873 -12.18,-7.344 -19.771,-7.344 l -0.153,0 c -2.924,0.012 -5.849,0.004 -8.772,-0.004 -1.865,-0.006 -3.731,-0.012 -5.597,-0.012 -2.783,0 -5.073,0.012 -7.211,0.039 -16.719,0.213 -30.356,13.996 -30.398,30.705 0.165,18.238 15.173,30.486 29.088,30.486 0.24,0 0.476,-0.002 0.715,-0.01 5.091,-0.156 8.618,2.111 13.095,6.09 l 0.078,0.074 c 3.814,3.867 6.516,5.846 10.604,8.84 l 0.682,0.5 c 0.074,0.043 0.374,0.139 0.784,0.139 0.198,0 0.345,-0.023 0.431,-0.045 0.154,-0.265 0.334,-0.984 0.303,-1.625 z"
           style="fill:#b2e3f8" />
      </g>
      <path
         id="path3457"
         d="m 395.1388,66.7862 c -0.257,-1.27 -0.512,-2.461 -0.732,-3.658 -0.05,-0.268 -0.057,-0.596 0.054,-0.832 0.191,-0.408 0.706,-0.41 1.104,-0.051 1.409,1.273 2.813,2.553 4.218,3.826 0.919,0.834 1.836,1.668 2.758,2.494 0.585,0.523 0.604,0.854 0.023,1.385 -2.316,2.119 -4.637,4.23 -6.954,6.346 -0.273,0.252 -0.571,0.363 -0.92,0.197 -0.377,-0.182 -0.388,-0.52 -0.319,-0.873 0.249,-1.291 0.499,-2.582 0.766,-3.953 -0.219,0 -0.405,0 -0.592,0 -2.864,0 -5.73,0.002 -8.595,0 -0.987,0 -1.14,-0.156 -1.14,-1.15 0,-0.934 0,-1.867 0,-2.801 0,-0.693 0.231,-0.928 0.923,-0.928 2.944,-0.004 5.891,-0.002 8.837,-0.002 0.173,0 0.348,0 0.569,0 z"
         style="clip-rule:evenodd;fill:#b2e3f8;fill-rule:evenodd" />
      <path
         id="path3459"
         d="m 370.6548,81.2942 c 1.267,-0.258 2.461,-0.514 3.657,-0.734 0.269,-0.049 0.596,-0.055 0.832,0.055 0.407,0.191 0.41,0.707 0.052,1.104 -1.275,1.408 -2.552,2.811 -3.827,4.217 -0.832,0.918 -1.666,1.836 -2.493,2.758 -0.523,0.586 -0.855,0.605 -1.387,0.023 -2.118,-2.314 -4.229,-4.637 -6.346,-6.953 -0.252,-0.273 -0.363,-0.572 -0.195,-0.92 0.182,-0.377 0.519,-0.387 0.872,-0.318 1.291,0.248 2.581,0.498 3.951,0.764 0,-0.217 0,-0.404 0,-0.59 0,-2.865 0,-5.73 0,-8.596 0,-0.986 0.157,-1.141 1.152,-1.141 0.936,0 1.867,-0.002 2.801,0 0.693,0.002 0.929,0.232 0.929,0.924 0,2.945 0,5.891 0,8.836 0,0.175 0,0.35 0,0.571 z"
         style="clip-rule:evenodd;fill:#b2e3f8;fill-rule:evenodd" />
      <path
         id="path3461"
         d="m 380.8648,104.9682 c 0.258,1.268 0.514,2.461 0.733,3.656 0.05,0.27 0.057,0.596 -0.055,0.832 -0.19,0.408 -0.707,0.412 -1.104,0.053 -1.406,-1.275 -2.811,-2.555 -4.216,-3.828 -0.919,-0.832 -1.836,-1.666 -2.759,-2.492 -0.584,-0.523 -0.604,-0.855 -0.023,-1.387 2.317,-2.119 4.638,-4.229 6.953,-6.346 0.275,-0.252 0.574,-0.363 0.921,-0.195 0.377,0.182 0.387,0.52 0.32,0.871 -0.249,1.291 -0.501,2.582 -0.766,3.953 0.219,0 0.405,0 0.591,0 2.865,0 5.731,0 8.594,0 0.988,0 1.143,0.156 1.143,1.15 0,0.936 0,1.869 0,2.803 0,0.691 -0.232,0.928 -0.924,0.928 -2.944,0.002 -5.893,0.002 -8.836,0.002 -0.175,0 -0.352,0 -0.572,0 z"
         style="clip-rule:evenodd;fill:#b2e3f8;fill-rule:evenodd" />
      <path
         id="path3463"
         d="m 410.2868,95.7262 c 3.671,-4.24 7.052,-8.188 10.491,-12.084 0.652,-0.738 1.442,-1.52 2.329,-1.844 1.398,-0.51 2.803,0.361 3.775,1.957 0.708,1.162 0.558,2.334 -0.547,3.619 -2.892,3.357 -5.808,6.697 -8.712,10.045 -1.425,1.643 -2.859,3.275 -4.27,4.93 -1.409,1.656 -3.468,1.92 -5.037,0.416 -3.046,-2.92 -6.021,-5.918 -8.968,-8.939 -1.249,-1.277 -1.052,-2.865 0.361,-4.281 1.479,-1.48 2.923,-1.674 4.256,-0.365 2.125,2.087 4.145,4.278 6.322,6.546 z"
         style="clip-rule:evenodd;fill:#b2e3f8;fill-rule:evenodd" />
    </g>
  </g>
  <circle
     style="fill:#fafdfe;fill-opacity:1;fill-rule:evenodd;stroke:#e4e9ec;stroke-width:6.69999981;stroke-linecap:butt;stroke-linejoin:miter;stroke-miterlimit:4;stroke-dasharray:none;stroke-opacity:1"
     id="btn_instructions_1"
     cx="64.012062"
     cy="65.684471"
     r="41.566307" />
  <circle
     r="41.566307"
     cy="186.50378"
     cx="78.421707"
     id="btn_instructions_2"
     style="fill:#fafdfe;fill-opacity:1;fill-rule:evenodd;stroke:#e4e9ec;stroke-width:6.69999981;stroke-linecap:butt;stroke-linejoin:miter;stroke-miterlimit:4;stroke-dasharray:none;stroke-opacity:1" />
  <circle
     style="fill:#fafdfe;fill-opacity:1;fill-rule:evenodd;stroke:#e4e9ec;stroke-width:6.69999981;stroke-linecap:butt;stroke-linejoin:miter;stroke-miterlimit:4;stroke-dasharray:none;stroke-opacity:1"
     id="btn_instructions_3"
     cx="113.33738"
     cy="299.84116"
     r="41.566307" />
  <circle
     r="41.566307"
     cy="409.02191"
     cx="167.65065"
     id="btn_instructions_4"
     style="fill:#fafdfe;fill-opacity:1;fill-rule:evenodd;stroke:#e4e9ec;stroke-width:6.69999981;stroke-linecap:butt;stroke-linejoin:miter;stroke-miterlimit:4;stroke-dasharray:none;stroke-opacity:1" />
  <circle
     style="fill:#fafdfe;fill-opacity:1;fill-rule:evenodd;stroke:#e4e9ec;stroke-width:6.69999981;stroke-linecap:butt;stroke-linejoin:miter;stroke-miterlimit:4;stroke-dasharray:none;stroke-opacity:1"
     id="btn_instructions_5"
     cx="235.54224"
     cy="510.1665"
     r="41.566307" />
  <circle
     r="41.566307"
     cy="600.50391"
     cx="321.72299"
     id="btn_instructions_6"
     style="fill:#fafdfe;fill-opacity:1;fill-rule:evenodd;stroke:#e4e9ec;stroke-width:6.69999981;stroke-linecap:butt;stroke-linejoin:miter;stroke-miterlimit:4;stroke-dasharray:none;stroke-opacity:1" />
  <circle
     style="fill:#fafdfe;fill-opacity:1;fill-rule:evenodd;stroke:#e4e9ec;stroke-width:6.69999981;stroke-linecap:butt;stroke-linejoin:miter;stroke-miterlimit:4;stroke-dasharray:none;stroke-opacity:1"
     id="btn_instructions_7"
     cx="417.15326"
     cy="674.9649"
     r="41.566307" />
</svg>
