<svg
   width="134.50287mm"
   height="232.75594mm"
   viewBox="0 0 476.58497 824.72575"
   id="btn_motivation_full"
   version="1.1">
  <g
     id="btn_motivation">
    <circle
       r="101.79885"
       cy="394.43109"
       cx="333.19159"
       id="circle9220"
       style="fill:#fafdfe;fill-opacity:1;fill-rule:evenodd;stroke:#e4e9ec;stroke-width:16.40877724;stroke-linecap:butt;stroke-linejoin:miter;stroke-miterlimit:4;stroke-dasharray:none;stroke-opacity:1" />
    <g
       id="g435"
       transform="translate(-1388.44,-99.883463)">
      <path
         id="path437"
         d="m 1708.163,476.094 c -2.479,-3.754 -5.522,-4.592 -9.08,-2.283 -2.221,1.441 -4.43,3.031 -6.262,4.926 -5.873,6.064 -13.343,8.848 -21.266,10.727 -9.5,2.256 -19.15,3.468 -28.909,3.82 -2.54,0.09 -4.173,-1.097 -4.24,-3.05 -0.068,-2.01 1.392,-3.199 3.972,-3.395 11.077,-0.842 22.118,-1.938 32.812,-5.229 4.716,-1.453 8.884,-3.729 12.565,-7.123 2.884,-2.656 6.046,-5.17 9.468,-7.053 6.345,-3.49 14.675,-0.137 17.443,6.605 0.935,2.281 2.681,2.674 4.945,1.592 1.735,-0.83 3.717,-1.141 5.695,-1.713 1.412,-6.174 9.292,-8.465 13.94,-7.227 4.62,1.232 8.412,3.855 11.938,6.9 3.054,2.637 6.107,5.303 8.879,8.225 4.191,4.422 9.29,7.113 15.126,8.365 8.011,1.719 16.08,3.175 24.115,4.785 1.021,0.205 2.425,0.367 2.886,1.059 0.654,0.984 1.162,2.742 0.696,3.613 -0.534,0.996 -2.348,2.123 -3.357,1.924 -10.342,-2.025 -20.667,-4.166 -30.924,-6.578 -5.675,-1.332 -9.75,-5.375 -13.912,-9.222 -3.962,-3.664 -8.046,-7.219 -12.322,-10.5 -2.397,-1.836 -5.264,-3.209 -8.503,-1.707 -0.261,0.121 -0.478,0.342 -1.104,0.805 2.358,0.635 4.362,1.229 6.391,1.705 2.662,0.623 3.977,2.102 3.529,4.119 -0.435,1.961 -2.092,2.748 -4.657,2.385 -4.708,-0.664 -9.431,-1.248 -14.564,-1.918 0.309,1.658 0.495,2.742 0.711,3.82 0.879,4.389 0.016,8.634 -1.113,12.833 -1.882,6.988 -1.99,8.699 6.383,12.201 6.955,2.908 14.188,1.969 20.929,-0.744 5.453,-2.195 10.629,-1.969 16.018,-0.514 12.537,3.385 24.208,8.902 35.789,14.629 2.075,1.025 2.678,2.811 1.809,4.521 -0.921,1.809 -2.687,2.25 -4.901,1.289 -9.473,-4.104 -18.941,-8.217 -28.438,-12.258 -1.665,-0.709 -3.476,-1.078 -5.199,-1.66 -4.29,-1.445 -8.371,-1.646 -12.81,0.131 -7.794,3.117 -15.957,3.881 -24.107,1.248 -2.711,-0.875 -5.229,-2.338 -7.984,-3.6 -0.556,0.82 -1.26,1.795 -1.896,2.814 -2.355,3.758 -5.812,5.691 -10.155,6.127 -5.564,0.559 -11.089,0.477 -16.497,-1.18 -4.595,-1.406 -8.298,-3.914 -10.903,-8.104 -0.616,-0.992 -2.298,-1.771 -3.541,-1.848 -6.126,-0.375 -11.862,1.568 -17.49,3.65 -5.118,1.893 -10.089,4.186 -15.17,6.189 -1.062,0.42 -2.498,0.775 -3.435,0.381 -0.904,-0.383 -2.021,-1.855 -1.903,-2.695 0.164,-1.207 1.11,-2.875 2.152,-3.305 7.497,-3.096 15.045,-6.084 22.687,-8.785 4.664,-1.648 9.563,-2.455 14.578,-1.953 2.942,0.295 5.729,1.254 7.118,3.908 2.683,5.127 7.33,6.682 12.431,7.197 3.363,0.34 6.832,0.09 10.211,-0.279 3.747,-0.41 7.319,-5.742 6.631,-9.514 -0.519,-2.836 -1.476,-5.637 -1.6,-8.48 -0.094,-2.172 0.773,-4.396 1.286,-6.58 0.206,-0.877 0.742,-1.684 0.901,-2.564 0.766,-4.246 -0.75,-5.826 -4.919,-5.035 -2.833,0.535 -5.624,1.275 -8.432,1.939 -2.168,0.514 -3.772,-0.252 -4.369,-2.123 -0.573,-1.785 0.367,-3.457 2.534,-4.146 2.428,-0.77 4.909,-1.377 7.394,-2.067 z"
         style="clip-rule:evenodd;fill:#bcbec0;fill-rule:evenodd" />
      <path
         id="path439"
         d="m 1723.567,458.661 c 0.632,-1.264 0.953,-2.205 1.511,-2.973 3.885,-5.348 7.818,-10.66 11.737,-15.982 0.18,-0.244 0.383,-0.473 0.585,-0.701 1.476,-1.643 3.103,-1.938 4.608,-0.84 1.52,1.105 1.796,3.084 0.529,4.838 -3.247,4.498 -6.555,8.951 -9.841,13.418 -0.993,1.346 -1.806,2.916 -3.063,3.938 -0.894,0.727 -2.513,1.158 -3.595,0.883 -0.961,-0.247 -1.629,-1.648 -2.471,-2.581 z"
         style="clip-rule:evenodd;fill:#b2e3f8;fill-rule:evenodd" />
      <path
         id="path441"
         d="m 1717.427,538.682 c -0.106,-2.891 -0.238,-5.785 -0.305,-8.68 -0.061,-2.514 1.226,-4.094 3.256,-4.115 1.989,-0.02 3.271,1.318 3.385,3.805 0.263,5.859 0.481,11.723 0.63,17.586 0.061,2.432 -1.22,3.818 -3.248,3.852 -1.968,0.031 -3.273,-1.375 -3.392,-3.77 -0.145,-2.891 -0.22,-5.784 -0.326,-8.678 z"
         style="clip-rule:evenodd;fill:#b2e3f8;fill-rule:evenodd" />
      <path
         id="path443"
         d="m 1696.941,440.688 c 1.155,0.771 2.252,1.211 2.929,2.006 3.793,4.461 7.498,8.996 11.203,13.531 1.731,2.119 1.704,4.076 0.019,5.387 -1.616,1.258 -3.387,0.854 -5.096,-1.215 -3.734,-4.508 -7.538,-8.967 -11.099,-13.609 -0.727,-0.945 -0.865,-2.695 -0.595,-3.926 0.18,-0.809 1.577,-1.35 2.639,-2.174 z"
         style="clip-rule:evenodd;fill:#b2e3f8;fill-rule:evenodd" />
      <path
         id="path445"
         d="m 1712.199,523.875 c 0.987,0.693 2.271,1.131 2.638,1.971 0.424,0.965 0.491,2.605 -0.073,3.395 -3.604,5.07 -7.37,10.027 -11.209,14.924 -1.097,1.402 -2.757,1.639 -4.277,0.496 -1.545,-1.162 -2.039,-2.787 -0.861,-4.391 3.684,-5.016 7.463,-9.965 11.284,-14.877 0.498,-0.639 1.468,-0.913 2.498,-1.518 z"
         style="clip-rule:evenodd;fill:#b2e3f8;fill-rule:evenodd" />
      <path
         id="path447"
         d="m 1744.164,539.219 c -0.721,0.883 -1.292,2.184 -2.232,2.559 -0.944,0.381 -2.668,0.275 -3.347,-0.365 -4.304,-4.064 -8.467,-8.289 -12.558,-12.57 -1.288,-1.346 -1.024,-3.008 0.323,-4.273 1.333,-1.258 2.985,-1.398 4.298,-0.125 4.194,4.076 8.29,8.254 12.37,12.439 0.493,0.505 0.665,1.321 1.146,2.335 z"
         style="clip-rule:evenodd;fill:#b2e3f8;fill-rule:evenodd" />
      <path
         id="path449"
         d="m 1720.599,448.268 c 0.093,2.584 0.216,5.166 0.271,7.75 0.051,2.43 -1.085,3.777 -3.16,3.863 -2.156,0.09 -3.284,-1.014 -3.405,-3.602 -0.246,-5.316 -0.438,-10.639 -0.58,-15.959 -0.066,-2.525 1.067,-3.846 3.121,-3.916 2.12,-0.072 3.334,1.266 3.457,3.885 0.121,2.657 0.196,5.319 0.296,7.979 z"
         style="clip-rule:evenodd;fill:#b2e3f8;fill-rule:evenodd" />
    </g>
  </g>
  <circle
     r="41.566307"
     cy="65.086945"
     cx="160.75166"
     id="btn_motivation_1"
     style="fill:#fafdfe;fill-opacity:1;fill-rule:evenodd;stroke:#e4e9ec;stroke-width:6.69999981;stroke-linecap:butt;stroke-linejoin:miter;stroke-miterlimit:4;stroke-dasharray:none;stroke-opacity:1" />
  <circle
     style="fill:#fafdfe;fill-opacity:1;fill-rule:evenodd;stroke:#e4e9ec;stroke-width:6.69999981;stroke-linecap:butt;stroke-linejoin:miter;stroke-miterlimit:4;stroke-dasharray:none;stroke-opacity:1"
     id="btn_motivation_2"
     cx="110.51678"
     cy="159.00433"
     r="41.566307" />
  <circle
     r="41.566307"
     cy="258.46432"
     cx="79.010818"
     id="btn_motivation_3"
     style="fill:#fafdfe;fill-opacity:1;fill-rule:evenodd;stroke:#e4e9ec;stroke-width:6.69999981;stroke-linecap:butt;stroke-linejoin:miter;stroke-miterlimit:4;stroke-dasharray:none;stroke-opacity:1" />
  <circle
     style="fill:#fafdfe;fill-opacity:1;fill-rule:evenodd;stroke:#e4e9ec;stroke-width:6.69999981;stroke-linecap:butt;stroke-linejoin:miter;stroke-miterlimit:4;stroke-dasharray:none;stroke-opacity:1"
     id="btn_motivation_4"
     cx="64.158768"
     cy="363.30234"
     r="41.566307" />
  <circle
     r="41.566307"
     cy="469.88766"
     cx="70.274323"
     id="btn_motivation_5"
     style="fill:#fafdfe;fill-opacity:1;fill-rule:evenodd;stroke:#e4e9ec;stroke-width:6.69999981;stroke-linecap:butt;stroke-linejoin:miter;stroke-miterlimit:4;stroke-dasharray:none;stroke-opacity:1" />
  <circle
     style="fill:#fafdfe;fill-opacity:1;fill-rule:evenodd;stroke:#e4e9ec;stroke-width:6.69999981;stroke-linecap:butt;stroke-linejoin:miter;stroke-miterlimit:4;stroke-dasharray:none;stroke-opacity:1"
     id="btn_motivation_6"
     cx="89.494629"
     cy="573.85205"
     r="41.566307" />
  <circle
     r="41.566307"
     cy="669.95355"
     cx="130.55618"
     id="btn_motivation_7"
     style="fill:#fafdfe;fill-opacity:1;fill-rule:evenodd;stroke:#e4e9ec;stroke-width:6.69999981;stroke-linecap:butt;stroke-linejoin:miter;stroke-miterlimit:4;stroke-dasharray:none;stroke-opacity:1" />
  <circle
     style="fill:#fafdfe;fill-opacity:1;fill-rule:evenodd;stroke:#e4e9ec;stroke-width:6.69999981;stroke-linecap:butt;stroke-linejoin:miter;stroke-miterlimit:4;stroke-dasharray:none;stroke-opacity:1"
     id="btn_motivation_8"
     cx="185.81456"
     cy="760.1579"
     r="41.566307" />
</svg>
