<?xml version="1.0" encoding="UTF-8" standalone="no"?>
<svg
   xmlns:dc="http://purl.org/dc/elements/1.1/"
   xmlns:cc="http://creativecommons.org/ns#"
   xmlns:rdf="http://www.w3.org/1999/02/22-rdf-syntax-ns#"
   xmlns:svg="http://www.w3.org/2000/svg"
   xmlns="http://www.w3.org/2000/svg"
   version="1.1"
   id="btn_id_full"
   viewBox="0 0 1759.326 781.80598"
   height="220.64302mm"
   width="496.5209mm">
  <g
     transform="translate(475.37731,-77.173539)"
     id="layer1">
    <rect
       id="rect275"
       height="52"
       width="1394.1379"
       y="94.784462"
       x="-111.32931"
       style="fill:none" />
    <rect
       id="rect279"
       height="52"
       width="1340.777"
       y="188.15359"
       x="-58.551292"
       style="fill:none" />
    <rect
       id="rect283"
       height="52"
       width="1313.7679"
       y="288.67654"
       x="-29.819326"
       style="fill:none" />
    <rect
       id="rect291"
       height="52"
       width="1296.837"
       y="497.74149"
       x="-12.890311"
       style="fill:none" />
    <rect
       id="rect295"
       height="52"
       width="1317.702"
       y="602.1004"
       x="-33.753288"
       style="fill:none" />
    <rect
       id="rect299"
       height="52"
       width="1353.0229"
       y="699.93243"
       x="-69.07531"
       style="fill:none" />
    <rect
       id="rect303"
       height="52"
       width="1420.068"
       y="789.36847"
       x="-136.12029"
       style="fill:none" />
    <g
       id="btn_id_joint_1">
      <text
         y="140.35281"
         x="-111.32882"
         style="font-size:62px;font-family:GothamRounded-Medium;fill:#a7a9ac"
         font-size="62"
         id="text_id_1">O meu nome é Vizzy!</text>
      <g
         id="btn_id_1"
         transform="translate(-553.51831,5134.9945)">
        <circle
           id="circle395"
           r="43.611"
           cy="-5014.21"
           cx="364.78201"
           style="fill:#d4e2f4" />
        <path
           id="path397"
           d="m 363.844,-4976.329 c 20.922,0.52 38.303,-16.025 38.819,-36.943 0.519,-20.924 -16.022,-38.301 -36.948,-38.82 -20.92,-0.516 -38.297,16.025 -38.813,36.947 -0.521,20.921 16.02,38.298 36.942,38.816 z"
           style="fill:#fafdfe" />
      </g>
    </g>
    <g
       id="btn_id_joint_2">
      <text
         y="233.72192"
         x="-58.551506"
         style="font-size:62px;font-family:GothamRounded-Medium;fill:#a7a9ac"
         font-size="62"
         id="text_id_2">Tenho 12 anos!</text>
      <g
         id="btn_id_2"
         transform="translate(-553.51831,5134.9945)">
        <circle
           id="circle401"
           r="43.611"
           cy="-4920.8408"
           cx="414.14899"
           style="fill:#d4e2f4" />
        <path
           id="path403"
           d="m 413.211,-4882.96 c 20.922,0.52 38.303,-16.025 38.819,-36.943 0.519,-20.924 -16.022,-38.301 -36.948,-38.82 -20.92,-0.516 -38.297,16.025 -38.813,36.947 -0.521,20.922 16.02,38.298 36.942,38.816 z"
           style="fill:#fafdfe" />
      </g>
    </g>
    <g
       id="btn_id_joint_3">
      <text
         y="334.24542"
         x="-29.819113"
         style="font-size:62px;font-family:GothamRounded-Medium;fill:#a7a9ac"
         font-size="62"
         id="text_id_3">O meu objectivo é ajudar as pessoas</text>
      <g
         id="btn_id_3"
         transform="translate(-553.51831,5134.9945)">
        <circle
           id="circle407"
           r="43.611"
           cy="-4820.3179"
           cx="446.55099"
           style="fill:#d4e2f4" />
        <path
           id="path409"
           d="m 445.611,-4782.437 c 20.922,0.52 38.303,-16.026 38.82,-36.943 0.518,-20.924 -16.023,-38.302 -36.949,-38.82 -20.92,-0.516 -38.297,16.025 -38.813,36.947 -0.521,20.921 16.02,38.298 36.942,38.816 z"
           style="fill:#fafdfe" />
      </g>
    </g>
    <g
       id="btn_id_joint_4">
      <rect
         style="fill:none"
         x="-12.809318"
         y="393.30252"
         width="1295.035"
         height="52"
         id="rect287" />
      <text
         y="438.87231"
         x="-12.809318"
         style="font-size:62px;font-family:GothamRounded-Medium;fill:#a7a9ac"
         font-size="62"
         id="text_id_4">Consigo ver pessoas, objectos e falar</text>
      <g
         id="btn_id_4"
         transform="translate(-553.51831,5134.9945)">
        <circle
           id="circle413"
           r="43.611"
           cy="-4715.6919"
           cx="461.01001"
           style="fill:#d4e2f4" />
        <path
           id="path415"
           d="m 460.07,-4677.81 c 20.922,0.52 38.303,-16.027 38.82,-36.943 0.518,-20.924 -16.023,-38.303 -36.949,-38.82 -20.92,-0.516 -38.297,16.025 -38.813,36.947 -0.521,20.92 16.02,38.297 36.942,38.816 z"
           style="fill:#fafdfe" />
      </g>
    </g>
    <g
       id="btn_id_joint_5">
      <text
         y="543.30981"
         x="-12.890922"
         style="font-size:62px;font-family:GothamRounded-Medium;fill:#a7a9ac"
         font-size="62"
         id="text_id_5">Frase 5</text>
      <g
         id="btn_id_5"
         transform="translate(-553.51831,5134.9945)">
        <circle
           id="circle419"
           r="43.611"
           cy="-4610.1519"
           cx="457.07401"
           style="fill:#d4e2f4" />
        <path
           id="path421"
           d="m 456.137,-4572.271 c 20.922,0.52 38.303,-16.026 38.818,-36.943 0.52,-20.924 -16.021,-38.302 -36.947,-38.82 -20.92,-0.516 -38.297,16.025 -38.814,36.947 -0.52,20.921 16.021,38.298 36.943,38.816 z"
           style="fill:#fafdfe" />
      </g>
    </g>
    <g
       id="btn_id_joint_6">
      <text
         y="647.66925"
         x="-33.753716"
         style="font-size:62px;font-family:GothamRounded-Medium;fill:#a7a9ac"
         font-size="62"
         id="text_id_6">Frase 6</text>
      <g
         id="btn_id_6"
         transform="translate(-553.51831,5134.9945)">
        <circle
           id="circle425"
           r="43.611"
           cy="-4506.894"
           cx="434.87799"
           style="fill:#d4e2f4" />
        <path
           id="path427"
           d="m 433.939,-4469.013 c 20.922,0.52 38.303,-16.025 38.819,-36.943 0.519,-20.924 -16.022,-38.301 -36.948,-38.82 -20.92,-0.516 -38.297,16.025 -38.813,36.947 -0.52,20.922 16.021,38.299 36.942,38.816 z"
           style="fill:#fafdfe" />
      </g>
    </g>
    <g
       id="btn_id_joint_7">
      <text
         y="745.5022"
         x="-69.074913"
         style="font-size:62px;font-family:GothamRounded-Medium;fill:#a7a9ac"
         font-size="62"
         id="text_id_7">Frase 7</text>
      <g
         id="btn_id_7"
         transform="translate(-553.51831,5134.9945)">
        <circle
           id="circle431"
           r="43.611"
           cy="-4409.062"
           cx="395.08301"
           style="fill:#d4e2f4" />
        <path
           id="path433"
           d="m 394.145,-4371.18 c 20.922,0.52 38.303,-16.026 38.819,-36.943 0.519,-20.924 -16.022,-38.302 -36.948,-38.82 -20.92,-0.516 -38.297,16.025 -38.813,36.947 -0.521,20.921 16.02,38.298 36.942,38.816 z"
           style="fill:#fafdfe" />
      </g>
    </g>
    <g
       id="btn_id_joint_8">
      <text
         y="834.93781"
         x="-136.11992"
         style="font-size:62px;font-family:GothamRounded-Medium;fill:#a7a9ac"
         font-size="62"
         id="text_id_8">Frase 8</text>
      <g
         id="btn_id_8"
         transform="translate(-553.51831,5134.9945)">
        <circle
           id="circle437"
           r="43.611"
           cy="-4319.626"
           cx="338.90799"
           style="fill:#d4e2f4" />
        <path
           id="path439"
           d="m 337.97,-4281.744 c 20.922,0.52 38.303,-16.026 38.819,-36.943 0.519,-20.924 -16.022,-38.302 -36.948,-38.82 -20.92,-0.516 -38.297,16.025 -38.813,36.947 -0.521,20.92 16.02,38.297 36.942,38.816 z"
           style="fill:#fafdfe" />
      </g>
    </g>
    <g
       id="btn_id">
      <path
         style="fill:#ffffff;stroke:#d1d3d4;stroke-width:10;stroke-miterlimit:10"
         stroke-miterlimit="10"
         d="m -470.37731,447.24142 c 0,-61.074 49.514,-110.586 110.588,-110.586 61.078,0 110.59,49.512 110.59,110.586 0,61.078 -49.512,110.592 -110.59,110.592 -61.075,0 -110.588,-49.514 -110.588,-110.592 z"
         id="path71" />
      <path
         style="fill:none"
         d="m -295.37331,398.07742 c -43.369,-0.012 -86.74,-0.012 -130.111,0 -6.094,0 -7.666,1.629 -7.668,7.826 -0.003,27.59 -0.004,55.182 0,82.767 0.002,6.166 1.57,7.74 7.73,7.74 21.635,0.01 43.271,0 64.906,0 21.635,0 43.271,0 64.906,0 6.404,0 7.99,-1.547 7.991,-7.801 0.004,-27.589 0.005,-55.179 0,-82.771 -0.001,-6.097 -1.635,-7.759 -7.754,-7.759 z"
         id="path441" />
      <path
         style="clip-rule:evenodd;fill:#bcbec0;fill-rule:evenodd"
         d="m -295.14131,394.74542 c -13.506,-0.023 -27.012,-0.01 -40.517,-0.01 -1.045,0 -2.091,0 -3.084,0 0,0 -0.001,0 -0.001,0 l -43.416,0 c 0,0 0,0 0,0 -1.053,0 -2.125,0 -3.198,0 -13.604,0 -27.209,-0.023 -40.813,0.01 -6.991,0.018 -10.4,3.479 -10.402,10.445 -0.006,28.002 -0.005,56.008 0,84.007 0,7.139 3.376,10.527 10.595,10.529 43.694,0.016 87.388,0.014 131.081,0 7.364,0 10.699,-3.383 10.7,-10.752 0.003,-27.702 0.003,-55.409 10e-4,-83.114 -10e-4,-7.787 -3.24,-11.103 -10.946,-11.119 z m 7.522,93.862 c -0.001,6.254 -1.587,7.801 -7.991,7.801 -21.635,0 -43.271,0 -64.906,0 -21.636,0 -43.271,0 -64.906,0 -6.16,0 -7.729,-1.574 -7.73,-7.74 -0.004,-27.585 -0.003,-55.177 0,-82.767 0.002,-6.197 1.574,-7.824 7.668,-7.826 43.371,-0.01 86.742,-0.01 130.111,0 6.119,0 7.754,1.662 7.755,7.76 0.004,27.592 0.003,55.181 -10e-4,82.77 z"
         id="path443" />
      <rect
         style="fill:none"
         x="-351.41431"
         y="441.57156"
         width="82.560997"
         height="17.355"
         id="rect445" />
      <text
         y="454.71222"
         x="-351.41672"
         style="font-size:18px;font-family:Gotham-Bold;fill:#a7a9ac"
         font-size="18"
         id="text447">Nome</text>
      <rect
         style="fill:none"
         x="-351.41431"
         y="415.19461"
         width="82.560997"
         height="17.355"
         id="rect449" />
      <text
         y="428.33621"
         x="-351.41672"
         style="font-size:18px;font-family:Gotham-Bold;fill:#a7a9ac"
         font-size="18"
         id="text451">ID</text>
      <rect
         style="fill:none"
         x="-351.41431"
         y="467.10623"
         width="82.560997"
         height="17.353001"
         id="rect453" />
      <text
         y="480.24832"
         x="-351.41672"
         style="font-size:18px;font-family:Gotham-Bold;fill:#a7a9ac"
         font-size="18"
         id="text455">Idade</text>
      <path
         style="fill:#dff3fd"
         d="m -359.78931,472.84842 c 0,3.945 -3.201,7.146 -7.15,7.146 l -51.475,0 c -3.949,0 -7.15,-3.201 -7.15,-7.146 l 0,-51.799 c 0,-3.949 3.201,-7.152 7.15,-7.152 l 51.475,0 c 3.949,0 7.15,3.203 7.15,7.152 l 0,51.799 z"
         id="path457" />
      <path
         style="fill:#dcdbdb"
         d="m -364.64131,446.05942 c -0.002,-0.223 0.043,-5.387 -0.305,-6.346 0,0 -0.131,-2.912 -0.783,-5.477 -0.652,-2.566 -3.787,-7.393 -3.787,-7.393 0,0 -1.908,-2.891 -3.724,-2.891 -1.816,0 -2.439,1.52 -3.376,2.869 -0.936,1.35 -1.896,2.805 -4.288,3.914 -2.37,1.098 -2.738,1.619 -11.477,1.629 -8.738,-0.01 -9.107,-0.531 -11.477,-1.629 -2.392,-1.109 -3.353,-2.564 -4.288,-3.914 -0.938,-1.35 -1.561,-2.869 -3.375,-2.869 -1.816,0 -3.724,2.891 -3.724,2.891 0,0 -3.136,4.826 -3.788,7.393 -0.653,2.564 -0.783,5.477 -0.783,5.477 -0.348,0.959 -0.301,6.123 -0.304,6.346 -0.003,0.221 -0.077,3.494 0.608,7.701 0.685,4.207 3.674,8.268 3.674,8.268 l 23.45,5.988 0,0 0.006,0 0.006,0 0,0 23.449,-5.988 c 0,0 2.99,-4.061 3.675,-8.268 0.687,-4.206 0.613,-7.48 0.611,-7.701 z"
         id="path459" />
      <path
         style="fill:#aeadae"
         d="m -415.59731,433.86842 c 1.028,-0.066 0.864,-0.279 3.588,0.912 3.726,1.629 10.5,6.98 10.5,6.98 0,0 1.261,1.52 1.761,3.977 0.5,2.457 0.133,4.98 0,7.176 -0.131,2.195 -0.455,7.629 -0.455,7.629 0,0 0.064,6.197 8.283,6.197 8.217,0 8.479,-4.762 8.479,-4.762 0,0 0.209,-2.295 0,-4.729 -0.209,-2.432 -0.326,-4.141 -0.783,-8.053 -0.457,-3.916 0.805,-4.873 1.174,-5.742 0.344,-0.547 0.739,-1.434 2.674,-3 1.936,-1.564 8.828,-5.695 9.719,-6.131 0.892,-0.434 1.588,-0.391 2.219,-0.152 0.629,0.24 1.152,1 1.695,2.371 0.543,1.369 0.912,10.174 0.912,10.174 0,0 0.164,4.402 -0.391,7.697 -0.554,3.293 -1.137,5.23 -1.957,6.652 -1.246,1.639 -7.109,11.414 -23.74,11.414 -16.633,0 -22.764,-8.936 -23.677,-10.109 -0.913,-1.173 -1.761,-3.768 -2.282,-6.693 -0.521,-2.928 -0.588,-11.961 -0.588,-11.961 0,0 0.319,-5.713 0.652,-6.652 0.333,-0.939 0.958,-3.261 2.217,-3.195 z"
         id="path461" />
      <ellipse
         style="fill:#ffffff"
         cx="-374.56631"
         cy="455.67752"
         rx="7.1240001"
         ry="6.9359999"
         id="ellipse463" />
      <path
         style="fill:#dcdbdb"
         d="m -385.20531,467.81542 c -1.021,0.371 -1.358,0.818 -2.381,1.045 -0.525,0.117 -2.541,0.215 -4.548,0.238 -2.006,-0.023 -4.022,-0.121 -4.548,-0.238 -1.023,-0.227 -1.359,-0.674 -2.381,-1.045 -0.729,-0.271 -0.446,0.381 0.049,0.746 0.495,0.365 1.201,0.875 2.332,1.244 0.531,0.174 2.554,0.184 4.548,0.145 1.993,0.039 4.017,0.029 4.548,-0.145 1.131,-0.369 1.838,-0.879 2.333,-1.244 0.494,-0.365 0.776,-1.017 0.048,-0.746 z"
         id="path465" />
      <path
         style="fill:#dcdbdb"
         d="m -414.94531,445.84542 c 1.22,-0.441 1.956,-0.914 5.528,-1.268 3.574,-0.357 5.554,-0.178 6.008,-0.066 0.455,0.111 0.768,0.75 -0.371,0.777 -1.142,0.025 -3.553,0.045 -5.489,0.32 -1.937,0.277 -4.508,0.576 -5.056,0.744 -0.547,0.164 -1.245,-0.263 -0.62,-0.507 z"
         id="path467" />
      <path
         style="fill:#dcdbdb"
         d="m -368.94331,446.20842 c -1.191,-0.518 -1.896,-1.035 -5.44,-1.613 -3.543,-0.576 -5.53,-0.52 -5.991,-0.438 -0.46,0.082 -0.813,0.703 0.323,0.799 1.137,0.098 3.541,0.266 5.458,0.66 1.915,0.396 4.463,0.855 4.999,1.055 0.535,0.201 1.259,-0.184 0.651,-0.463 z"
         id="path469" />
      <path
         style="fill:#dcdbdb"
         d="m -402.86731,452.97242 c -1.083,-2.486 -3.614,-4.23 -6.563,-4.23 -3.459,0 -6.342,2.4 -6.987,5.582 1.361,-0.621 4.158,-1.693 7.294,-1.693 2.705,-10e-4 4.933,0.192 6.256,0.341 z"
         id="path471" />
      <path
         style="fill:#ffffff"
         d="m -410.47831,460.90142 c 2.401,0.578 4.157,0.525 5.349,0.305 1.715,-1.268 2.824,-3.273 2.824,-5.529 0,-0.959 -0.2,-1.873 -0.562,-2.705 -1.323,-0.148 -3.552,-0.342 -6.257,-0.342 -3.136,0 -5.933,1.072 -7.294,1.693 -0.089,0.439 -0.136,0.891 -0.136,1.354 0,0.533 0.064,1.055 0.182,1.553 0.913,1.197 2.713,2.908 5.894,3.671 z"
         id="path473" />
      <path
         style="fill:#dcdbdb"
         d="m -409.43031,462.61242 c 1.616,0 3.105,-0.525 4.301,-1.406 -1.191,0.221 -2.947,0.273 -5.349,-0.305 -3.181,-0.764 -4.981,-2.475 -5.894,-3.672 0.725,3.082 3.557,5.383 6.942,5.383 z"
         id="path475" />
      <path
         style="fill:#dcdbdb"
         d="m -380.99331,452.97242 c 1.083,-2.486 3.613,-4.23 6.563,-4.23 3.459,0 6.343,2.4 6.988,5.582 -1.361,-0.621 -4.158,-1.693 -7.293,-1.693 -2.705,-10e-4 -4.933,0.192 -6.258,0.341 z"
         id="path477" />
      <path
         style="fill:#dcdbdb"
         d="m -374.43031,462.61242 c -1.615,0 -3.104,-0.525 -4.299,-1.406 1.191,0.221 2.946,0.273 5.348,-0.305 3.181,-0.764 4.98,-2.475 5.895,-3.672 -0.727,3.082 -3.558,5.383 -6.944,5.383 z"
         id="path479" />
      <ellipse
         style="fill:#414141"
         cx="-408.14529"
         cy="456.2493"
         rx="3.375"
         ry="2.8380001"
         id="ellipse481" />
      <ellipse
         style="fill:#414141"
         cx="-375.9353"
         cy="456.2493"
         rx="3.549"
         ry="2.8380001"
         id="ellipse483" />
      <circle
         style="fill:#fdfeff"
         cx="-376.16931"
         cy="455.66141"
         r="0.71799999"
         id="circle485" />
      <circle
         style="fill:#fdfeff"
         cx="-407.81931"
         cy="455.66141"
         r="0.71700001"
         id="circle487" />
      <g
         transform="translate(-553.51831,5134.9945)"
         id="g489">
        <g
           id="g491">
          <path
             style="fill:#bcbec0"
             d="m 186.396,-4653.81 -50.516,0 c -4.699,0 -8.523,-4.006 -8.523,-8.932 l 0,-50.012 c 0,-4.93 3.824,-8.938 8.523,-8.938 l 50.516,0 c 4.701,0 8.523,4.008 8.523,8.938 l 0,50.012 c 10e-4,4.927 -3.821,8.932 -8.523,8.932 z m -50.515,-64.306 c -2.729,0 -4.949,2.404 -4.949,5.363 l 0,50.012 c 0,2.955 2.22,5.361 4.949,5.361 l 50.516,0 c 2.729,0 4.948,-2.406 4.948,-5.361 l 0,-50.012 c 0,-2.959 -2.22,-5.363 -4.948,-5.363 l -50.516,0 z"
             id="path493" />
        </g>
      </g>
    </g>
  </g>
</svg>
