<svg
   id="btn_confused_full"
   viewBox="0 0 825.20419 455.29117"
   height="128.49329mm"
   width="232.89096mm">
  <g
     transform="translate(104.03065,18.140531)"
     id="layer1">
    <g
       id="btn_confused">
      <circle
         style="fill:#fafdfe;fill-opacity:1;fill-rule:evenodd;stroke:#e4e9ec;stroke-width:16.64492798;stroke-linecap:butt;stroke-linejoin:miter;stroke-miterlimit:4;stroke-dasharray:none;stroke-opacity:1"
         id="circle24396"
         cx="308.86429"
         cy="105.8308"
         r="103.26391" />
      <path
         d="m 375.67874,126.93247 c -0.01,-0.537 0.105,-13.07 -0.744,-15.395 0,0 -0.313,-7.066 -1.895,-13.289001 -1.586,-6.225 -9.191,-17.934 -9.191,-17.934 0,0 -4.627,-7.016 -9.033,-7.016 -4.404,0 -5.918,3.688 -8.189,6.961 -2.271,3.275 -4.602,6.805 -10.404,9.496 -5.749,2.664 -6.645,3.93 -27.848,3.953 -21.201,-0.023 -22.098,-1.289 -27.845,-3.953 -5.802,-2.691 -8.134,-6.221 -10.405,-9.496 -2.271,-3.273 -3.783,-6.961 -8.188,-6.961 -4.406,0 -9.033,7.016 -9.033,7.016 0,0 -7.609,11.709 -9.191,17.934 -1.582,6.223001 -1.898,13.289001 -1.898,13.289001 -0.844,2.324 -0.733,14.857 -0.739,15.395 -0.006,0.535 -0.187,8.475 1.476,18.682 1.664,10.207 8.918,20.063 8.918,20.063 l 56.893,14.527 0,0.01 0.014,-0.006 0.014,0.006 0,-0.01 56.896,-14.527 c 0,0 7.254,-9.855 8.916,-20.063 1.658,-10.208 1.478,-18.147 1.476,-18.682 z"
         id="path3853"
         style="fill:#dcdbdb" />
      <path
         d="m 252.04674,97.350469 c 2.492,-0.158 2.098,-0.67 8.703,2.217 9.039,3.949001 25.477,16.932001 25.477,16.932001 0,0 3.061,3.691 4.273,9.65 1.211,5.963 0.318,12.084 0,17.41 -0.32,5.324 -1.106,18.512 -1.106,18.512 0,0 0.157,15.037 20.097,15.037 19.94,0 20.574,-11.555 20.574,-11.555 0,0 0.505,-5.57 0,-11.473 -0.505,-5.903 -0.79,-10.049 -1.899,-19.543 -1.108,-9.494 1.951,-11.816 2.849,-13.926 0.836,-1.328 1.795,-3.48 6.488,-7.279 4.695,-3.797 21.414,-13.818001 23.576,-14.875001 2.164,-1.053 3.852,-0.949 5.379,-0.369 1.531,0.58 2.797,2.428001 4.119,5.752001 1.316,3.322 2.213,24.684 2.213,24.684 0,0 0.398,10.682 -0.947,18.674 -1.348,7.99 -2.762,12.691 -4.748,16.143 -3.023,3.975 -17.248,27.691 -57.604,27.691 -40.354,0 -55.229,-21.68 -57.443,-24.529 -2.217,-2.846 -4.271,-9.137 -5.537,-16.238 -1.268,-7.104 -1.426,-29.018 -1.426,-29.018 0,0 0.775,-13.861 1.582,-16.145 0.807,-2.276 2.325,-7.911001 5.38,-7.752001 z"
         id="path3855"
         style="fill:#aeadae" />
      <ellipse
         cx="351.59677"
         cy="150.26448"
         rx="17.285"
         ry="16.826"
         id="ellipse3857"
         style="fill:#ffffff" />
      <path
         d="m 281.84574,122.02747 c -2.939,1.129 -4.705,2.313 -13.353,3.346 -8.649,1.029 -13.46,0.689 -14.569,0.443 -1.107,-0.248 -1.896,-1.789 0.865,-1.904 2.767,-0.119 8.613,-0.279 13.298,-1.041 4.687,-0.76 10.909,-1.609 12.229,-2.039 1.319,-0.426 3.031,0.576 1.53,1.195 z"
         id="path3859"
         style="fill:#dcdbdb" />
      <path
         d="m 363.20674,119.28547 c -3.146,0.154 -5.234,-0.221 -13.566,2.324 -8.33,2.543 -12.596,4.797 -13.512,5.469 -0.914,0.674 -1.016,2.402 1.564,1.395 2.576,-1.008 7.99,-3.217 12.586,-4.414 4.594,-1.193 10.631,-2.924 12.01,-3.063 1.381,-0.141 2.541,-1.75 0.918,-1.711 z"
         id="path3861"
         style="fill:#dcdbdb" />
      <path
         d="m 282.93174,143.70147 c -2.626,-6.033 -8.767,-10.264 -15.922,-10.264 -8.392,0 -15.388,5.824 -16.956,13.545 3.303,-1.51 10.088,-4.109 17.696,-4.109 6.564,0 11.972,0.465 15.182,0.828 z"
         id="path3863"
         style="fill:#dcdbdb" />
      <path
         d="m 264.46874,162.94147 c 5.822,1.4 10.082,1.273 12.973,0.738 4.163,-3.072 6.854,-7.939 6.854,-13.416 0,-2.326 -0.485,-4.545 -1.362,-6.563 -3.21,-0.363 -8.618,-0.828 -15.182,-0.828 -7.608,0 -14.394,2.6 -17.696,4.109 -0.215,1.063 -0.329,2.158 -0.329,3.281 0,1.295 0.157,2.559 0.442,3.77 2.212,2.905 6.579,7.052 14.3,8.909 z"
         id="path3865"
         style="fill:#ffffff" />
      <path
         d="m 267.01074,167.09047 c 3.919,0 7.532,-1.271 10.431,-3.41 -2.891,0.535 -7.15,0.662 -12.973,-0.738 -7.721,-1.857 -12.088,-6.004 -14.301,-8.908 1.758,7.476 8.628,13.056 16.843,13.056 z"
         id="path3867"
         style="fill:#dcdbdb" />
      <path
         d="m 336.00774,143.70147 c 2.627,-6.033 8.766,-10.264 15.918,-10.264 8.396,0 15.391,5.824 16.957,13.545 -3.301,-1.51 -10.086,-4.109 -17.697,-4.109 -6.561,0 -11.967,0.465 -15.178,0.828 z"
         id="path3869"
         style="fill:#dcdbdb" />
      <path
         d="m 351.92574,167.09047 c -3.916,0 -7.529,-1.271 -10.426,-3.41 2.889,0.535 7.146,0.662 12.973,-0.738 7.719,-1.857 12.086,-6.004 14.297,-8.908 -1.758,7.476 -8.626,13.056 -16.844,13.056 z"
         id="path3871"
         style="fill:#dcdbdb" />
      <ellipse
         cx="270.12674"
         cy="151.42047"
         rx="8.1890001"
         ry="6.8829999"
         id="ellipse3873"
         style="fill:#414141" />
      <ellipse
         cx="348.27475"
         cy="154.08047"
         rx="8.6129999"
         ry="6.8829999"
         id="ellipse3875"
         style="fill:#414141" />
      <path
         d="m 345.96674,152.65447 c 0,-0.959 0.783,-1.74 1.744,-1.74 0.957,0 1.736,0.781 1.736,1.74 0,0.965 -0.779,1.742 -1.736,1.742 -0.961,0 -1.744,-0.777 -1.744,-1.742 z"
         id="path3877"
         style="fill:#fdfeff" />
      <circle
         cx="270.91672"
         cy="149.99448"
         r="1.74"
         id="circle3879"
         style="fill:#fdfeff" />
      <g
         id="g3881"
         transform="translate(-650.96726,-55.376531)">
        <text
           transform="matrix(0.9708,0.2397,-0.2397,0.9708,939.6079,114.6758)"
           font-size="68.5203"
           id="text3883"
           style="font-size:68.52030182px;font-family:GothamRounded-Bold;fill:#b2e3f8">?</text>
      </g>
      <g
         id="g3885"
         transform="translate(-650.96726,-55.376531)">
        <text
           transform="matrix(0.8953,0.4455,-0.4455,0.8953,969.5195,118.4043)"
           font-size="68.5203"
           id="text3887"
           style="font-size:68.52030182px;font-family:GothamRounded-Bold;fill:#b2e3f8">?</text>
      </g>
    </g>
    <circle
       r="41.566307"
       cy="265.43491"
       cx="-39.638325"
       id="btn_confused_1"
       style="fill:#fafdfe;fill-opacity:1;fill-rule:evenodd;stroke:#e4e9ec;stroke-width:6.69999981;stroke-linecap:butt;stroke-linejoin:miter;stroke-miterlimit:4;stroke-dasharray:none;stroke-opacity:1" />
    <circle
       style="fill:#fafdfe;fill-opacity:1;fill-rule:evenodd;stroke:#e4e9ec;stroke-width:6.69999981;stroke-linecap:butt;stroke-linejoin:miter;stroke-miterlimit:4;stroke-dasharray:none;stroke-opacity:1"
       id="btn_confused_2"
       cx="54.305862"
       cy="316.9527"
       r="41.566307" />
    <circle
       r="41.566307"
       cy="353.31818"
       cx="151.2805"
       id="btn_confused_3"
       style="fill:#fafdfe;fill-opacity:1;fill-rule:evenodd;stroke:#e4e9ec;stroke-width:6.69999981;stroke-linecap:butt;stroke-linejoin:miter;stroke-miterlimit:4;stroke-dasharray:none;stroke-opacity:1" />
    <circle
       style="fill:#fafdfe;fill-opacity:1;fill-rule:evenodd;stroke:#e4e9ec;stroke-width:6.69999981;stroke-linecap:butt;stroke-linejoin:miter;stroke-miterlimit:4;stroke-dasharray:none;stroke-opacity:1"
       id="btn_confused_4"
       cx="255.32622"
       cy="372.51108"
       r="41.566307" />
    <circle
       r="41.566307"
       cy="372.51108"
       cx="361.39221"
       id="btn_confused_5"
       style="fill:#fafdfe;fill-opacity:1;fill-rule:evenodd;stroke:#e4e9ec;stroke-width:6.69999981;stroke-linecap:butt;stroke-linejoin:miter;stroke-miterlimit:4;stroke-dasharray:none;stroke-opacity:1" />
    <circle
       style="fill:#fafdfe;fill-opacity:1;fill-rule:evenodd;stroke:#e4e9ec;stroke-width:6.69999981;stroke-linecap:butt;stroke-linejoin:miter;stroke-miterlimit:4;stroke-dasharray:none;stroke-opacity:1"
       id="btn_confused_6"
       cx="465.43793"
       cy="352.30801"
       r="41.566307" />
    <circle
       r="41.566307"
       cy="315.94254"
       cx="563.42273"
       id="btn_confused_7"
       style="fill:#fafdfe;fill-opacity:1;fill-rule:evenodd;stroke:#e4e9ec;stroke-width:6.69999981;stroke-linecap:butt;stroke-linejoin:miter;stroke-miterlimit:4;stroke-dasharray:none;stroke-opacity:1" />
    <circle
       style="fill:#fafdfe;fill-opacity:1;fill-rule:evenodd;stroke:#e4e9ec;stroke-width:6.69999981;stroke-linecap:butt;stroke-linejoin:miter;stroke-miterlimit:4;stroke-dasharray:none;stroke-opacity:1"
       id="btn_confused_8"
       cx="658.37708"
       cy="264.42474"
       r="41.566307" />
  </g>
</svg>
