<?xml version="1.0" encoding="UTF-8" standalone="no"?>
<!-- Created with Inkscape (http://www.inkscape.org/) -->

<svg
   xmlns:dc="http://purl.org/dc/elements/1.1/"
   xmlns:cc="http://creativecommons.org/ns#"
   xmlns:rdf="http://www.w3.org/1999/02/22-rdf-syntax-ns#"
   xmlns:svg="http://www.w3.org/2000/svg"
   xmlns="http://www.w3.org/2000/svg"
   xmlns:sodipodi="http://sodipodi.sourceforge.net/DTD/sodipodi-0.dtd"
   xmlns:inkscape="http://www.inkscape.org/namespaces/inkscape"
   width="541.86664mm"
   height="304.80011mm"
   viewBox="0 0 1919.9999 1080.0004"
   id="svg3631"
   version="1.1"
   inkscape:version="0.91 r13725"
   sodipodi:docname="btn_confused.svg">
  <defs
     id="defs3633" />
  <sodipodi:namedview
     id="base"
     pagecolor="#ffffff"
     bordercolor="#666666"
     borderopacity="1.0"
     inkscape:pageopacity="0.0"
     inkscape:pageshadow="2"
     inkscape:zoom="0.5"
     inkscape:cx="669.18644"
     inkscape:cy="770.789"
     inkscape:document-units="px"
     inkscape:current-layer="layer1"
     showgrid="false"
     fit-margin-top="0"
     fit-margin-left="0"
     fit-margin-right="0"
     fit-margin-bottom="0"
     inkscape:window-width="1920"
     inkscape:window-height="1016"
     inkscape:window-x="0"
     inkscape:window-y="27"
     inkscape:window-maximized="1" />
  <metadata
     id="metadata3636">
    <rdf:RDF>
      <cc:Work
         rdf:about="">
        <dc:format>image/svg+xml</dc:format>
        <dc:type
           rdf:resource="http://purl.org/dc/dcmitype/StillImage" />
        <dc:title></dc:title>
      </cc:Work>
    </rdf:RDF>
  </metadata>
  <g
     inkscape:label="Layer 1"
     inkscape:groupmode="layer"
     id="layer1"
     transform="translate(622.39242,144.7808)">
    <g
       id="btn_confused_icon">
      <circle
         id="circle9"
         r="110.589"
         cy="14.982592"
         cx="336.94986"
         stroke-miterlimit="10"
         style="fill:#ffffff;stroke:#d1d3d4;stroke-width:10;stroke-miterlimit:10" />
      <path
         id="path91"
         d="m 404.25288,37.528564 c -0.01,-0.537 0.105,-13.07 -0.744,-15.395 0,0 -0.313,-7.066 -1.895,-13.2890003 -1.586,-6.225 -9.191,-17.934 -9.191,-17.934 0,0 -4.627,-7.0159997 -9.033,-7.0159997 -4.404,0 -5.918,3.688 -8.189,6.9609997 -2.271,3.275 -4.602,6.805 -10.404,9.49599999 -5.748,2.66400001 -6.644,3.93000001 -27.847,3.95300001 -21.201,-0.023 -22.098,-1.289 -27.845,-3.95300001 -5.802,-2.69099999 -8.134,-6.22099999 -10.405,-9.49599999 -2.271,-3.2729997 -3.783,-6.9609997 -8.188,-6.9609997 -4.406,0 -9.033,7.0159997 -9.033,7.0159997 0,0 -7.609,11.709 -9.191,17.934 -1.582,6.2230003 -1.898,13.2890003 -1.898,13.2890003 -0.844,2.324 -0.733,14.857 -0.739,15.395 -0.01,0.536 -0.187,8.475 1.476,18.682 1.664,10.207 8.918,20.063 8.918,20.063 l 56.893,14.527 0,0.01 0.014,-0.01 0.014,0.01 0,-0.01 56.896,-14.527 c 0,0 7.254,-9.855 8.916,-20.063 1.657,-10.208 1.477,-18.147 1.475,-18.682 z"
         style="fill:#dcdbdb"
         inkscape:connector-curvature="0" />
      <path
         id="path93"
         d="m 280.62088,7.9465637 c 2.492,-0.159 2.098,-0.67 8.703,2.2160003 9.039,3.95 25.477,16.932 25.477,16.932 0,0 3.061,3.691 4.273,9.65 1.211,5.963 0.318,12.084 0,17.41 -0.32,5.325 -1.106,18.512 -1.106,18.512 0,0 0.157,15.037 20.097,15.037 19.94,0 20.574,-11.555 20.574,-11.555 0,0 0.505,-5.57 0,-11.473 -0.505,-5.903 -0.79,-10.049 -1.899,-19.543 -1.108,-9.494 1.951,-11.816 2.848,-13.926 0.836,-1.328 1.795,-3.48 6.488,-7.279 4.695,-3.797 21.414,-13.818 23.576,-14.8750003 2.164,-1.053 3.852,-0.949 5.379,-0.369 1.531,0.58 2.797,2.4280003 4.119,5.7520003 1.316,3.322 2.213,24.684 2.213,24.684 0,0 0.398,10.682 -0.947,18.674 -1.348,7.99 -2.762,12.691 -4.748,16.143 -3.023,3.975 -17.248,27.690996 -57.603,27.690996 -40.354,0 -55.229,-21.678996 -57.443,-24.528996 -2.217,-2.846 -4.271,-9.137 -5.537,-16.239 -1.268,-7.104 -1.426,-29.018 -1.426,-29.018 0,0 0.775,-13.861 1.582,-16.145 0.808,-2.274 2.326,-7.9090003 5.38,-7.7500003 z"
         style="fill:#aeadae"
         inkscape:connector-curvature="0" />
      <ellipse
         id="ellipse95"
         ry="16.826"
         rx="17.285"
         cy="60.860519"
         cx="380.17093"
         style="fill:#ffffff" />
      <path
         id="path97"
         d="m 310.41988,32.623564 c -2.939,1.129 -4.705,2.313 -13.353,3.346 -8.649,1.029 -13.46,0.689 -14.569,0.443 -1.107,-0.248 -1.896,-1.789 0.865,-1.904 2.767,-0.119 8.613,-0.279 13.298,-1.041 4.687,-0.76 10.909,-1.609 12.229,-2.039 1.319,-0.426 3.032,0.576 1.53,1.195 z"
         style="fill:#dcdbdb"
         inkscape:connector-curvature="0" />
      <path
         id="path99"
         d="m 391.78088,29.882564 c -3.146,0.154 -5.234,-0.221 -13.566,2.324 -8.33,2.543 -12.596,4.797 -13.512,5.469 -0.914,0.674 -1.016,2.402 1.564,1.395 2.576,-1.008 7.99,-3.217 12.586,-4.414 4.594,-1.193 10.631,-2.923 12.01,-3.063 1.38,-0.141 2.541,-1.751 0.918,-1.711 z"
         style="fill:#dcdbdb"
         inkscape:connector-curvature="0" />
      <path
         id="path101"
         d="m 311.50688,54.298564 c -2.626,-6.034 -8.767,-10.264 -15.922,-10.264 -8.392,0 -15.388,5.824 -16.956,13.545 3.303,-1.51 10.088,-4.109 17.696,-4.109 6.564,-0.001 11.972,0.464 15.182,0.828 z"
         style="fill:#dcdbdb"
         inkscape:connector-curvature="0" />
      <path
         id="path103"
         d="m 293.04288,73.537564 c 5.822,1.401 10.082,1.274 12.973,0.739 4.163,-3.072 6.854,-7.939 6.854,-13.416 0,-2.326 -0.485,-4.544 -1.362,-6.562 -3.21,-0.364 -8.618,-0.829 -15.182,-0.829 -7.608,0 -14.394,2.6 -17.696,4.109 -0.215,1.063 -0.329,2.158 -0.329,3.281 0,1.295 0.157,2.559 0.442,3.77 2.212,2.905 6.58,7.051 14.3,8.908 z"
         style="fill:#ffffff"
         inkscape:connector-curvature="0" />
      <path
         id="path105"
         d="m 295.58488,77.686564 c 3.919,0 7.532,-1.271 10.431,-3.41 -2.891,0.535 -7.15,0.662 -12.973,-0.739 -7.721,-1.857 -12.088,-6.003 -14.301,-8.907 1.758,7.476 8.628,13.056 16.843,13.056 z"
         style="fill:#dcdbdb"
         inkscape:connector-curvature="0" />
      <path
         id="path107"
         d="m 364.58088,54.298564 c 2.627,-6.034 8.766,-10.264 15.918,-10.264 8.396,0 15.391,5.824 16.957,13.545 -3.301,-1.51 -10.086,-4.109 -17.697,-4.109 -6.56,-0.001 -11.967,0.464 -15.178,0.828 z"
         style="fill:#dcdbdb"
         inkscape:connector-curvature="0" />
      <path
         id="path109"
         d="m 380.49888,77.686564 c -3.916,0 -7.529,-1.271 -10.426,-3.41 2.889,0.535 7.146,0.662 12.973,-0.739 7.719,-1.857 12.086,-6.003 14.297,-8.907 -1.758,7.476 -8.625,13.056 -16.844,13.056 z"
         style="fill:#dcdbdb"
         inkscape:connector-curvature="0" />
      <ellipse
         id="ellipse111"
         ry="6.8829999"
         rx="8.1890001"
         cy="62.016525"
         cx="298.70096"
         style="fill:#414141" />
      <ellipse
         id="ellipse113"
         ry="6.8829999"
         rx="8.6129999"
         cy="64.676559"
         cx="376.84891"
         style="fill:#414141" />
      <path
         id="path115"
         d="m 374.53988,63.250564 c 0,-0.959 0.783,-1.74 1.744,-1.74 0.957,0 1.736,0.781 1.736,1.74 0,0.965 -0.779,1.742 -1.736,1.742 -0.96,0.001 -1.744,-0.777 -1.744,-1.742 z"
         style="fill:#fdfeff"
         inkscape:connector-curvature="0" />
      <circle
         id="circle117"
         r="1.74"
         cy="60.5905"
         cx="299.49088"
         style="fill:#fdfeff" />
      <g
         id="g119"
         transform="translate(-622.40512,1126.2026)">
        <text
           id="text121"
           font-size="68.5203"
           transform="matrix(0.9708,0.2397,-0.2397,0.9708,939.6211,-1156.3071)"
           style="font-size:68.52030182px;font-family:GothamRounded-Bold;fill:#b2e3f8">?</text>
      </g>
      <g
         id="g123"
         transform="translate(-622.40512,1126.2026)">
        <text
           id="text125"
           font-size="68.5203"
           transform="matrix(0.8953,0.4455,-0.4455,0.8953,969.5332,-1152.5786)"
           style="font-size:68.52030182px;font-family:GothamRounded-Bold;fill:#b2e3f8">?</text>
      </g>
    </g>
    <g
       id="btn_confused_joint_1"
       inkscape:label="#btn_confused_join_1">
      <text
         id="text25"
         font-size="62"
         style="font-size:62px;font-family:GothamRounded-Medium;fill:#a7a9ac"
         x="-305.98862"
         y="196.29625">Frase 4</text>
      <path
         id="path5171"
         d="m -11.406627,135.69764 c 22.66616,-0.56226 41.496149,17.36309 42.056239,40.02383 0.56119,22.66834 -17.358759,41.49398 -40.0292689,42.05625 -22.6640001,0.55901 -41.4896391,-17.362 -42.0486491,-40.02819 -0.56444,-22.66399 17.355519,-41.48962 40.021679,-42.05189 z"
         inkscape:connector-curvature="0"
         style="fill:#fafdfe;stroke:#d4e2f4;stroke-width:5.11835384;stroke-miterlimit:4;stroke-dasharray:none;stroke-opacity:1" />
    </g>
    <g
       id="btn_confused_joint_2"
       inkscape:label="#btn_confused_joint_2">
      <text
         id="text21"
         font-size="62"
         style="font-size:62px;font-family:GothamRounded-Medium;fill:#a7a9ac"
         x="-210.55405"
         y="287.41788">Frase 3</text>
      <path
         style="fill:#fafdfe;stroke:#d4e2f4;stroke-width:5.11835384;stroke-miterlimit:4;stroke-dasharray:none;stroke-opacity:1"
         inkscape:connector-curvature="0"
         d="m 80.091374,226.80764 c 22.666156,-0.56226 41.496146,17.36309 42.056236,40.02383 0.56119,22.66834 -17.35876,41.49398 -40.029266,42.05625 -22.664001,0.55901 -41.48964,-17.362 -42.04865,-40.02819 -0.56444,-22.66399 17.355519,-41.48962 40.02168,-42.05189 z"
         id="path3865" />
    </g>
    <g
       id="btn_confused_joint_3">
      <text
         id="text17"
         font-size="62"
         style="font-size:62px;font-family:GothamRounded-Medium;fill:#a7a9ac"
         x="-110.9363"
         y="363.88516">Frase 2</text>
      <path
         id="path3867"
         d="m 179.36737,303.27564 c 22.66616,-0.56226 41.49615,17.36309 42.05624,40.02383 0.56119,22.66834 -17.35876,41.49398 -40.02927,42.05625 -22.664,0.55901 -41.48964,-17.362 -42.04865,-40.02819 -0.56444,-22.66399 17.35552,-41.48962 40.02168,-42.05189 z"
         inkscape:connector-curvature="0"
         style="fill:#fafdfe;stroke:#d4e2f4;stroke-width:5.11835384;stroke-miterlimit:4;stroke-dasharray:none;stroke-opacity:1" />
    </g>
    <g
       id="btn_confused_join_4">
      <text
         id="text13"
         font-size="62"
         style="font-size:62px;font-family:GothamRounded-Medium;fill:#a7a9ac"
         x="6.3985944"
         y="439.8042">Frase 1</text>
      <path
         style="fill:#fafdfe;stroke:#d4e2f4;stroke-width:5.11835384;stroke-miterlimit:4;stroke-dasharray:none;stroke-opacity:1"
         inkscape:connector-curvature="0"
         d="m 283.39037,379.19364 c 22.66616,-0.56226 41.49615,17.36309 42.05624,40.02383 0.56119,22.66834 -17.35876,41.49398 -40.02927,42.05625 -22.664,0.55901 -41.48964,-17.362 -42.04865,-40.02819 -0.56444,-22.66399 17.35552,-41.48962 40.02168,-42.05189 z"
         id="path3869" />
    </g>
    <g
       id="btn_confused_joint_5"
       inkscape:label="#btn_confused_joint_5">
      <text
         id="text29"
         font-size="62"
         style="font-size:62px;font-family:GothamRounded-Medium;fill:#a7a9ac"
         x="453.55582"
         y="439.8042">Frase 8</text>
      <path
         id="path3871"
         d="m 389.00237,379.19364 c 22.66616,-0.56226 41.49615,17.36309 42.05624,40.02383 0.56119,22.66834 -17.35876,41.49398 -40.02927,42.05625 -22.664,0.55901 -41.48964,-17.362 -42.04865,-40.02819 -0.56444,-22.66399 17.35552,-41.48962 40.02168,-42.05189 z"
         inkscape:connector-curvature="0"
         style="fill:#fafdfe;stroke:#d4e2f4;stroke-width:5.11835384;stroke-miterlimit:4;stroke-dasharray:none;stroke-opacity:1" />
    </g>
    <g
       id="btn_confused_joint_6">
      <text
         id="text33"
         font-size="62"
         style="font-size:62px;font-family:GothamRounded-Medium;fill:#a7a9ac"
         x="557.5578"
         y="363.29437">Frase 7</text>
      <path
         style="fill:#fafdfe;stroke:#d4e2f4;stroke-width:5.11835384;stroke-miterlimit:4;stroke-dasharray:none;stroke-opacity:1"
         inkscape:connector-curvature="0"
         d="m 493.00137,302.68464 c 22.66616,-0.56226 41.49615,17.36309 42.05624,40.02383 0.56119,22.66834 -17.35876,41.49398 -40.02927,42.05625 -22.664,0.55901 -41.48964,-17.362 -42.04865,-40.02819 -0.56444,-22.66399 17.35552,-41.48962 40.02168,-42.05189 z"
         id="path3873" />
    </g>
    <g
       id="btn_confused_joint_7">
      <text
         id="text37"
         font-size="62"
         style="font-size:62px;font-family:GothamRounded-Medium;fill:#a7a9ac"
         x="656.74335"
         y="287.08926">Frase 6</text>
      <path
         id="path3875"
         d="m 592.22137,226.47964 c 22.66616,-0.56226 41.49615,17.36309 42.05624,40.02383 0.56119,22.66834 -17.35876,41.49398 -40.02927,42.05625 -22.664,0.55901 -41.48964,-17.362 -42.04865,-40.02819 -0.56444,-22.66399 17.35552,-41.48962 40.02168,-42.05189 z"
         inkscape:connector-curvature="0"
         style="fill:#fafdfe;stroke:#d4e2f4;stroke-width:5.11835384;stroke-miterlimit:4;stroke-dasharray:none;stroke-opacity:1" />
    </g>
    <g
       id="btn_confused_joint_8">
      <text
         id="text41"
         font-size="62"
         style="font-size:62px;font-family:GothamRounded-Medium;fill:#a7a9ac"
         x="748.2121"
         y="194.19966">Frase 5</text>
      <path
         style="fill:#fafdfe;stroke:#d4e2f4;stroke-width:5.11835384;stroke-miterlimit:4;stroke-dasharray:none;stroke-opacity:1"
         inkscape:connector-curvature="0"
         d="m 683.65137,133.58964 c 22.66616,-0.56226 41.49615,17.36309 42.05624,40.02383 0.56119,22.66834 -17.35876,41.49398 -40.02927,42.05625 -22.664,0.55901 -41.48964,-17.362 -42.04865,-40.02819 -0.56444,-22.66399 17.35552,-41.48962 40.02168,-42.05189 z"
         id="path3877" />
    </g>
  </g>
</svg>
