<svg
   width="152.52017mm"
   height="208.8134mm"
   viewBox="0 0 540.42581 739.89"
   id="btn_persuade_full"
   version="1.1">
  <g
     id="btn_persuade">
    <ellipse
       cy="564.49219"
       cx="143.99098"
       id="circle6739"
       style="fill:#fafdfe;fill-opacity:1;fill-rule:evenodd;stroke:#e4e9ec;stroke-width:16.57720757;stroke-linecap:butt;stroke-linejoin:miter;stroke-miterlimit:4;stroke-dasharray:none;stroke-opacity:1"
       rx="103.67844"
       ry="102.01579" />
    <path
       d="m 179.744,526.75127 c 4.984,0 9.711,0 14.438,0.002 0.884,0 1.768,-0.006 2.652,0.021 1.278,0.039 1.973,0.734 1.986,1.996 0.029,3.006 0.045,6.014 -0.005,9.018 -0.022,1.363 -0.7,1.932 -2.141,1.943 -2.785,0.02 -5.57,0.006 -8.355,0.008 -0.476,0 -0.953,0 -1.479,0 0,2.928 0,5.697 0,8.631 0.511,0 0.981,0 1.451,0 7.074,0 14.146,-0.006 21.219,0.002 10.063,0.012 17.987,6.256 20.344,16.018 2.606,10.795 -4.879,22.311 -15.819,24.271 -1.469,0.26 -2.98,0.398 -4.471,0.4 -16.578,0.027 -33.155,0.018 -49.733,0.018 -12,-0.002 -21.337,-10.025 -20.474,-21.979 0.749,-10.381 9.662,-18.637 20.294,-18.719 7.206,-0.057 14.412,-0.01 21.617,-0.012 0.481,0 0.962,0 1.589,0 0.027,-0.537 0.069,-1 0.07,-1.463 0.008,-2.83 -0.009,-5.66 0.012,-8.488 0.013,-1.801 0.683,-2.469 2.503,-2.48 3.134,-0.021 6.268,-0.006 9.495,-0.006 0,-1.775 0,-3.475 0,-5.375 -0.444,0 -0.909,0 -1.374,0 -4.951,0 -9.903,0.004 -14.853,-0.002 -2.151,-0.002 -2.775,-0.625 -2.777,-2.742 -0.004,-2.211 -0.009,-4.42 0.001,-6.633 0.007,-1.541 0.658,-2.326 1.901,-2.332 1.241,-0.01 1.876,0.738 1.902,2.332 0.029,1.8 0.007,3.601 0.007,5.571 z m 5.134,25.543 c 0,-0.029 0,-0.057 0,-0.088 -8.088,0 -16.176,0 -24.264,0 -0.088,0 -0.177,0.002 -0.265,0 -10.182,-0.203 -16.931,7.863 -17.213,15.979 -0.308,8.855 6.972,16.984 15.815,17.037 17.104,0.094 34.208,0.035 51.312,0.035 0.617,0 1.244,0.012 1.852,-0.078 10.403,-1.537 15.392,-11.082 14.292,-18.629 -1.093,-7.492 -7.563,-14.029 -15.146,-14.207 -8.791,-0.207 -17.589,-0.049 -26.383,-0.049 z"
       id="path437"
       style="clip-rule:evenodd;fill:#bcbec0;fill-rule:evenodd" />
    <path
       d="m 166.986,571.67727 c 0,2.305 -0.039,4.418 0.014,6.527 0.031,1.23 -0.414,1.762 -1.694,1.74 -4.597,-0.072 -3.964,0.479 -3.998,-3.902 -0.011,-1.402 -0.002,-2.805 -0.002,-4.365 -2.193,0 -4.255,0.004 -6.315,-0.002 -1.771,-0.006 -1.997,-0.219 -1.995,-1.98 0.006,-4.518 -0.406,-3.748 3.776,-3.813 1.451,-0.021 2.902,-0.002 4.534,-0.002 0,-2.242 -0.005,-4.389 0.002,-6.535 0.005,-1.662 0.063,-1.715 1.719,-1.723 0.794,-0.006 1.595,0.061 2.382,-0.016 1.269,-0.125 1.619,0.48 1.588,1.635 -0.049,1.896 -0.014,3.797 -0.008,5.697 0,0.258 0.033,0.516 0.062,0.941 2.201,0 4.347,-0.004 6.494,0 1.553,0.004 1.789,0.211 1.788,1.734 -0.005,4.324 0.45,4.088 -3.918,4.063 -1.411,-0.009 -2.82,10e-4 -4.429,10e-4 z"
       id="path439"
       style="clip-rule:evenodd;fill:#bcbec0;fill-rule:evenodd" />
    <path
       d="m 207.676,565.86727 c -2.153,-0.049 -3.916,-1.881 -3.885,-4.037 0.028,-2.084 1.999,-3.941 4.088,-3.855 2.053,0.082 3.859,1.977 3.829,4.01 -0.033,2.136 -1.899,3.932 -4.032,3.882 z"
       id="path441"
       style="clip-rule:evenodd;fill:#bcbec0;fill-rule:evenodd" />
    <path
       d="m 199.501,568.70627 c 2.115,0.012 3.9,1.762 3.915,3.832 0.015,2.156 -1.874,3.992 -4.076,3.963 -2.167,-0.027 -3.825,-1.801 -3.786,-4.049 0.036,-2.117 1.767,-3.759 3.947,-3.746 z"
       id="path443"
       style="clip-rule:evenodd;fill:#bcbec0;fill-rule:evenodd" />
    <path
       d="m 212.23,569.76727 c 2.144,0.025 3.858,1.76 3.849,3.895 -0.01,2.162 -1.809,3.918 -3.998,3.902 -2.191,-0.016 -3.842,-1.766 -3.809,-4.039 0.031,-2.127 1.776,-3.783 3.958,-3.758 z"
       id="path445"
       style="clip-rule:evenodd;fill:#bcbec0;fill-rule:evenodd" />
    <path
       d="m 125.295,562.53527 c -1.936,2.324 -4.023,2.758 -7.182,2.83 -3.16,0.074 -4.329,0.563 -8.93,-0.42 -4.601,-0.984 -6.903,-1.779 -9.949003,-3.75 -0.432,-0.277 -0.877,-0.533 -1.748,-0.57 0.182,0.637 0.364,1.271 0.546,1.908 2.842003,9.912 3.678003,19.814 -0.145,29.693 -0.219,0.566 -0.42,1.172 -0.775,1.648 -2.716,3.652 -2.971,7.84 -2.89,12.178 0.11,5.895 0.261,11.818 -1.282,17.59 -0.449,1.68 -1.075,3.365 -1.933,4.871 -2.845,4.988 -9.468,4.961 -12.479,0.037 -2.06,-3.367 -2.492,-7.143 -2.587,-10.945 -0.134,-5.291 0.023,-10.59 -0.165,-15.879 -0.057,-1.609 -0.51,-3.395 -1.347,-4.752 -4.547,-7.369 -6.627,-15.549 -7.804,-23.945 -1.528,-10.902 -0.597,-21.633 3.517,-31.965 2.377,-5.973 5.676,-11.389 9.852,-16.262 3.407,-3.977 9.586,-4.324 13.505,-0.887 2.04,1.787 2.858,3.947 2.103,6.549 -1.049,3.615 -0.066,6.771 1.843,9.822 5.125003,8.195 12.478003,12.338 22.153003,12.424 3.262,0.029 5.313,1.686 6.385,4.697 0.242,0.678 0.819,1.373 1.432,1.758 3.586,2.268 4.625,4.693 3.394,8.785 -1.44,4.781 -2.035,9.654 -2.031,14.631 0.011,12.422 -0.015,33.688 -0.032,46.109 0,0.605 0.169,1.406 -0.144,1.779 -0.636,0.76 -1.535,1.758 -2.348,1.779 -0.794,0.02 -1.813,-0.916 -2.362,-1.695 -0.404,-0.57 -0.273,-1.564 -0.274,-2.371 -0.013,-15.135 0.011,-39.115 -0.038,-54.252 -0.006,-1.818 0.519,-3.23 1.751,-4.57 2.223,-2.419 2.198,-4.991 -0.036,-6.825 z"
       id="path449"
       style="clip-rule:evenodd;fill:#bcbec0;fill-rule:evenodd" />
    <path
       d="m 102.006,487.03127 c 9.4,0.137 16.132,8.66 15.623,17.096 -0.582,9.641 -8.386,16.574 -17.534,15.926 -9.173003,-0.652 -16.305003,-8.705 -15.525003,-17.535 0.836,-9.509 8.384,-16.212 17.436003,-15.487 z"
       id="path451"
       style="clip-rule:evenodd;fill:#bcbec0;fill-rule:evenodd" />
  </g>
  <circle
     r="41.566307"
     cy="65.011703"
     cx="122.64141"
     id="btn_persuade_7"
     style="fill:#fafdfe;fill-opacity:1;fill-rule:evenodd;stroke:#e4e9ec;stroke-width:6.69999981;stroke-linecap:butt;stroke-linejoin:miter;stroke-miterlimit:4;stroke-dasharray:none;stroke-opacity:1" />
  <circle
     style="fill:#fafdfe;fill-opacity:1;fill-rule:evenodd;stroke:#e4e9ec;stroke-width:6.69999981;stroke-linecap:butt;stroke-linejoin:miter;stroke-miterlimit:4;stroke-dasharray:none;stroke-opacity:1"
     id="circle6727"
     cx="217.8709"
     cy="140.25476"
     r="41.566307" />
  <circle
     r="41.566307"
     cy="228.03831"
     cx="305.65445"
     id="btn_persuade_5"
     style="fill:#fafdfe;fill-opacity:1;fill-rule:evenodd;stroke:#e4e9ec;stroke-width:6.69999981;stroke-linecap:butt;stroke-linejoin:miter;stroke-miterlimit:4;stroke-dasharray:none;stroke-opacity:1" />
  <circle
     style="fill:#fafdfe;fill-opacity:1;fill-rule:evenodd;stroke:#e4e9ec;stroke-width:6.69999981;stroke-linecap:butt;stroke-linejoin:miter;stroke-miterlimit:4;stroke-dasharray:none;stroke-opacity:1"
     id="btn_persuade_4"
     cx="373.84348"
     cy="333.06506"
     r="41.566307" />
  <circle
     r="41.566307"
     cy="439.65939"
     cx="427.92441"
     id="btn_persuade_3"
     style="fill:#fafdfe;fill-opacity:1;fill-rule:evenodd;stroke:#e4e9ec;stroke-width:6.69999981;stroke-linecap:butt;stroke-linejoin:miter;stroke-miterlimit:4;stroke-dasharray:none;stroke-opacity:1" />
  <circle
     style="fill:#fafdfe;fill-opacity:1;fill-rule:evenodd;stroke:#e4e9ec;stroke-width:6.69999981;stroke-linecap:butt;stroke-linejoin:miter;stroke-miterlimit:4;stroke-dasharray:none;stroke-opacity:1"
     id="btn_persuade_2"
     cx="460.84323"
     cy="553.30774"
     r="41.566307" />
  <circle
     r="41.566307"
     cy="674.01013"
     cx="474.95129"
     id="btn_persuade_1"
     style="fill:#fafdfe;fill-opacity:1;fill-rule:evenodd;stroke:#e4e9ec;stroke-width:6.69999981;stroke-linecap:butt;stroke-linejoin:miter;stroke-miterlimit:4;stroke-dasharray:none;stroke-opacity:1" />
</svg>
